<svg width="341" height="59" viewBox="0 0 341 59" fill="none" xmlns="http://www.w3.org/2000/svg">
<g clip-path="url(#clip0_2110_1231)">
<path d="M58.2056 33.376C58.232 32.2606 58.1442 31.0461 57.9466 29.8704L57.8895 29.4915C57.8017 28.9015 57.6919 28.1736 57.5118 27.631C57.4152 27.1659 56.9981 26.8257 56.515 26.8257C55.9573 26.8257 55.5051 27.2693 55.5051 27.842C55.5314 28.3933 55.4875 29.2503 55.4436 29.9049C55.4304 30.8782 55.2108 32.1142 55.0703 32.9238C53.4236 41.9676 45.7829 49.5428 36.4867 51.343C29.6364 52.6909 22.5709 50.9985 17.0907 46.6919C11.5973 42.3724 8.3785 35.9642 8.25555 29.1211C8.1809 19.1126 14.0212 10.7234 23.4975 7.22649C33.0879 3.69079 43.2536 6.24459 50.0204 13.8844C50.3542 14.2677 50.9074 14.3452 51.3422 14.0653C51.7725 13.7854 51.9218 13.2557 51.6891 12.7992C51.0611 11.5804 50.2224 10.3358 49.0324 8.8759C41.3565 -0.167892 27.5945 -2.63125 16.331 3.01897C6.49906 7.73897 -0.0614149 18.2685 6.21811e-05 29.2244C-0.00872025 37.7816 3.80286 45.9641 10.4512 51.6746C15.9797 56.4204 23.0013 59.0001 30.1589 59.0001C31.4192 59.0001 32.6839 58.9182 33.9442 58.7589C37.8963 58.2895 41.8088 56.9588 45.2559 54.9088C46.5997 54.1423 47.9785 53.1345 49.4715 51.8167L49.7438 51.5755C50.2663 51.1147 50.9162 50.542 51.3334 50.0123C55.3953 45.7057 57.8807 40.0684 58.1573 34.5646L58.21 33.966V33.3803L58.2056 33.376Z" fill="#231F20"/>
<path d="M79.0507 22.295C75.327 17.9109 68.4503 17.3985 62.8515 17.4372C50.5341 17.9368 39.1301 21.8299 29.8559 28.7032C27.3178 30.7015 24.5162 33.1863 22.9573 36.4593L22.9046 36.5756C22.7377 36.9331 22.808 37.3508 23.0803 37.6436C23.2603 37.8374 23.5062 37.9494 23.7741 37.958C24.0463 37.9709 24.2966 37.8762 24.4942 37.6996C25.4208 36.8685 26.5713 36.0674 28.0994 35.1932C36.6755 30.6067 46.986 27.4931 58.7589 25.9384C66.6148 24.7498 73.1226 25.6369 73.689 27.2217C73.8427 27.6524 73.8339 29.3406 67.2295 33.0485C64.8407 34.362 62.1138 35.598 58.8906 36.8254C58.5174 36.9675 58.2715 37.312 58.2539 37.6996C58.2451 37.9623 58.3373 38.2121 58.5174 38.4016C58.6974 38.5954 58.9477 38.7074 59.2112 38.716C59.6591 38.7332 60.1114 38.7418 60.5593 38.7418C61.8854 38.7418 63.2028 38.66 64.4938 38.4963C69.1178 37.8461 74.9142 36.5713 78.7433 32.4327C81.3605 29.6162 81.4966 25.1589 79.0507 22.2907V22.295Z" fill="#21A5AC"/>
<path d="M133.884 30.4174H140.796V55.417H134.459V52.0966C130.762 54.6849 126.081 55.9812 120.416 55.9812C115.854 55.9812 111.616 54.9906 107.703 53.0139C103.791 51.0372 100.669 48.1518 98.3414 44.362C96.014 40.5722 94.8503 36.0891 94.8503 30.9083C94.8503 26.0117 96.014 21.632 98.3414 17.7733C100.669 13.9146 103.887 10.8871 107.993 8.69933C112.099 6.51159 116.719 5.41772 121.856 5.41772C125.887 5.41772 129.55 6.06371 132.839 7.35999C136.128 8.65626 138.925 10.5512 141.23 13.0447L136.765 17.4244C132.733 13.6088 127.859 11.7053 122.146 11.7053C118.304 11.7053 114.861 12.5279 111.814 14.1773C108.766 15.8267 106.377 18.1092 104.647 21.029C102.917 23.9489 102.056 27.2434 102.056 30.9169C102.056 34.8273 102.93 38.2166 104.687 41.089C106.439 43.9615 108.757 46.1363 111.638 47.6221C114.519 49.1036 117.641 49.8486 121 49.8486C123.354 49.8486 125.646 49.461 127.877 48.6815C130.107 47.9063 132.114 46.7651 133.888 45.2578V30.426L133.884 30.4174Z" fill="#231F20"/>
<path d="M156.569 52.8417C154.553 50.8434 153.543 48.0269 153.543 44.4008V3.01465H160.455V43.8366C160.455 45.8607 160.947 47.4154 161.931 48.4963C162.914 49.5816 164.39 50.1199 166.361 50.1199C167.56 50.1199 168.689 49.883 169.747 49.4136L170.107 54.9949C168.522 55.5591 166.866 55.8433 165.136 55.8433C161.439 55.8433 158.584 54.8442 156.564 52.8417H156.569Z" fill="#231F20"/>
<path d="M182.06 53.3713C179.034 51.7219 176.672 49.4524 174.968 46.554C173.264 43.66 172.412 40.3741 172.412 36.7006C172.412 33.0271 173.264 29.7455 174.968 26.8472C176.672 23.9531 179.039 21.6922 182.06 20.0686C185.086 18.445 188.493 17.6311 192.287 17.6311C196.081 17.6311 199.476 18.445 202.479 20.0686C205.478 21.6922 207.832 23.9531 209.536 26.8472C211.24 29.7412 212.092 33.0271 212.092 36.7006C212.092 40.3741 211.24 43.6557 209.536 46.554C207.832 49.448 205.478 51.7219 202.479 53.3713C199.48 55.0207 196.081 55.8433 192.287 55.8433C188.493 55.8433 185.086 55.0207 182.06 53.3713ZM198.874 48.2508C200.819 47.144 202.343 45.5937 203.445 43.5911C204.547 41.5886 205.101 39.2932 205.101 36.7049C205.101 34.1167 204.547 31.8213 203.445 29.8187C202.339 27.8161 200.815 26.2744 198.874 25.1934C196.929 24.1125 194.733 23.5699 192.283 23.5699C189.832 23.5699 187.637 24.1125 185.692 25.1934C183.746 26.2787 182.209 27.8204 181.081 29.8187C179.952 31.8213 179.39 34.1167 179.39 36.7049C179.39 39.2932 179.952 41.5886 181.081 43.5911C182.209 45.5937 183.746 47.1483 185.692 48.2508C187.637 49.3576 189.832 49.9132 192.283 49.9132C194.733 49.9132 196.929 49.3576 198.874 48.2508Z" fill="#231F20"/>
<path d="M236.507 37.9754L228.585 45.1803V55.4213H221.673V3.01465H228.585V36.6317L249.399 17.9843H257.751L241.693 33.4535L259.337 55.417H250.84L236.507 37.9711V37.9754Z" fill="#231F20"/>
<path d="M300.456 17.9885V55.4213H293.83V49.4868C292.293 51.5583 290.347 53.1345 287.998 54.2197C285.644 55.305 283.053 55.8433 280.221 55.8433C276.524 55.8433 273.213 55.0423 270.284 53.4402C267.355 51.8425 265.063 49.5902 263.407 46.6961C261.752 43.8021 260.922 40.4688 260.922 36.7006C260.922 32.9323 261.752 29.612 263.407 26.7438C265.063 23.8713 267.355 21.6362 270.284 20.0342C273.213 18.4364 276.524 17.6311 280.221 17.6311C282.957 17.6311 285.477 18.1393 287.783 19.1513C290.088 20.1634 292.007 21.6577 293.544 23.6345V17.9842H300.456V17.9885ZM287.348 48.2508C289.315 47.144 290.852 45.5937 291.959 43.5911C293.061 41.5886 293.614 39.2932 293.614 36.7049C293.614 34.1167 293.061 31.8213 291.959 29.8187C290.852 27.8161 289.32 26.2744 287.348 25.1934C285.381 24.1125 283.194 23.5699 280.796 23.5699C278.399 23.5699 276.15 24.1125 274.205 25.1934C272.26 26.2787 270.723 27.8204 269.594 29.8187C268.466 31.8213 267.904 34.1167 267.904 36.7049C267.904 39.2932 268.466 41.5886 269.594 43.5911C270.723 45.5937 272.26 47.1483 274.205 48.2508C276.15 49.3576 278.346 49.9132 280.796 49.9132C283.247 49.9132 285.381 49.3576 287.348 48.2508Z" fill="#231F20"/>
<path d="M315.505 54.6074C312.624 53.7848 310.367 52.734 308.733 51.4636L311.614 46.0976C313.296 47.2733 315.333 48.2164 317.735 48.9227C320.137 49.629 322.561 49.9821 325.007 49.9821C331.058 49.9821 334.079 48.2854 334.079 44.8961C334.079 43.7678 333.671 42.872 332.854 42.2131C332.038 41.5542 331.019 41.0719 329.794 40.7661C328.569 40.4603 326.83 40.1201 324.573 39.7411C321.499 39.2717 318.991 38.7291 317.046 38.1175C315.101 37.506 313.432 36.4681 312.04 35.0082C310.648 33.5483 309.95 31.5027 309.95 28.8627C309.95 25.4735 311.39 22.7517 314.271 20.7061C317.151 18.6562 321.016 17.6355 325.864 17.6355C328.406 17.6355 330.953 17.9413 333.495 18.5528C336.038 19.1643 338.128 19.9912 339.762 21.0248L336.811 26.3908C333.689 24.414 330.018 23.4235 325.793 23.4235C322.864 23.4235 320.634 23.8929 319.097 24.8361C317.56 25.7792 316.791 27.0238 316.791 28.5785C316.791 29.8059 317.222 30.7662 318.087 31.4725C318.952 32.1788 320.019 32.6956 321.292 33.0272C322.566 33.3588 324.353 33.7335 326.658 34.1555C329.732 34.6766 332.213 35.2278 334.11 35.8135C336.007 36.4035 337.628 37.4027 338.971 38.8152C340.315 40.2278 340.987 42.2045 340.987 44.7497C340.987 48.1389 339.511 50.8348 336.556 52.8374C333.605 54.84 329.583 55.8391 324.493 55.8391C321.371 55.8391 318.372 55.4256 315.491 54.6031L315.505 54.6074Z" fill="#231F20"/>
</g>
<defs>
<clipPath id="clip0_2110_1231">
<rect width="341" height="59" fill="white"/>
</clipPath>
</defs>
</svg>
