<svg width="24" height="24" viewBox="0 0 24 24" fill="none" xmlns="http://www.w3.org/2000/svg">
<path d="M4 4L20 20" stroke="#B0B0B0" stroke-width="1.5" stroke-linecap="round"/>
<path fill-rule="evenodd" clip-rule="evenodd" d="M4.67359 6.79491C3.38221 7.94889 2.36508 9.40309 1.73175 11.0474C1.49567 11.6604 1.49567 12.3396 1.73175 12.9526C3.31889 17.0733 7.31641 20 12 20C13.7155 20 15.3391 19.6073 16.7858 18.9071L15.2673 17.3886C14.2543 17.7834 13.1523 18 12 18C8.17084 18 4.89784 15.6083 3.5981 12.2337C3.54022 12.0835 3.54022 11.9165 3.5981 11.7663C4.13037 10.3843 4.99356 9.16721 6.09036 8.21168L4.67359 6.79491ZM8.50827 10.6296C8.34153 11.0541 8.24997 11.5163 8.24997 12C8.24997 14.0711 9.9289 15.75 12 15.75C12.4836 15.75 12.9459 15.6584 13.3704 15.4917L12.1253 14.2466C12.0838 14.2488 12.042 14.25 12 14.25C10.7573 14.25 9.74997 13.2426 9.74997 12C9.74997 11.958 9.75112 11.9162 9.7534 11.8747L8.50827 10.6296ZM11.8747 9.75343L10.6296 8.50828C11.0541 8.34155 11.5163 8.25 12 8.25C14.071 8.25 15.75 9.92893 15.75 12C15.75 12.4836 15.6584 12.9459 15.4917 13.3704L14.2465 12.1252C14.2488 12.0838 14.25 12.042 14.25 12C14.25 10.7574 13.2426 9.75 12 9.75C11.9579 9.75 11.9162 9.75115 11.8747 9.75343ZM17.9096 15.7883C19.0064 14.8328 19.8696 13.6157 20.4018 12.2337C20.4597 12.0835 20.4597 11.9165 20.4018 11.7663C19.1021 8.39172 15.8291 6 12 6C10.8476 6 9.74569 6.2166 8.73272 6.6114L7.21419 5.09287C8.66091 4.39267 10.2844 4 12 4C16.6835 4 20.681 6.92668 22.2682 11.0474C22.5043 11.6604 22.5043 12.3396 22.2682 12.9526C21.6349 14.5969 20.6177 16.0511 19.3264 17.2051L17.9096 15.7883Z" fill="#B0B0B0"/>
</svg>
