<svg width="23" height="22" viewBox="0 0 23 22" fill="none" xmlns="http://www.w3.org/2000/svg">
<path d="M21.1849 9.09668H12.2048C11.8088 9.09668 11.4883 9.41548 11.4883 9.80918V12.6639C11.4883 13.0576 11.8088 13.3764 12.2048 13.3764H17.2628C16.7113 14.8061 15.6743 16.0014 14.359 16.7608L16.5133 20.4733C19.9687 18.4858 22.0145 14.9936 22.0145 11.0889C22.0145 10.5311 21.9722 10.1326 21.892 9.68728C21.826 9.34508 21.529 9.09668 21.1849 9.09668Z" fill="#167EE6"/>
<path d="M11.0074 17.6609C8.53259 17.6609 6.37358 16.3156 5.21394 14.3281L1.48047 16.4656C3.3802 19.7422 6.93926 21.9453 11.0074 21.9453C13.0061 21.9453 14.887 21.4109 16.5133 20.4781V20.4734L14.359 16.7609C13.3692 17.3328 12.2284 17.6609 11.0074 17.6609Z" fill="#01AB6C"/>
<path d="M16.5091 20.4784V20.4737L14.3548 16.7612C13.3696 17.3284 12.2288 17.6612 11.0078 17.6612V21.9455C13.0065 21.9455 14.8875 21.4112 16.5091 20.4784Z" fill="#01AB6C"/>
<path d="M4.30859 11C4.30859 9.78601 4.64328 8.65161 5.21367 7.67192L1.4802 5.53442C0.537399 7.14223 0 9.00786 0 11C0 12.9922 0.537399 14.8578 1.4802 16.4657L5.21367 14.3282C4.63857 13.3485 4.30859 12.2141 4.30859 11Z" fill="#FFD500"/>
<path d="M11.0074 4.33906C12.6197 4.33906 14.1045 4.91094 15.2595 5.85781C15.547 6.09219 15.9618 6.07343 16.2211 5.81562L18.2528 3.79531C18.5498 3.5 18.5262 3.01719 18.2104 2.74531C16.273 1.06719 13.751 0.0546875 11.0074 0.0546875C6.93926 0.0546875 3.3802 2.25781 1.48047 5.53437L5.21394 7.67187C6.37358 5.68437 8.53259 4.33906 11.0074 4.33906Z" fill="#FF4B26"/>
<path d="M15.2599 5.85781C15.5474 6.09219 15.9622 6.07343 16.2215 5.81562L18.2532 3.79531C18.5502 3.5 18.5267 3.01719 18.2108 2.74531C16.2734 1.06719 13.7514 0.0546875 11.0078 0.0546875V4.33906C12.6201 4.33906 14.1049 4.90625 15.2599 5.85781Z" fill="#D93F21"/>
</svg>
