<svg width="20" height="21" viewBox="0 0 20 21" fill="none" xmlns="http://www.w3.org/2000/svg">
<path d="M12 3.73666H11.25C11.25 4.06847 11.468 4.36085 11.7861 4.4555L12 3.73666ZM13.3304 4.28826L12.973 4.94766C13.2649 5.10581 13.626 5.05331 13.8607 4.81859L13.3304 4.28826ZM14.2431 3.37556L13.7127 2.84523V2.84523L14.2431 3.37556ZM15.6573 3.37556L15.127 3.90589L15.127 3.90589L15.6573 3.37556ZM17.0715 4.78978L17.6018 4.25945V4.25945L17.0715 4.78978ZM17.0715 6.20399L16.5412 5.67366H16.5412L17.0715 6.20399ZM16.1587 7.11677L15.6284 6.58644C15.3937 6.82115 15.3412 7.18223 15.4993 7.47407L16.1587 7.11677ZM16.7101 8.44678L15.9913 8.66072C16.0859 8.97874 16.3783 9.19678 16.7101 9.19678V8.44678ZM16.7101 12.4468V11.6968C16.3783 11.6968 16.0859 11.9148 15.9913 12.2328L16.7101 12.4468ZM16.1586 13.777L15.4992 13.4197C15.3411 13.7115 15.3936 14.0726 15.6283 14.3073L16.1586 13.777ZM17.0711 14.6894L17.6014 14.1591L17.0711 14.6894ZM17.0711 16.1037L16.5407 15.5733L16.5407 15.5733L17.0711 16.1037ZM15.6568 17.5179L16.1872 18.0482H16.1872L15.6568 17.5179ZM13.3302 16.6054L13.8605 16.0751C13.6258 15.8404 13.2647 15.7879 12.9729 15.946L13.3302 16.6054ZM12 17.1569L11.7861 16.4381C11.468 16.5327 11.25 16.8251 11.25 17.1569H12ZM8 17.1569H8.75C8.75 16.8251 8.53197 16.5327 8.21394 16.4381L8 17.1569ZM6.66999 16.6055L7.02729 15.9461C6.73545 15.7879 6.37437 15.8405 6.13966 16.0752L6.66999 16.6055ZM5.75779 17.5177L5.22746 16.9874L5.22746 16.9874L5.75779 17.5177ZM4.34358 17.5177L3.81325 18.048H3.81325L4.34358 17.5177ZM2.92936 16.1035L2.39903 16.6338H2.39903L2.92936 16.1035ZM2.92936 14.6893L2.39903 14.1589H2.39903L2.92936 14.6893ZM3.84148 13.7772L4.37181 14.3075C4.60653 14.0728 4.65904 13.7117 4.50088 13.4198L3.84148 13.7772ZM3.28988 12.4468L4.00872 12.2328C3.91407 11.9148 3.62169 11.6968 3.28988 11.6968V12.4468ZM3.28988 8.44678V9.19678C3.62169 9.19678 3.91407 8.97874 4.00872 8.66071L3.28988 8.44678ZM3.84137 7.1166L4.50078 7.47392C4.65892 7.18207 4.60642 6.82099 4.3717 6.58627L3.84137 7.1166ZM2.92893 6.20416L2.3986 6.73449H2.3986L2.92893 6.20416ZM2.92893 4.78994L3.45926 5.32027H3.45926L2.92893 4.78994ZM4.34314 3.37573L4.87347 3.90606V3.90606L4.34314 3.37573ZM5.75735 3.37573L6.28768 2.8454V2.8454L5.75735 3.37573ZM6.66979 4.28817L6.13946 4.8185C6.37418 5.05321 6.73526 5.10572 7.02711 4.94757L6.66979 4.28817ZM8 3.73666L8.21394 4.4555C8.53197 4.36085 8.75 4.06847 8.75 3.73666H8ZM9 0.696777C8.0335 0.696777 7.25 1.48028 7.25 2.44678H8.75C8.75 2.30871 8.86193 2.19678 9 2.19678V0.696777ZM11 0.696777H9V2.19678H11V0.696777ZM12.75 2.44678C12.75 1.48028 11.9665 0.696777 11 0.696777V2.19678C11.1381 2.19678 11.25 2.30871 11.25 2.44678H12.75ZM12.75 3.73666V2.44678H11.25V3.73666H12.75ZM13.6877 3.62886C13.2232 3.37712 12.7299 3.17137 12.2139 3.01782L11.7861 4.4555C12.2013 4.57909 12.5986 4.74476 12.973 4.94766L13.6877 3.62886ZM13.7127 2.84523L12.8001 3.75793L13.8607 4.81859L14.7734 3.90589L13.7127 2.84523ZM16.1876 2.84523C15.5042 2.16182 14.3962 2.16182 13.7127 2.84523L14.7734 3.90589C14.871 3.80826 15.0293 3.80826 15.127 3.90589L16.1876 2.84523ZM17.6018 4.25945L16.1876 2.84523L15.127 3.90589L16.5412 5.32011L17.6018 4.25945ZM17.6018 6.73432C18.2852 6.0509 18.2852 4.94287 17.6018 4.25945L16.5412 5.32011C16.6388 5.41774 16.6388 5.57603 16.5412 5.67366L17.6018 6.73432ZM16.6891 7.6471L17.6018 6.73432L16.5412 5.67366L15.6284 6.58644L16.6891 7.6471ZM17.429 8.23284C17.2755 7.71706 17.0698 7.22388 16.8181 6.75947L15.4993 7.47407C15.7021 7.84837 15.8677 8.24556 15.9913 8.66072L17.429 8.23284ZM16.7101 9.19678H18V7.69678H16.7101V9.19678ZM18 9.19678C18.1381 9.19678 18.25 9.30871 18.25 9.44678H19.75C19.75 8.48028 18.9665 7.69678 18 7.69678V9.19678ZM18.25 9.44678V11.4468H19.75V9.44678H18.25ZM18.25 11.4468C18.25 11.5848 18.1381 11.6968 18 11.6968V13.1968C18.9665 13.1968 19.75 12.4133 19.75 11.4468H18.25ZM18 11.6968H16.7101V13.1968H18V11.6968ZM16.818 14.1343C17.0697 13.6698 17.2754 13.1766 17.429 12.6607L15.9913 12.2328C15.8677 12.6481 15.7021 13.0453 15.4992 13.4197L16.818 14.1343ZM17.6014 14.1591L16.6889 13.2467L15.6283 14.3073L16.5407 15.2198L17.6014 14.1591ZM17.6014 16.634C18.2848 15.9506 18.2848 14.8425 17.6014 14.1591L16.5407 15.2198C16.6384 15.3174 16.6384 15.4757 16.5407 15.5733L17.6014 16.634ZM16.1872 18.0482L17.6014 16.634L16.5407 15.5733L15.1265 16.9875L16.1872 18.0482ZM13.7123 18.0482C14.3957 18.7316 15.5038 18.7316 16.1872 18.0482L15.1265 16.9875C15.0289 17.0852 14.8706 17.0852 14.773 16.9875L13.7123 18.0482ZM12.7998 17.1357L13.7123 18.0482L14.773 16.9875L13.8605 16.0751L12.7998 17.1357ZM12.2139 17.8757C12.7298 17.7222 13.223 17.5165 13.6875 17.2648L12.9729 15.946C12.5985 16.1488 12.2013 16.3145 11.7861 16.4381L12.2139 17.8757ZM12.75 18.4468V17.1569H11.25V18.4468H12.75ZM11 20.1968C11.9665 20.1968 12.75 19.4133 12.75 18.4468H11.25C11.25 18.5848 11.1381 18.6968 11 18.6968V20.1968ZM9 20.1968H11V18.6968H9V20.1968ZM7.25 18.4468C7.25 19.4133 8.0335 20.1968 9 20.1968V18.6968C8.86193 18.6968 8.75 18.5848 8.75 18.4468H7.25ZM7.25 17.1569V18.4468H8.75V17.1569H7.25ZM6.31269 17.2649C6.7771 17.5166 7.27028 17.7222 7.78606 17.8757L8.21394 16.4381C7.79878 16.3145 7.4016 16.1489 7.02729 15.9461L6.31269 17.2649ZM6.28812 18.048L7.20032 17.1358L6.13966 16.0752L5.22746 16.9874L6.28812 18.048ZM3.81325 18.048C4.49667 18.7314 5.6047 18.7314 6.28812 18.048L5.22746 16.9874C5.12983 17.085 4.97154 17.085 4.87391 16.9874L3.81325 18.048ZM2.39903 16.6338L3.81325 18.048L4.87391 16.9874L3.45969 15.5732L2.39903 16.6338ZM2.39903 14.1589C1.71562 14.8424 1.71562 15.9504 2.39903 16.6338L3.45969 15.5732C3.36206 15.4755 3.36206 15.3172 3.45969 15.2196L2.39903 14.1589ZM3.31115 13.2468L2.39903 14.1589L3.45969 15.2196L4.37181 14.3075L3.31115 13.2468ZM2.57104 12.6607C2.72459 13.1766 2.93034 13.67 3.18208 14.1345L4.50088 13.4198C4.29798 13.0454 4.13231 12.6481 4.00872 12.2328L2.57104 12.6607ZM3.28988 11.6968H1.99999V13.1968H3.28988V11.6968ZM1.99999 11.6968C1.86191 11.6968 1.74998 11.5848 1.74998 11.4468H0.249985C0.249985 12.4133 1.03349 13.1968 1.99999 13.1968V11.6968ZM1.74998 11.4468V9.44678H0.249985V11.4468H1.74998ZM1.74998 9.44678C1.74998 9.30871 1.86191 9.19678 1.99998 9.19678V7.69678C1.03349 7.69678 0.249985 8.48028 0.249985 9.44678H1.74998ZM1.99998 9.19678H3.28988V7.69678H1.99998V9.19678ZM3.18196 6.75928C2.93027 7.22375 2.72456 7.71699 2.57104 8.23284L4.00872 8.66071C4.13229 8.2455 4.29793 7.84827 4.50078 7.47392L3.18196 6.75928ZM2.3986 6.73449L3.31104 7.64693L4.3717 6.58627L3.45926 5.67383L2.3986 6.73449ZM2.3986 4.25961C1.71518 4.94303 1.71518 6.05107 2.3986 6.73449L3.45926 5.67383C3.36162 5.5762 3.36162 5.4179 3.45926 5.32027L2.3986 4.25961ZM3.81281 2.8454L2.3986 4.25961L3.45926 5.32027L4.87347 3.90606L3.81281 2.8454ZM6.28768 2.8454C5.60427 2.16198 4.49623 2.16198 3.81281 2.8454L4.87347 3.90606C4.9711 3.80843 5.12939 3.80843 5.22702 3.90606L6.28768 2.8454ZM7.20012 3.75784L6.28768 2.8454L5.22702 3.90606L6.13946 4.8185L7.20012 3.75784ZM7.78606 3.01782C7.2702 3.17134 6.77694 3.37706 6.31247 3.62876L7.02711 4.94757C7.40147 4.74472 7.79871 4.57907 8.21394 4.4555L7.78606 3.01782ZM7.25 2.44678V3.73666H8.75V2.44678H7.25Z" fill="black"/>
<circle cx="10" cy="10.4468" r="3" stroke="black" stroke-width="1.5" stroke-linecap="round" stroke-linejoin="round"/>
</svg>
