<svg width="22" height="17" viewBox="0 0 22 17" fill="none" xmlns="http://www.w3.org/2000/svg">
<path d="M13 8.44678L9.5 10.4468V6.44678L13 8.44678Z" fill="black" stroke="black" stroke-width="1.5" stroke-linecap="round" stroke-linejoin="round"/>
<path d="M1 9.14481V7.74875C1 4.89452 1 3.46692 1.905 2.54903C2.811 1.63016 4.237 1.59072 7.088 1.51086C8.438 1.4734 9.818 1.44678 11 1.44678C12.182 1.44678 13.561 1.4734 14.912 1.51086C17.763 1.59072 19.189 1.63016 20.094 2.54903C20.999 3.4679 21 4.89551 21 7.74875V9.14382C21 11.999 21 13.4257 20.095 14.3445C19.189 15.2624 17.764 15.3028 14.912 15.3817C13.562 15.4202 12.182 15.4468 11 15.4468C9.818 15.4468 8.439 15.4202 7.088 15.3817C4.237 15.3028 2.811 15.2634 1.905 14.3445C0.999 13.4257 1 11.998 1 9.14481Z" stroke="black" stroke-width="1.5"/>
</svg>
