<svg width="67" height="48" viewBox="0 0 67 48" fill="none" xmlns="http://www.w3.org/2000/svg">
<path d="M64.9669 7.6329C64.2113 4.72998 61.9847 2.44406 59.1574 1.66825C54.0338 0.258301 33.4867 0.258301 33.4867 0.258301C33.4867 0.258301 12.9395 0.258301 7.81552 1.66825C4.98826 2.44406 2.7617 4.72998 2.00608 7.6329C0.633331 12.8941 0.633331 23.8716 0.633331 23.8716C0.633331 23.8716 0.633331 34.8488 2.00608 40.1104C2.7617 43.0133 4.98826 45.2992 7.81552 46.0754C12.9395 47.485 33.4867 47.485 33.4867 47.485C33.4867 47.485 54.0338 47.485 59.1574 46.0754C61.9847 45.2992 64.2113 43.0133 64.9669 40.1104C66.34 34.8488 66.34 23.8716 66.34 23.8716C66.34 23.8716 66.34 12.8941 64.9669 7.6329Z" fill="#FF0000"/>
<path d="M27.3264 35.1652V14.6318L43.7531 24.8989L27.3264 35.1652Z" fill="white"/>
</svg>
