<svg width="539" height="535" viewBox="0 0 539 535" fill="none" xmlns="http://www.w3.org/2000/svg">
<mask id="mask0_17_228" style="mask-type:alpha" maskUnits="userSpaceOnUse" x="0" y="0" width="539" height="535">
<rect width="539" height="535" rx="20" fill="#D9D9D9"/>
</mask>
<g mask="url(#mask0_17_228)">
<rect width="539" height="535" rx="20" fill="url(#paint0_linear_17_228)"/>
<rect width="369.061" height="369.061" rx="96.3965" transform="matrix(0.866025 -0.5 0.866025 0.5 -217.766 170.849)" fill="#1D1D1D"/>
<path d="M64.3145 244.905L14.6297 195.677C1.06858 182.283 7.54202 167.906 34.05 152.547L72.2527 130.49C74.001 129.481 76.1037 129.031 78.5608 129.14C81.0651 129.222 83.1914 129.767 84.9397 130.777L173.465 181.887C175.308 182.951 176.206 184.233 176.158 185.734C176.064 187.207 175.095 188.475 173.252 189.539L159.928 197.232C157.99 198.351 155.769 198.924 153.265 198.951C150.761 198.924 148.54 198.351 146.603 197.232L128.742 186.92L78.3481 216.015L91.4604 229.069C92.9252 230.46 93.4686 232.001 93.0906 233.693C92.6653 235.357 91.5313 236.721 89.6885 237.785L75.7257 245.846C73.8829 246.91 72.0401 247.374 70.1973 247.238C68.3072 247.074 66.9606 246.76 66.1573 246.296C65.4013 245.805 64.787 245.342 64.3145 244.905ZM63.5348 201.406L108.684 175.34L71.6857 153.979L51.4858 165.641C46.9496 168.26 44.2799 171.302 43.4767 174.767C42.6734 178.177 43.8547 181.478 47.0205 184.67L63.5348 201.406ZM193.736 170.184L105.352 119.155C103.509 118.091 102.588 116.796 102.588 115.268C102.588 113.74 103.509 112.444 105.352 111.38L118.535 103.769C120.473 102.651 122.741 102.105 125.34 102.132C127.986 102.132 130.23 102.664 132.073 103.728L220.315 154.675C222.158 155.739 223.055 157.048 223.008 158.603C222.961 160.103 222.016 161.386 220.173 162.45L206.99 170.061C205.147 171.125 202.95 171.684 200.398 171.739C197.8 171.766 195.579 171.248 193.736 170.184Z" fill="#8CCAB6"/>
<rect width="369.061" height="369.061" rx="96.3965" transform="matrix(0.866025 -0.5 0.866025 0.5 116.161 363.642)" fill="#8CCAB6"/>
<path d="M406.605 432.869L318.363 381.923C316.426 380.805 315.457 379.481 315.457 377.954C315.457 376.426 316.379 375.13 318.222 374.066L357.842 351.191C378.349 339.352 397.368 333.118 414.898 332.491C432.428 331.809 449.958 336.528 467.489 346.649C484.972 356.743 493.122 366.851 491.941 376.972C490.807 387.065 479.987 398.032 459.479 409.872L419.859 432.747C418.016 433.811 415.819 434.37 413.268 434.424C410.669 434.452 408.448 433.933 406.605 432.869ZM419.788 409.626L438.642 398.742C451.352 391.403 457.684 385.074 457.637 379.754C457.589 374.435 451.967 368.542 440.768 362.076C429.522 355.584 419.292 352.324 410.078 352.296C400.817 352.242 389.831 355.884 377.12 363.222L358.267 374.107L419.788 409.626ZM526.246 363.795L437.862 312.767C436.019 311.703 435.098 310.407 435.098 308.879C435.098 307.352 436.019 306.056 437.862 304.992L451.045 297.381C452.982 296.262 455.25 295.716 457.849 295.744C460.495 295.744 462.74 296.276 464.583 297.34L552.824 348.286C554.667 349.35 555.565 350.659 555.518 352.214C555.471 353.715 554.526 354.997 552.683 356.061L539.5 363.672C537.657 364.736 535.46 365.296 532.908 365.35C530.309 365.377 528.088 364.859 526.246 363.795Z" fill="white"/>
<circle cx="54.3952" cy="54.3952" r="54.3952" transform="matrix(0.866025 -0.5 0.866025 0.5 174.962 268.586)" fill="white"/>
<rect width="4.13128" height="50.9524" rx="2.06564" transform="matrix(0.866025 -0.5 0.866025 0.5 245.326 256.881)" fill="#1D1D1D"/>
<rect width="4.13128" height="50.9524" rx="2.06564" transform="matrix(0.866025 0.5 -0.866026 0.5 289.452 254.815)" fill="#1D1D1D"/>
</g>
<defs>
<linearGradient id="paint0_linear_17_228" x1="-7.00001" y1="40" x2="533.5" y2="530" gradientUnits="userSpaceOnUse">
<stop stop-color="#F1F1F1"/>
<stop offset="1" stop-color="#CBCBCB"/>
</linearGradient>
</defs>
</svg>
