<svg width="101" height="37" viewBox="0 0 101 37" fill="none" xmlns="http://www.w3.org/2000/svg">
<g id="_Aquifer_2 Color_PRIMARY 1" clip-path="url(#clip0_87_1683)">
<path id="Vector" d="M6.78889 21.0245C6.78889 20.0226 6.87778 19.2657 7.04815 18.7313C7.21852 18.197 7.84074 17.5365 8.91481 16.7499V21.1877C11.2111 21.2248 13.4481 21.2397 15.6185 21.2471V16.1636C15.6185 12.5198 15.5 10.108 15.2704 8.93542C15.0407 7.76288 14.3444 6.77587 13.1963 5.97438C12.0481 5.1729 10.337 4.77216 8.07037 4.77216C6.17407 4.77216 4.64074 5.12837 3.45556 5.83338C2.27037 6.55323 1.48519 7.36956 1.09259 8.2972C0.7 9.22485 0.5 10.5384 0.5 12.2453V13.7221H6.78889V11.4141C6.78889 10.1822 6.84815 9.4178 6.95185 9.12837C7.06296 8.83152 7.34444 8.69052 7.7963 8.69052C8.1963 8.69052 8.47778 8.86863 8.64815 9.21742C8.81852 9.56622 8.90741 10.3158 8.90741 11.4735C8.90741 12.3937 8.82593 13.0022 8.67778 13.2991C8.52963 13.5959 7.34444 14.1822 5.14444 15.043C3.08519 15.8445 1.7963 16.5421 1.27778 17.1358C0.759259 17.7295 0.5 18.8575 0.5 20.505V21.0022C2.64815 21.0616 4.74444 21.1135 6.78889 21.1506C6.78889 21.1135 6.78889 21.069 6.78889 21.0245Z" fill="#868686"/>
<path id="Vector_2" d="M1.97399 26.6571C2.95177 27.3176 4.03325 27.6441 5.20362 27.6441C6.09992 27.6441 6.87029 27.4437 7.52214 27.0504C8.16658 26.6571 8.69992 26.0634 9.10732 25.2768V27.2434H15.6333V21.2545C13.4555 21.2471 11.2258 21.2248 8.92955 21.1951V21.2916C8.92955 22.3974 8.86288 23.0875 8.73695 23.3473C8.61103 23.607 8.33695 23.7406 7.91473 23.7406C7.47029 23.7406 7.17399 23.5773 7.02584 23.2434C6.8851 22.9243 6.81103 22.2267 6.80362 21.1655C4.75918 21.1283 2.66288 21.0764 0.514731 21.017V22.3306C0.499916 24.5495 0.988805 25.9966 1.97399 26.6571Z" fill="#868686"/>
<path id="Vector_3" d="M24.4408 21.0096V11.1766C24.4408 10.1153 24.5075 9.4326 24.6408 9.12833C24.7742 8.83149 25.026 8.67564 25.4038 8.67564C25.7816 8.67564 26.0631 8.84633 26.2112 9.1877C26.3594 9.52908 26.4334 10.1896 26.4334 11.1692V21.0986C26.4334 21.1283 26.4334 21.1506 26.4334 21.1803C28.7446 21.1432 30.9816 21.0912 33.1371 21.0244V5.17286H26.5446L26.426 7.05783C25.8408 6.29346 25.189 5.72203 24.4853 5.34355C23.7816 4.96507 23.0038 4.77954 22.1594 4.77954C21.1223 4.77954 20.2186 5.05412 19.4631 5.60329C18.7075 6.15245 18.226 6.79809 18.026 7.53279C17.826 8.26748 17.7297 9.38807 17.7297 10.8871V20.6163C17.7297 20.8389 17.7297 21.0541 17.7371 21.2619C20.0408 21.2619 22.2705 21.2471 24.4408 21.2174C24.4408 21.1506 24.4408 21.0764 24.4408 21.0096Z" fill="#868686"/>
<path id="Vector_4" d="M19.6852 26.8129C20.4556 27.3695 21.4259 27.6441 22.5963 27.6441C23.4037 27.6441 24.0852 27.5179 24.6334 27.273C25.1815 27.0207 25.7815 26.4196 26.4334 25.4623V36.3046C28.6556 36.3491 30.8926 36.2823 33.1371 36.2007V21.0319C30.9741 21.0987 28.7445 21.1506 26.4334 21.1877C26.4334 22.2415 26.3667 22.9243 26.2334 23.2434C26.1 23.5699 25.8408 23.7332 25.4556 23.7332C25.0482 23.7332 24.7741 23.5773 24.6408 23.2582C24.5148 22.9614 24.4482 22.2786 24.4408 21.21C22.2778 21.2397 20.0408 21.2545 17.7371 21.2545C17.7667 22.7461 17.8926 23.8816 18.1297 24.6534C18.3963 25.5439 18.9148 26.2563 19.6852 26.8129Z" fill="#868686"/>
<path id="Vector_5" d="M42.1519 20.1933V5.17291H35.4482V20.0597C35.4482 20.3788 35.4482 20.6757 35.4482 20.9577C37.7668 20.8761 40.0038 20.787 42.1519 20.6831C42.1519 20.5273 42.1519 20.364 42.1519 20.1933Z" fill="#868686"/>
<path id="Vector_6" d="M50.9 5.17291H44.1963V20.0226C44.1963 20.2156 44.1963 20.4011 44.1963 20.5718C46.5296 20.4456 48.7667 20.3121 50.9074 20.1711V5.17291H50.9Z" fill="#868686"/>
<path id="Vector_7" d="M36.1518 25.6998C36.4703 26.2861 36.9592 26.761 37.6185 27.1098C38.2851 27.466 39.1147 27.6441 40.1222 27.6441C41.011 27.6441 41.7888 27.4586 42.4703 27.0876C43.1518 26.7165 43.7222 26.1599 44.1888 25.4104L44.0703 27.2434H50.8925V20.1785C48.7518 20.3195 46.5222 20.4605 44.1814 20.5792C44.174 22.056 44.1222 22.9391 44.0407 23.236C43.9444 23.5699 43.6481 23.7332 43.1518 23.7332C42.6851 23.7332 42.4036 23.5699 42.2999 23.2508C42.2036 22.9614 42.1518 22.1005 42.1444 20.6757C39.9962 20.7796 37.7592 20.8761 35.4407 20.9503C35.4555 22.3529 35.4925 23.3176 35.5518 23.8519C35.6407 24.4976 35.8333 25.1135 36.1518 25.6998Z" fill="#868686"/>
<path id="Vector_8" d="M60.2111 0.319458H53.3074V3.82966H60.2111V0.319458Z" fill="#868686"/>
<path id="Vector_9" d="M60.2111 5.17291H53.3074V20.0078C55.737 19.8297 58.0333 19.6442 60.2111 19.4586V5.17291Z" fill="#868686"/>
<path id="Vector_10" d="M60.2111 27.2434V19.4586C58.0333 19.6441 55.7296 19.8297 53.3074 20.0078V27.2434H60.2111Z" fill="#868686"/>
<path id="Vector_11" d="M69.574 9.20258H71.1666V5.70721H68.3444V5.00963C68.3444 4.40851 68.4703 4.04488 68.7147 3.91872C68.9592 3.79256 69.7814 3.72577 71.1666 3.72577V0.319458H68.7073C67.211 0.319458 66.1147 0.415933 65.4036 0.616304C64.6925 0.816675 64.1444 1.1061 63.7518 1.492C63.3592 1.8779 63.1147 2.30833 63.011 2.79812C62.9147 3.28792 62.8629 4.25267 62.8629 5.70721H61.4851V9.20258H62.8703V19.2285C65.2481 19.0133 67.4777 18.7981 69.574 18.5903V9.20258Z" fill="#868686"/>
<path id="Vector_12" d="M69.5741 27.2434V18.5903C67.4778 18.7981 65.2481 19.0133 62.8704 19.2286V27.2508H69.5741V27.2434Z" fill="#868686"/>
<path id="Vector_13" d="M78.9518 16.6015H87.6332V13.6775C87.6332 11.5402 87.3888 9.8779 86.8925 8.69793C86.3962 7.51797 85.5443 6.56806 84.3221 5.85563C83.0999 5.1432 81.5443 4.78699 79.6629 4.78699C78.1221 4.78699 76.7666 5.08383 75.5814 5.67753C74.3962 6.27122 73.5443 7.12465 73.0258 8.23782C72.5073 9.35099 72.248 10.8723 72.248 12.8018V18.338C74.6629 18.1005 76.8851 17.8853 78.9518 17.7072V16.6015ZM78.9518 11.3992C78.9518 10.1599 79.011 9.39552 79.1147 9.11352C79.2184 8.83151 79.5147 8.69051 79.9814 8.69051C80.3592 8.69051 80.6036 8.85378 80.7295 9.18773C80.848 9.52168 80.9147 10.2564 80.9147 11.3992V13.0096H78.9592V11.3992H78.9518Z" fill="#868686"/>
<path id="Vector_14" d="M72.5962 22.9762C72.8258 23.8371 73.248 24.6237 73.848 25.3361C74.448 26.0486 75.2925 26.6126 76.3814 27.0282C77.4629 27.4363 78.7147 27.6441 80.1369 27.6441C81.5592 27.6441 82.811 27.4363 83.7814 27.0207C84.7518 26.6052 85.5517 25.9818 86.1814 25.1506C86.811 24.3194 87.211 23.5402 87.3814 22.8055C87.5518 22.0708 87.6406 21.0245 87.6406 19.659V18.0263H81.2851V20.9354C81.2851 22.0337 81.1962 22.7758 81.0258 23.1543C80.8555 23.5328 80.5147 23.7258 80.0036 23.7258C79.5962 23.7258 79.3147 23.5848 79.174 23.2953C79.0332 23.0059 78.9592 22.3677 78.9592 21.3658V17.6849C76.8925 17.863 74.6629 18.0783 72.2555 18.3157V19.2211C72.248 20.8686 72.3666 22.1228 72.5962 22.9762Z" fill="#868686"/>
<path id="Vector_15" d="M96.737 14.4345C96.8704 13.8408 97.2259 13.3807 97.7963 13.0467C98.3741 12.7128 99.2704 12.5495 100.5 12.5495V4.77954C98.6556 4.89828 97.2407 6.00403 96.263 8.08195L96.5296 5.18028H89.8259V17.2322C92.2704 17.3064 94.463 17.5662 96.537 18.0634C96.5444 16.1933 96.6111 14.9762 96.737 14.4345Z" fill="#868686"/>
<path id="Vector_16" d="M96.537 27.2434V18.5309C96.537 18.3677 96.537 18.2118 96.537 18.0634C94.4704 17.5588 92.2704 17.3065 89.8259 17.2322V27.2508H96.537V27.2434Z" fill="#868686"/>
</g>
<defs>
<clipPath id="clip0_87_1683">
<rect width="100" height="36" fill="white" transform="translate(0.5 0.319458)"/>
</clipPath>
</defs>
</svg>
