<svg width="37" height="31" viewBox="0 0 37 31" fill="none" xmlns="http://www.w3.org/2000/svg">
<g id="&#208;&#173;&#208;&#186;&#208;&#190;&#208;&#189;&#208;&#190;&#208;&#188;&#208;&#184;&#209;&#135;&#208;&#189;&#208;&#190;" clip-path="url(#clip0_87_4329)">
<g id="&#208;&#173;&#208;&#186;&#208;&#190;&#208;&#189;&#208;&#190;&#208;&#188;&#208;&#184;&#209;&#135;&#208;&#189;&#208;&#190;_2">
<path id="Vector" opacity="0.08" d="M6.75155 13.9214C6.89203 13.6685 7.10871 13.4637 7.37241 13.3344C7.63612 13.2051 7.93418 13.1576 8.22646 13.1982C8.51875 13.2389 8.79122 13.3657 9.00719 13.5617C9.22316 13.7578 9.37226 14.0135 9.43441 14.2945C10.3189 18.4565 14.0041 26.3501 28.981 21.4417C29.9884 21.1277 30.9 20.5754 31.6344 19.8343C32.1651 19.3176 32.6073 18.6575 32.5484 18.026C32.283 15.1843 36.4695 16.763 35.2312 19.2602C33.993 21.7575 32.6073 20.2075 31.8408 20.9538C31.0743 21.7001 29.895 23.3362 25.5021 25.8621C25.0761 26.1428 24.72 26.5128 24.4598 26.9449C24.1997 27.377 24.0421 27.8602 23.9986 28.3593C23.9986 29.4501 23.4384 28.8473 22.7603 29.1917C20.1069 30.4834 22.0233 26.8954 20.3133 27.0102C19.1635 27.9288 13.0312 27.4121 12.4121 26.3213C12.1762 25.9195 11.3802 27.2973 11.9109 28.4741C12.4416 29.651 7.90135 29.2778 8.54995 28.3593C9.19856 27.4408 9.34597 25.5751 8.28461 24.7713C7.22326 23.9676 3.47904 22.3602 6.04398 15.5288C6.23642 14.9758 6.473 14.4384 6.75155 13.9214Z" fill="#1D1D1D"/>
<path id="Vector_2" opacity="0.08" d="M22.1706 11.9982C21.8463 12.601 16.9522 11.4815 19.3403 12.2852C21.7283 13.0889 11.7929 13.7491 12.3235 12.6584C12.8542 11.5676 22.5833 11.2232 22.1706 11.9982Z" fill="#1D1D1D"/>
<g id="Group" opacity="0.08">
<path id="Vector_3" d="M27.5953 8.23799C27.9196 7.11854 27.7132 6.94632 27.7132 6.94632C26.5634 6.8028 25.4726 7.60651 24.765 8.26669C24.6729 8.3573 24.6051 8.46864 24.5677 8.59084C24.5304 8.71304 24.5246 8.84233 24.5508 8.96725C24.5771 9.09216 24.6346 9.20884 24.7182 9.30695C24.8018 9.40505 24.9091 9.48155 25.0303 9.52965C25.2854 9.61818 25.5565 9.65468 25.8267 9.6369C26.0969 9.61913 26.3605 9.54744 26.601 9.42631C26.8416 9.30517 27.0539 9.13717 27.225 8.93275C27.396 8.72832 27.5221 8.49184 27.5953 8.23799Z" fill="#1D1D1D"/>
</g>
<path id="Vector_4" d="M30.3667 12.5723C30.7588 13.0612 31.0765 13.6025 31.3101 14.1797L31.487 14.6389C31.5436 14.7058 31.5839 14.7843 31.6049 14.8686C31.6501 14.9421 31.6896 15.0189 31.7228 15.0982C31.903 15.4006 32.1209 15.6802 32.3714 15.9306C32.557 16.1065 32.7778 16.2433 33.0201 16.3325C33.2676 16.4106 33.5264 16.4494 33.7866 16.4473L34.1699 16.3612H34.4647C34.6187 16.3229 34.7787 16.3132 34.9364 16.3325C35.081 16.3403 35.222 16.3796 35.3491 16.4473L35.526 16.5621L35.6734 16.7056C35.8245 16.9783 35.8959 17.286 35.8798 17.5954C35.808 18.105 35.6795 18.6055 35.4965 19.088C35.313 19.5844 35.0861 20.0645 34.8185 20.5232C34.7608 20.644 34.6917 20.7593 34.6121 20.8676H34.5826C34.5531 20.8963 34.5531 20.9251 34.5236 20.9251H34.4057L34.0224 20.9825H32.6957L32.0766 21.2408C31.8253 21.3294 31.5948 21.466 31.3985 21.6426C31.2862 21.7265 31.1953 21.8346 31.1332 21.9584C31.0788 21.9923 31.0374 22.0428 31.0153 22.1019L30.8973 22.2454L30.632 22.676L30.4846 22.8482L30.3372 23.0491C30.1368 23.3015 29.9202 23.5412 29.6886 23.7667C29.4743 23.9905 29.2373 24.1925 28.981 24.3695C28.714 24.5684 28.4276 24.7415 28.126 24.8862C27.8 25.0469 27.4654 25.1906 27.1236 25.3167C26.7244 25.4411 26.3392 25.6046 25.9738 25.8047C25.754 25.9289 25.5467 26.0731 25.3547 26.2352C25.1374 26.418 24.9487 26.6308 24.7946 26.8667L24.7061 27.0676L24.6471 27.1825C24.6391 27.2254 24.6186 27.2652 24.5882 27.2973C24.5882 27.3834 24.5292 27.4695 24.5292 27.5556C24.5065 27.6399 24.4965 27.7269 24.4997 27.8139V28.4167C24.4997 28.5889 24.4703 28.7325 24.4703 28.8473C24.4387 28.9598 24.4189 29.0753 24.4113 29.1917C24.3878 29.2254 24.3774 29.2661 24.3818 29.3065L24.3228 29.3926V29.4501H24.2934C24.2934 29.4788 24.2934 29.5075 24.2639 29.5075H23.9691C23.7092 29.5758 23.4421 29.6144 23.173 29.6223C22.6337 29.6844 22.0882 29.6747 21.5515 29.5936H21.0208L20.8734 29.4501C20.8145 29.4213 20.8145 29.3639 20.785 29.3065V29.2204C20.7615 29.1867 20.7511 29.1461 20.7555 29.1056C20.785 28.9047 20.785 28.7325 20.8145 28.5315C20.8293 28.3788 20.8293 28.225 20.8145 28.0723C20.7866 27.9995 20.7468 27.9317 20.6965 27.8713C20.6671 27.8139 20.6081 27.8139 20.5491 27.7852L20.3428 27.8426L19.989 27.9862C19.9005 28.0436 19.8416 28.0723 19.8416 28.101H19.7531C19.7236 28.1297 19.6942 28.1584 19.7236 28.2158L19.8121 28.5889C19.8365 28.7312 19.8464 28.8754 19.8416 29.0195V29.1343V29.5936C19.8376 29.8189 19.8776 30.043 19.9595 30.2538C19.9753 30.304 20.0019 30.3505 20.0375 30.39C20.073 30.4296 20.1168 30.4614 20.1659 30.4834C20.2512 30.5532 20.3522 30.6023 20.4607 30.6269C20.5848 30.6692 20.7134 30.698 20.844 30.713H21.1683L22.2001 30.8565C22.5443 30.91 22.8963 30.8905 23.232 30.7991L24.087 30.5982L24.2934 30.5408L24.5292 30.4834C24.6957 30.4485 24.8489 30.3689 24.9714 30.2538L25.0894 30.1389L25.1778 30.0241C25.37 29.7901 25.5015 29.5144 25.5611 29.2204C25.6342 28.9392 25.664 28.649 25.6495 28.3593C25.6495 28.2158 25.6201 28.0723 25.6201 27.9575V27.5843H25.6495V27.5556L25.738 27.3834L25.8559 27.2399L25.9738 27.0963C26.1783 26.9018 26.4183 26.746 26.6814 26.6371C26.9487 26.5051 27.2244 26.39 27.5069 26.2926C28.0753 26.095 28.6273 25.8551 29.1579 25.5751C29.5709 25.35 29.9566 25.0804 30.3077 24.7713C30.6446 24.4571 30.9597 24.1215 31.2511 23.7667L31.4575 23.4797L31.6344 23.2213L31.8113 22.9343L31.8997 22.7908V22.7334H31.9292C31.9292 22.7047 31.9292 22.676 31.9587 22.676C32.0465 22.5389 32.1679 22.4252 32.312 22.345C32.456 22.2648 32.6183 22.2208 32.7842 22.2167H33.6097L34.4942 22.1306L34.789 22.0732L34.9364 22.0158L35.0838 21.9584C35.1788 21.9111 35.2678 21.8533 35.3491 21.7862L35.526 21.5278L35.6145 21.413L35.6734 21.3269L35.7619 21.126L35.9683 20.7241C36.2369 20.2063 36.4637 19.6689 36.6463 19.1167C36.7323 18.8241 36.8012 18.5271 36.8527 18.2269C36.9245 17.9158 36.964 17.5985 36.9706 17.2797C36.9634 16.9202 36.8727 16.5669 36.7053 16.2463C36.6082 16.0614 36.4895 15.8881 36.3515 15.7297C36.2042 15.5898 36.0351 15.4735 35.8503 15.3852L35.585 15.2417L35.2902 15.1556C35.0979 15.1068 34.8989 15.0875 34.7005 15.0982C34.5119 15.089 34.3229 15.1084 34.1404 15.1556H33.875L33.7571 15.213C33.5565 15.2316 33.3546 15.1926 33.1765 15.1008C32.9983 15.009 32.8517 14.8684 32.7547 14.6963C32.6994 14.6137 32.6501 14.5274 32.6073 14.438L32.5483 14.2945L32.4894 14.1223L32.4009 13.8065C32.2828 13.3989 32.0823 13.0184 31.8113 12.6871C31.5712 12.3432 31.272 12.0422 30.9268 11.7973C30.691 11.5963 30.3961 11.4815 29.8655 11.8547L29.9244 11.9121H29.9539C29.9834 11.9408 29.9834 11.9982 30.0129 12.0269L30.1013 12.1991L30.3667 12.5723Z" fill="#1D1D1D"/>
<path id="Vector_5" d="M31.3099 8.18056C31.251 8.00834 31.2215 7.83612 31.1625 7.6639L30.9856 7.29075L30.8972 7.11852L30.8382 7.03241H30.7793L30.2486 6.97501H29.8653C29.6297 6.94169 29.3897 6.95143 29.1577 7.00371L28.4502 7.17593L28.2143 7.26204V7.14723C28.2228 7.04717 28.2088 6.94652 28.1731 6.85232C28.1375 6.75811 28.0811 6.67263 28.0079 6.60186L27.949 6.54445H27.9195C27.89 6.54445 27.89 6.54445 27.89 6.51575H26.6813C26.451 6.55617 26.2243 6.61375 26.0032 6.68797C25.7278 6.75511 25.4678 6.87194 25.2366 7.03241C24.9803 7.16863 24.734 7.32209 24.4996 7.49167C24.3817 7.57778 24.2342 7.63519 24.1753 7.75001C24.0618 7.99257 23.9236 8.22337 23.7625 8.4389C23.7221 8.47417 23.6924 8.51963 23.6768 8.57028C23.6612 8.62093 23.6602 8.6748 23.6741 8.72593C23.6941 8.7625 23.702 8.80419 23.6967 8.84529C23.6914 8.8864 23.6732 8.92491 23.6446 8.95556C23.6151 8.98427 23.5267 8.98427 23.6741 9.18519L24.0868 9.47223C24.1458 9.47223 24.2048 9.50093 24.2048 9.47223C24.2048 9.44352 24.1458 9.18519 24.2637 9.15649C24.3817 9.12778 24.3227 9.07038 24.3227 9.01297C24.3227 8.95556 24.5291 8.92686 24.5291 8.75464C24.5099 8.69239 24.511 8.6259 24.5321 8.56426C24.5532 8.50262 24.5933 8.44881 24.647 8.41019C24.7944 8.29538 24.8828 8.12315 25.0597 8.00834C25.2264 7.89581 25.4042 7.79965 25.5904 7.7213C25.8527 7.58666 26.1296 7.48076 26.4159 7.40556L26.9466 7.29075H27.3888L27.4478 7.34815C27.4478 7.37686 27.4773 7.40556 27.4773 7.43427V7.49167C27.4478 7.49167 27.4478 7.52038 27.4478 7.54908C27.4478 7.57778 27.4183 7.60649 27.4183 7.63519C27.4 7.64856 27.3851 7.66589 27.3749 7.68582C27.3647 7.70575 27.3593 7.72773 27.3593 7.75001L27.153 7.95093C27.0132 8.13896 26.8946 8.34104 26.7992 8.55371C26.7189 8.75332 26.6202 8.94546 26.5044 9.12778C26.4542 9.2359 26.4438 9.35752 26.4749 9.47223C26.5338 9.61575 26.4749 9.70186 26.4454 9.81667C26.4159 9.93149 26.357 9.96019 26.5633 10.075L27.0645 10.1611C27.1235 10.1324 27.2119 10.1037 27.1825 10.075C27.1322 10.0139 27.1048 9.93799 27.1048 9.85973C27.1048 9.78147 27.1322 9.70554 27.1825 9.64445C27.2414 9.61575 27.2119 9.50093 27.2119 9.44353C27.2119 9.38612 27.3004 9.30001 27.3299 9.21389C27.3654 9.18767 27.3926 9.15218 27.4082 9.11154C27.4239 9.0709 27.4274 9.02677 27.4183 8.98427C27.4125 8.89723 27.4282 8.81009 27.4641 8.73018C27.5 8.65027 27.5551 8.57991 27.6247 8.52501L27.7721 8.38149C27.8311 8.32408 27.8605 8.26667 27.9195 8.23797L28.0964 8.09445L28.1848 8.00834L28.2733 7.95093C28.5496 7.81818 28.8502 7.74013 29.1577 7.7213C29.3915 7.68323 29.6292 7.67359 29.8653 7.6926H30.337V8.03704H30.3665C30.396 8.18056 30.455 8.32408 30.4844 8.4389C30.5777 8.70674 30.598 8.99353 30.5434 9.2713C30.4844 9.52964 30.4844 9.78797 30.4255 10.0176C30.3682 10.2617 30.2342 10.4825 30.0422 10.6491L29.8948 10.8213C29.8669 10.894 29.8271 10.9619 29.7769 11.0222C29.7474 11.0509 29.7474 11.1083 30.0127 11.4241C30.1085 11.4547 30.2118 11.4547 30.3075 11.4241C30.4049 11.3939 30.4952 11.3451 30.5729 11.2806C30.6319 11.1945 30.7203 11.137 30.7498 11.0509L30.8382 10.9361L30.8972 10.8213L31.0446 10.563C31.1884 10.368 31.2796 10.141 31.3099 9.90278C31.3394 9.64445 31.3394 9.41482 31.3689 9.15649C31.4056 8.83026 31.3856 8.50035 31.3099 8.18056Z" fill="#1D1D1D"/>
<path id="Vector_6" d="M19.4877 12.2852C18.8096 12.0843 18.1315 12.113 17.424 12.0556C16.9914 12.0362 16.558 12.0457 16.1267 12.0843L15.4781 12.1704L14.8001 12.2565L14.3578 12.3426L14.122 12.4H13.9156C13.639 12.4871 13.3512 12.5354 13.0606 12.5435H12.6773L12.5299 12.4861H12.5005L12.412 12.4287L12.2941 12.2852L12.2351 12.1991C12.2351 12.1704 12.2351 12.1704 12.2646 12.1417H12.3236C12.4374 12.0521 12.5674 11.984 12.7068 11.9408L13.208 11.7973L14.2989 11.625C15.0832 11.5581 15.8716 11.5485 16.6574 11.5963H17.8367C18.5749 11.5677 19.3143 11.5965 20.0479 11.6824C20.2916 11.7255 20.5412 11.7255 20.7849 11.6824C20.9916 11.6633 21.2001 11.6729 21.404 11.7111C21.5514 11.7111 21.6694 11.7685 21.8463 11.6824C22.0232 11.5963 21.8758 11.4241 21.7873 11.3667C21.7164 11.3209 21.6358 11.2915 21.5514 11.2806C21.2576 11.3284 20.9569 11.3186 20.667 11.2519C20.513 11.2136 20.353 11.2039 20.1953 11.2232C19.8415 11.2232 19.5172 11.1084 19.1634 11.1371C18.8221 11.1896 18.4753 11.1992 18.1315 11.1658C17.5624 11.1275 16.9917 11.1179 16.4216 11.1371C15.8024 11.1084 15.1538 11.1084 14.5347 11.1371C14.0694 11.1644 13.6065 11.2219 13.1491 11.3093L12.4415 11.5102L12.1172 11.6824L11.9403 11.826L11.8224 11.9982C11.7751 12.0967 11.7548 12.2055 11.7634 12.3139C11.7913 12.4045 11.831 12.4913 11.8813 12.5723L12.0582 12.7732L12.2646 12.9454C12.4189 13.0282 12.59 13.0772 12.7658 13.0889C12.9316 13.1174 13.1012 13.1174 13.267 13.0889C13.5618 13.0602 13.8566 12.9741 14.1514 12.9167L14.3578 12.8593H14.5642L15.0064 12.8019C15.5666 12.7445 16.1267 12.6584 16.6869 12.6297C17.2574 12.5915 17.8304 12.6107 18.3969 12.6871C18.7212 12.7445 19.075 12.7445 19.4287 12.7732C19.7825 12.8019 19.6646 12.7732 19.812 12.5723C19.7304 12.4516 19.6188 12.3529 19.4877 12.2852Z" fill="#1D1D1D"/>
<path id="Vector_7" d="M35.2311 18.801C35.2311 18.9158 35.0837 19.0019 34.9953 18.9158C34.2877 18.4852 32.3419 17.1936 33.5802 16.9352C34.8184 16.6769 35.2017 18.6 35.2311 18.7149V18.801Z" fill="#1D1D1D"/>
<path id="Vector_8" d="M29.5411 14.8685C29.5411 14.8685 28.0965 15.012 29.3642 15.5287C30.632 16.0454 30.3666 14.8685 29.5411 14.8685Z" fill="#1D1D1D"/>
<path id="Vector_9" d="M24.4997 9.67319C24.3261 9.52133 24.1111 9.42163 23.8806 9.38615C23.0011 9.36701 22.1283 9.23183 21.2861 8.9843C20.8391 8.90221 20.3848 8.86375 19.93 8.86948C19.4288 8.84078 18.9571 8.75467 18.4559 8.69726C17.9603 8.60186 17.4513 8.59215 16.9523 8.66856C15.9695 8.78337 14.9966 8.86948 14.0336 8.92689C13.2071 8.98838 12.388 9.12289 11.5865 9.32874C10.7792 9.54583 9.99064 9.82415 9.22798 10.1611C8.81523 10.3621 8.40248 10.563 8.01921 10.7926C7.63694 11.0251 7.27238 11.2841 6.92838 11.5676L6.78097 11.6824L6.66304 11.7686L6.3977 11.9982L6.16184 12.2278L5.92598 12.4861C5.77857 12.6297 5.63116 12.8306 5.48375 13.0028L5.27738 13.2611L5.18893 13.4047L5.10049 13.5482C4.5168 14.4059 4.06952 15.3446 3.77379 16.3324L3.47897 16.8204C3.38466 16.9973 3.25424 17.1536 3.09571 17.2797L2.83037 17.4232L2.62399 17.4806C2.5263 17.4671 2.43442 17.4273 2.35865 17.3658H2.41762C2.59252 17.2487 2.73444 17.0908 2.83037 16.9065C2.90676 16.7328 2.95643 16.549 2.97778 16.3611C3.00711 16.142 3.00711 15.9201 2.97778 15.701C2.97513 15.5934 2.95524 15.4868 2.91881 15.3852L2.68296 15.1269C2.54444 15.0242 2.3827 14.9553 2.21124 14.926H1.68057L1.17937 15.0982C0.992495 15.1879 0.845718 15.341 0.766622 15.5287L0.707658 15.6149V15.701C0.685652 15.7657 0.675668 15.8337 0.678176 15.9019V16.0741C0.678176 16.1315 0.707658 16.1889 0.707658 16.2463C0.763234 16.4551 0.842333 16.6573 0.943515 16.8491L1.12041 17.1074V17.1649C0.967267 17.1771 0.822385 17.2376 0.707658 17.3371C0.58973 17.4519 0.471802 17.4232 0.353873 17.4232C0.235945 17.4232 0.176981 17.3658 0.0590527 17.5667C-0.0588756 17.7676 8.85846e-05 18.026 0.0590527 18.0834C0.118017 18.1408 0.147499 18.1982 0.206463 18.1695C0.292546 18.1019 0.39171 18.0518 0.498067 18.0222C0.604423 17.9926 0.715801 17.9841 0.825587 17.9973C0.882823 18.0059 0.941277 18.0026 0.99715 17.9878C1.05302 17.973 1.10506 17.9469 1.14989 17.9111H1.68057C1.84485 18.0648 2.03413 18.1909 2.24073 18.2843H2.91881L3.15467 18.2269L3.24312 18.1695L3.36105 18.1121H3.39053C3.33072 18.492 3.30115 18.8759 3.30208 19.2602C3.27406 19.9492 3.36373 20.6378 3.56742 21.2982C3.68797 21.7305 3.8664 22.1455 4.0981 22.5324C4.32347 22.8956 4.59052 23.2327 4.89411 23.5371C5.46608 24.1565 6.07652 24.7413 6.722 25.288C7.00853 25.5368 7.26563 25.816 7.48854 26.1204C7.51802 26.2065 7.57698 26.2639 7.60646 26.35L7.66543 26.4649C7.68374 26.4782 7.69859 26.4956 7.70883 26.5155C7.71906 26.5354 7.72439 26.5574 7.72439 26.5797V26.6371C7.72439 26.6658 7.75387 26.6945 7.75387 26.7232V26.7806C7.74605 26.7806 7.73856 26.7836 7.73303 26.789C7.7275 26.7944 7.72439 26.8017 7.72439 26.8093V26.8667C7.71533 26.9455 7.6955 27.0227 7.66543 27.0963L7.5475 27.3834C7.48853 27.5556 7.40009 27.7565 7.34113 27.9861C7.28216 28.2158 7.31164 28.101 7.28216 28.1584V28.2445C7.2622 28.2796 7.25203 28.3192 7.25268 28.3593C7.22903 28.5209 7.21917 28.6841 7.2232 28.8473C7.2408 29.0174 7.29079 29.1829 7.37061 29.3352C7.44142 29.4864 7.54152 29.6228 7.66543 29.7371L7.84232 29.8519L7.93077 29.9093H8.01921L8.19611 30.0241H8.373L8.63834 30.1102L9.1985 30.2537C9.57822 30.3203 9.96259 30.3587 10.3483 30.3686C10.7314 30.4015 11.1172 30.3918 11.4981 30.3399H11.9698L12.1762 30.2824C12.4645 30.2033 12.728 30.0553 12.9427 29.8519C13.1646 29.5299 13.2779 29.1487 13.267 28.7611V28.5028L13.7682 28.675C14.2708 28.8095 14.7834 28.9055 15.3013 28.9621C15.8613 28.9955 16.4232 28.9859 16.9818 28.9334L18.5738 28.675C18.8048 28.6482 19.021 28.5502 19.1907 28.3953C19.3604 28.2403 19.4748 28.0366 19.5172 27.8139L18.4264 27.7278C17.424 27.7565 16.4511 27.8426 15.5077 27.8139C15.0315 27.799 14.5578 27.7413 14.0925 27.6417C13.6482 27.5375 13.228 27.3525 12.8543 27.0963L12.7363 26.9815H12.6774C12.6774 26.9528 12.6479 26.9241 12.5595 26.8954L12.4415 26.838H12.3236L12.2057 26.8954L12.1172 26.9528C12.0877 26.9815 12.0583 26.9815 12.0583 27.0102H12.0288C11.9698 27.0963 11.9698 27.125 11.9698 27.1537V27.2111V27.4408C11.9698 27.5556 11.9993 27.6417 11.9993 27.7565C12.0288 27.9 12.0288 28.0149 12.0583 28.101C12.0877 28.1871 12.0877 28.3306 12.0877 28.4167V28.876L11.9993 29.0482C11.9306 29.1033 11.8499 29.1426 11.7634 29.163H10.4073C10.081 29.1628 9.75533 29.134 9.43435 29.0769L8.99212 28.9621L8.75626 28.876H8.60885L8.49093 28.8186L8.43196 28.7037C8.4024 28.6102 8.4024 28.5102 8.43196 28.4167V28.3019C8.43196 28.2732 8.46144 28.2158 8.46144 28.1871L8.54989 27.9C8.63834 27.7278 8.6973 27.5269 8.78575 27.2973C8.87419 27.0676 8.81523 27.1824 8.84471 27.125C8.87419 27.0676 8.84471 27.0389 8.87419 27.0102V26.9815C8.9132 26.8218 8.92318 26.6566 8.90367 26.4936C8.87984 26.4495 8.8696 26.3996 8.87419 26.35C8.84471 26.3213 8.84471 26.2639 8.81523 26.2352V26.1491C8.79527 26.114 8.7851 26.0744 8.78575 26.0343L8.6973 25.8621L8.63834 25.776V25.6899L8.49093 25.5463L8.40248 25.3741C8.34808 25.3401 8.30664 25.2897 8.28455 25.2306L8.16662 25.0871C7.865 24.741 7.53998 24.415 7.19371 24.1111C6.57911 23.5807 6.00743 23.0049 5.48375 22.3889C5.02253 21.7942 4.70053 21.1084 4.54033 20.3797C4.46114 19.9054 4.44134 19.4234 4.48136 18.9445C4.48754 18.7044 4.50722 18.4649 4.54033 18.2269L4.62877 17.8824V17.5093L4.71722 17.1361L4.83515 16.7917C4.89602 16.5473 4.97484 16.3075 5.071 16.0741C5.22708 15.6129 5.4142 15.1623 5.63116 14.725C6.10906 13.82 6.78301 13.0268 7.60646 12.4C8.40918 11.7606 9.31594 11.2561 10.2893 10.9074C10.7741 10.7074 11.2776 10.5536 11.7929 10.4482L13.3555 10.1611C15.3955 9.77709 17.485 9.70928 19.5467 9.96022C20.2341 10.1042 20.9375 10.1621 21.6399 10.1324C22.2076 10.1104 22.7751 10.1783 23.3204 10.3334C23.7332 10.4195 24.1164 10.6204 24.5881 10.4195C25.0599 10.2186 24.7355 9.788 24.4997 9.67319ZM2.24073 15.8732V16.0741C2.22076 16.1092 2.2106 16.1488 2.21124 16.1889C2.21124 16.2463 2.21124 16.275 2.18176 16.3037C2.17985 16.3655 2.15935 16.4254 2.1228 16.476L2.00487 16.6195L1.88694 16.7917V16.7343L1.71005 16.5334C1.71005 16.5111 1.70472 16.4891 1.69449 16.4692C1.68425 16.4493 1.66939 16.4319 1.65108 16.4186C1.65108 16.3899 1.6216 16.3324 1.6216 16.3037C1.54616 16.193 1.5052 16.0634 1.50367 15.9306V15.8732H1.53316C1.62187 15.8196 1.72361 15.7899 1.82798 15.7871L2.18176 15.8445H2.24073V15.8732Z" fill="#1D1D1D"/>
<path id="Vector_10" d="M20.431 5.13799C20.298 5.4987 20.1091 5.83749 19.8709 6.14262C19.6358 6.44172 19.3191 6.67049 18.9569 6.8028C18.5012 6.95761 18.0242 7.0447 17.5418 7.06114C17.0534 7.09269 16.5633 7.03426 16.0972 6.88891C15.7775 6.79009 15.4708 6.65522 15.1832 6.48706C14.9007 6.33322 14.6506 6.12869 14.4462 5.88428C14.2469 5.67288 14.105 5.41635 14.0334 5.13799C13.9943 4.99781 13.9842 4.85143 14.004 4.70743V4.50651L14.0629 4.24817C14.1257 3.82671 14.2344 3.41296 14.3872 3.01391C14.4531 2.81781 14.5319 2.62606 14.6231 2.43984L14.8884 1.89447C15.0808 1.55065 15.3534 1.25568 15.6844 1.03336C15.9859 0.817676 16.3433 0.688421 16.7163 0.66021C16.9034 0.64021 17.0926 0.649903 17.2765 0.688913L17.8366 0.861136C18.2028 0.980472 18.5427 1.16544 18.839 1.40651C19.1541 1.65329 19.4064 1.96764 19.5761 2.32502C19.6633 2.57746 19.7821 2.81847 19.9299 3.04262C20.0596 3.22798 20.1218 3.45028 20.1067 3.6741V3.93243C20.1253 4.032 20.1771 4.12282 20.2542 4.19077C20.49 4.2099 20.6374 4.1812 20.6964 4.10465C20.7395 4.00348 20.7692 3.89739 20.7848 3.78891L20.6079 3.21484C20.5516 3.03694 20.5121 2.85439 20.49 2.66947C20.4548 2.47265 20.3741 2.28617 20.2542 2.1241C20.1362 1.92317 20.0478 1.72225 19.9299 1.55002C19.8433 1.35214 19.7 1.18273 19.5171 1.06206L18.4557 0.373173C18.1338 0.203455 17.7851 0.087052 17.4239 0.0287282C17.0709 -0.0190664 16.7122 -0.0093663 16.3625 0.0574317C15.9802 0.138224 15.619 0.294534 15.3012 0.516691C15.1399 0.613565 14.9914 0.729234 14.8589 0.861136L14.4757 1.29169C14.1392 1.74576 13.8804 2.24979 13.7091 2.78428C13.5363 3.30895 13.4081 3.84656 13.3259 4.39169V4.53521C13.3259 4.59262 13.2964 4.62132 13.2964 4.67873V4.96576C13.3186 5.16008 13.3581 5.35215 13.4143 5.53984C13.5592 5.91215 13.7914 6.24634 14.0924 6.51577C14.3556 6.76527 14.6533 6.97782 14.9769 7.14725C15.3197 7.31504 15.6744 7.45892 16.0382 7.5778C16.7625 7.80297 17.5343 7.84252 18.2789 7.69262C18.6674 7.63079 19.0447 7.51478 19.3992 7.34817C19.7696 7.16121 20.1078 6.9191 20.4016 6.63058C20.5769 6.43513 20.7165 6.21183 20.8143 5.97039C20.8968 5.72542 20.9657 5.47629 21.0207 5.2241C21.0294 5.1341 21.0087 5.04371 20.9617 4.96576C20.9322 4.85095 20.8143 4.79354 20.6669 4.70743C20.5716 4.84165 20.4924 4.98612 20.431 5.13799Z" fill="#1D1D1D"/>
<g id="Group_2">
<path id="Vector_11" d="M17.5419 4.50653C17.5124 4.50653 17.5124 4.50653 17.5419 4.53523V4.50653Z" fill="#1D1D1D"/>
<path id="Vector_12" d="M18.3969 4.82224L18.1316 4.4778C17.9295 4.20818 17.6537 3.9993 17.3355 3.87502C17.0407 3.76021 16.7164 3.76021 16.4216 3.67409H16.2447L16.0383 3.58798L15.8614 3.50187C15.8576 3.50187 15.8537 3.50113 15.8502 3.49969C15.8466 3.49825 15.8433 3.49613 15.8406 3.49347C15.8379 3.4908 15.8357 3.48764 15.8342 3.48415C15.8327 3.48067 15.832 3.47694 15.832 3.47317H15.8025C15.8006 3.42848 15.814 3.38445 15.8407 3.34806C15.8674 3.31166 15.9058 3.28498 15.9499 3.27224C16.092 3.22518 16.2423 3.20568 16.3921 3.21484H17.8662C17.9841 3.30095 18.1905 3.35835 18.2495 3.18613C18.3084 3.01391 18.2495 2.98521 18.1905 2.89909C18.0905 2.77262 17.9584 2.6737 17.8073 2.61206C17.615 2.56327 17.416 2.5439 17.2176 2.55465H17.1881C17.1988 2.543 17.2069 2.52936 17.212 2.51455C17.2171 2.49975 17.219 2.48409 17.2176 2.46854V1.52132C17.2181 1.46508 17.1973 1.41063 17.1593 1.3683C17.1212 1.32598 17.0686 1.29872 17.0112 1.29169C16.9539 1.29872 16.9013 1.32598 16.8632 1.3683C16.8252 1.41063 16.8044 1.46508 16.8049 1.52132V2.55465H16.1857C15.8614 2.55465 15.5371 2.49724 15.2718 2.72687C15.0065 2.9565 15.0949 3.38706 15.3013 3.61669C15.5639 3.89301 15.901 4.09193 16.2742 4.19076L16.7754 4.33428L17.2471 4.42039H17.424C17.424 4.44909 17.4535 4.44909 17.4829 4.44909H17.5419C17.5419 4.4778 17.5419 4.4778 17.5714 4.4778H17.5419C17.5576 4.4778 17.5725 4.48385 17.5836 4.49461C17.5947 4.50538 17.6009 4.51998 17.6009 4.53521C17.6087 4.53521 17.6162 4.53823 17.6217 4.54361C17.6273 4.549 17.6304 4.5563 17.6304 4.56391H17.6893L17.7483 4.65002C17.7778 4.67872 17.7778 4.70743 17.8073 4.76484H17.7778L17.5714 4.85095C17.2471 4.93706 16.8638 4.93706 16.51 4.99446L15.3308 5.10928C15.1539 5.13798 15.1833 5.33891 15.2718 5.45372C15.322 5.53408 15.3908 5.60188 15.4727 5.65173C15.5546 5.70157 15.6473 5.73206 15.7435 5.74076L16.5985 5.62595V6.31484C16.6047 6.36602 16.6285 6.41366 16.6659 6.45011C16.7034 6.48655 16.7523 6.50968 16.8049 6.51576C16.8596 6.51576 16.9121 6.49459 16.9508 6.45691C16.9895 6.41923 17.0112 6.36812 17.0112 6.31484V5.71206L17.6598 5.62595L18.1316 5.53983C18.2778 5.51373 18.4119 5.44343 18.5148 5.33891C18.6033 5.16669 18.4853 4.96576 18.3969 4.82224ZM17.8367 4.85095C17.8367 4.79354 17.8662 4.85095 17.8367 4.85095V4.85095Z" fill="#1D1D1D"/>
</g>
</g>
</g>
<defs>
<clipPath id="clip0_87_4329">
<rect width="37" height="31" fill="white"/>
</clipPath>
</defs>
</svg>
