<svg xmlns="http://www.w3.org/2000/svg" version="1.1" xmlns:xlink="http://www.w3.org/1999/xlink" xmlns:svgjs="http://svgjs.dev/svgjs" width="81" height="59"><svg width="81" height="59" viewBox="0 0 81 59" fill="none" xmlns="http://www.w3.org/2000/svg">
<path d="M58.2056 33.3759C58.232 32.2605 58.1442 31.0461 57.9466 29.8704L57.8895 29.4914C57.8017 28.9014 57.6919 28.1736 57.5118 27.631C57.4152 27.1659 56.9981 26.8257 56.515 26.8257C55.9573 26.8257 55.5051 27.2692 55.5051 27.842C55.5314 28.3932 55.4875 29.2503 55.4436 29.9049C55.4304 30.8781 55.2108 32.1141 55.0703 32.9238C53.4236 41.9676 45.7829 49.5428 36.4867 51.343C29.6364 52.6909 22.5709 50.9984 17.0907 46.6919C11.5973 42.3724 8.3785 35.9642 8.25555 29.1211C8.1809 19.1126 14.0212 10.7234 23.4975 7.22646C33.0879 3.69076 43.2536 6.24456 50.0204 13.8844C50.3542 14.2677 50.9074 14.3452 51.3422 14.0653C51.7725 13.7854 51.9218 13.2557 51.6891 12.7992C51.0611 11.5804 50.2224 10.3358 49.0324 8.87587C41.3565 -0.167923 27.5945 -2.63128 16.331 3.01894C6.49906 7.73894 -0.0614149 18.2685 6.21811e-05 29.2244C-0.00872025 37.7816 3.80286 45.964 10.4512 51.6746C15.9797 56.4204 23.0013 59 30.1589 59C31.4192 59 32.6839 58.9182 33.9442 58.7589C37.8963 58.2895 41.8088 56.9587 45.2559 54.9088C46.5997 54.1422 47.9785 53.1345 49.4715 51.8167L49.7438 51.5755C50.2663 51.1147 50.9162 50.5419 51.3334 50.0122C55.3953 45.7057 57.8807 40.0684 58.1573 34.5646L58.21 33.966V33.3803L58.2056 33.3759Z" fill="#231F20"></path>
<path d="M79.0507 22.2951C75.327 17.911 68.4503 17.3986 62.8515 17.4373C50.5341 17.9369 39.1301 21.83 29.8559 28.7033C27.3178 30.7015 24.5162 33.1864 22.9573 36.4594L22.9046 36.5757C22.7377 36.9332 22.808 37.3509 23.0803 37.6437C23.2603 37.8375 23.5062 37.9495 23.7741 37.9581C24.0463 37.971 24.2966 37.8763 24.4942 37.6997C25.4208 36.8686 26.5713 36.0675 28.0994 35.1933C36.6755 30.6068 46.986 27.4932 58.7589 25.9385C66.6148 24.7499 73.1226 25.637 73.689 27.2218C73.8427 27.6525 73.8339 29.3407 67.2295 33.0486C64.8407 34.3621 62.1138 35.5981 58.8906 36.8255C58.5174 36.9676 58.2715 37.3121 58.2539 37.6997C58.2451 37.9624 58.3373 38.2122 58.5174 38.4017C58.6974 38.5955 58.9477 38.7075 59.2112 38.7161C59.6591 38.7333 60.1114 38.7419 60.5593 38.7419C61.8854 38.7419 63.2028 38.6601 64.4938 38.4964C69.1178 37.8461 74.9142 36.5714 78.7433 32.4328C81.3605 29.6163 81.4966 25.159 79.0507 22.2908V22.2951Z" fill="#21A5AC"></path>
</svg><style>@media (prefers-color-scheme: light) { :root { filter: none; } }
@media (prefers-color-scheme: dark) { :root { filter: none; } }
</style></svg>