<svg width="38" height="38" viewBox="0 0 38 38" fill="none" xmlns="http://www.w3.org/2000/svg">
<path d="M37.9949 18.9986C37.9949 29.9382 28.7529 38.7143 17.6479 37.9482C8.27732 37.3047 0.690118 29.7175 0.0466155 20.3469C-0.719459 9.24192 8.05669 0 18.9962 0C21.4354 0 23.7704 0.459645 25.9093 1.29313C27.6498 1.97341 28.2136 4.16131 26.9879 5.57089C26.2341 6.43502 25.0206 6.71081 23.9543 6.29407C22.416 5.69346 20.7429 5.36252 18.9962 5.36252C11.4703 5.36252 5.36011 11.4666 5.36011 18.9986C5.36011 26.7636 11.8564 33.0147 19.701 32.6164C26.3873 32.2793 31.9337 26.9842 32.5711 20.3163C32.7978 17.92 32.3995 15.6218 31.5169 13.581L31.9276 13.0907L35.237 9.13773C36.9898 12.0182 37.9949 15.3889 37.9949 18.9986Z" fill="#1A3E59"/>
<path d="M35.2372 9.14386L31.9277 13.0968L31.5171 13.5871L21.9443 24.9924L21.9381 24.9985C21.1904 25.8872 20.1241 26.3346 19.0638 26.3346C18.0036 26.3346 16.9372 25.8872 16.1895 24.9924L16.1834 24.9863L15.1231 23.7238L12.0343 20.0405L10.1528 17.8097C10.1528 17.8036 10.1467 17.7974 10.1406 17.7913L9.75448 17.3317C9.32548 16.8169 9.39902 16.0385 9.91382 15.6095L11.1763 14.5493C12.1875 13.6974 12.8004 14.0896 13.3458 14.7393L17.6481 19.5931C18.3713 20.4082 19.6522 20.4082 20.3753 19.5809L29.366 9.28482L29.605 9.02129C31.1249 7.3298 33.7908 7.39108 35.2372 9.14386Z" fill="#0EAD69"/>
</svg>
