<svg width="44" height="44" viewBox="0 0 44 44" fill="none" xmlns="http://www.w3.org/2000/svg">
<path d="M43.2563 21.6379C43.2573 25.1048 42.4253 28.521 40.8304 31.5992C39.2354 34.6773 36.9242 37.3271 34.0914 39.3256C32.6866 40.3135 31.1708 41.1334 29.5752 41.7686C26.2465 43.0811 22.6442 43.5476 19.091 43.1263C15.5377 42.7051 12.1444 41.4093 9.21479 39.3549C6.28518 37.3005 3.91075 34.5517 2.30407 31.3546C0.697402 28.1574 -0.0913573 24.6118 0.00841504 21.035C0.108187 17.4583 1.09338 13.9621 2.87578 10.8595C4.65818 7.75692 7.18216 5.14475 10.2217 3.25689C13.2613 1.36902 16.7216 0.264387 20.2928 0.0418819C23.864 -0.180624 27.4347 0.485946 30.6851 1.98191C30.968 2.12098 31.2158 2.32211 31.4101 2.57032C31.6044 2.81852 31.7402 3.1074 31.8073 3.41539C31.8744 3.72339 31.8711 4.04256 31.7977 4.3491C31.7242 4.65565 31.5825 4.94165 31.3831 5.18579L30.4966 6.23281C30.2019 6.57605 29.8039 6.8146 29.3622 6.91275C28.9206 7.0109 28.459 6.96336 28.0466 6.77726C24.347 5.19613 20.1913 5.04818 16.3886 6.36221C12.5859 7.67624 9.40816 10.3582 7.47394 13.8861C5.53973 17.4141 4.98743 21.5355 5.92455 25.4482C6.86167 29.3609 9.22115 32.7849 12.5437 35.0538L13.0184 35.3539C14.4083 36.2326 15.9241 36.894 17.5136 37.3153C19.7205 37.8908 22.024 37.9937 24.2734 37.6172C26.5228 37.2407 28.6673 36.3933 30.5664 35.1305C32.7945 33.6548 34.6223 31.6502 35.8866 29.2958C37.1509 26.9413 37.8123 24.3104 37.8118 21.6379C37.8204 19.3186 37.325 17.0251 36.3599 14.9161L40.1362 10.4069C42.1869 13.7934 43.2664 17.6789 43.2563 21.6379Z" fill="url(#paint0_angular_16_48)"/>
<path d="M38.0631 7.57298C37.9321 7.42444 37.7709 7.30547 37.5904 7.22398C37.4099 7.14249 37.2141 7.10034 37.016 7.10034C36.818 7.10034 36.6222 7.14249 36.4417 7.22398C36.2611 7.30547 36.1 7.42444 35.969 7.57298L33.4283 10.5744L22.6789 22.8804C22.5479 23.0289 22.3867 23.1479 22.2062 23.2294C22.0257 23.3109 21.8299 23.353 21.6318 23.353C21.4338 23.353 21.238 23.3109 21.0575 23.2294C20.8769 23.1479 20.7158 23.0289 20.5848 22.8804L15.1822 16.7798C14.8812 16.4241 14.4519 16.2018 13.9878 16.1613C13.5237 16.1208 13.0623 16.2653 12.7043 16.5634L11.2663 17.7709C11.126 17.8891 11.0103 18.0338 10.9259 18.1967C10.8416 18.3597 10.7901 18.5376 10.7746 18.7204C10.759 18.9032 10.7796 19.0873 10.8353 19.2622C10.8909 19.437 10.9805 19.5991 11.0988 19.7393L11.5316 20.2559L13.6675 22.7966L17.1576 26.9847L18.3651 28.4226L20.5709 31.0541C20.7019 31.211 20.8657 31.3372 21.0509 31.4238C21.236 31.5104 21.4379 31.5552 21.6423 31.5552C21.8467 31.5552 22.0486 31.5104 22.2337 31.4238C22.4189 31.3372 22.5827 31.211 22.7138 31.0541L24.9195 28.4226L36.3599 14.9161L40.1362 10.4069C39.5209 9.40911 38.8277 8.46151 38.0631 7.57298Z" fill="#26B9C1"/>
<defs>
<radialGradient id="paint0_angular_16_48" cx="0" cy="0" r="1" gradientUnits="userSpaceOnUse" gradientTransform="translate(21.6282 21.6384) rotate(90) scale(21.6384 21.6282)">
<stop offset="0.576934" stop-color="#2AC090"/>
<stop offset="0.663888" stop-color="#26B9C1"/>
</radialGradient>
</defs>
</svg>
