<svg width="17" height="19" viewBox="0 0 17 19" fill="none" xmlns="http://www.w3.org/2000/svg">
<g id="Translation">
<g id="Group">
<path id="Vector" d="M7.26712 0.218799C6.37712 0.0387988 5.49712 0.0387988 4.61712 0.0587988C4.13712 0.0787988 3.64712 0.0887988 3.16712 0.0987988C2.73712 0.0987988 2.25712 0.0487988 1.83712 0.138799C1.44712 0.218799 1.07712 0.428799 0.817123 0.758799C0.687123 0.918799 0.597123 1.1088 0.537123 1.3088C0.437123 1.6688 0.477123 2.0488 0.497123 2.4088C0.527123 3.0688 0.567123 3.7388 0.567123 4.3988C0.577123 4.7988 0.587123 5.2088 0.567123 5.6088C0.567123 6.0088 0.547123 6.4188 0.517123 6.8188C0.407123 8.3688 0.327123 9.9188 0.257123 11.4688L0.147123 13.7888L0.0871227 14.9488C0.0471227 15.6588 -0.102877 16.4488 0.117123 17.1388C0.217123 17.4588 0.387123 17.7488 0.607123 17.9988C1.04712 18.4988 1.71712 18.7888 2.40712 18.7688L4.30712 18.7388C4.89712 18.7288 5.48712 18.7088 6.07712 18.6688C7.08712 18.6088 8.09712 18.6288 9.09712 18.6688C10.0971 18.7188 11.0971 18.7788 12.0571 18.8288C12.4771 18.8488 12.8971 18.9488 13.3171 18.9588C14.0971 18.9788 14.8771 18.6288 15.3671 18.0188C15.8271 17.4388 15.9271 16.7688 15.9371 16.0488V15.6988L15.9271 14.9888L15.8971 13.5688C15.8871 12.6188 15.8971 11.6788 15.9871 10.7388C16.0571 10.0988 16.0871 9.4588 15.8471 8.8088C15.6571 8.2788 15.7271 7.7688 15.7371 7.2588C15.7371 6.8888 15.9171 6.5188 15.4471 6.1288C14.8371 6.0388 14.4871 6.0888 14.3771 6.2988C14.2771 6.4888 14.1071 6.6788 14.1671 6.8788C14.3771 7.6688 14.4971 8.4288 14.2671 9.1888C14.1571 9.5588 14.2871 9.9888 14.3071 10.3888C14.3371 11.2688 13.9871 12.1488 14.1771 13.0188C14.3171 13.6488 14.3771 14.2988 14.3371 14.9488C14.3071 15.5288 14.3871 16.4488 13.9971 16.9188C13.7671 17.1988 13.4771 17.2888 13.1171 17.2788C12.5871 17.2688 12.0671 17.2188 11.5371 17.1988C9.93712 17.1188 8.33712 17.0388 6.73712 16.9988C6.01712 16.9788 5.30712 16.9788 4.58712 16.9988L3.51712 17.0188L2.49712 17.0388C2.34712 17.0388 2.19712 17.0288 2.06712 16.9488C1.93712 16.8788 1.83712 16.7588 1.77712 16.6288C1.71712 16.4988 1.68712 16.3488 1.71712 16.2188C2.17712 13.0088 1.95712 9.7388 2.21712 6.5188C2.27712 5.7488 2.29712 4.9688 2.29712 4.1888C2.29712 3.7988 2.28712 3.4088 2.27712 3.0188C2.27712 2.6988 2.24712 2.3788 2.22712 2.0588C2.22712 1.9588 2.22712 1.8588 2.27712 1.7788C2.38712 1.6388 2.68712 1.7088 2.83712 1.7088C3.41712 1.7088 3.99712 1.7088 4.57712 1.7588C5.49712 1.8188 6.41712 1.6788 7.33712 1.6188C7.67712 1.5988 7.98712 1.4688 8.21712 0.608799C7.85712 0.388799 7.56712 0.248799 7.26712 0.188799V0.218799Z" fill="#F1C40F"/>
<path id="Vector_2" d="M9.21709 1.15876C9.60709 1.83876 10.2771 2.01876 10.7571 2.51876C11.5471 3.34876 12.6771 3.66876 13.3071 4.66876C13.3271 4.70876 13.3571 4.75876 13.3271 4.78876C13.3071 4.81876 13.2571 4.81876 13.2171 4.81876C12.3071 4.76876 11.4171 4.91876 10.5071 4.94876C10.3371 4.94876 10.0671 4.96876 10.1171 4.94876C10.0871 4.96876 10.0471 4.97876 9.99709 4.96876C9.97709 4.96876 9.94709 4.95876 9.90709 4.92876L9.88709 4.86876C9.88709 4.86876 9.86709 4.78876 9.85709 4.74876C9.75709 4.35876 9.84709 3.95876 9.80709 3.56876C9.75709 3.12876 9.50709 2.84876 9.52709 2.39876C9.52709 2.25876 9.67709 2.13876 9.28709 1.91876C8.77709 1.78876 8.47709 1.75876 8.38709 1.82876C8.30709 1.88876 8.15709 1.94876 8.19709 2.03876C8.52709 2.69876 8.23709 3.46876 8.26709 4.19876C8.28709 4.72876 8.61709 5.17876 8.70709 5.68876C8.73709 5.85876 8.80709 6.01876 8.89709 6.14876C8.99709 6.27876 9.14709 6.38876 9.30709 6.39876C9.63709 6.40876 9.98709 6.35876 10.2871 6.32876C11.2871 6.24876 12.2871 6.24876 13.2771 6.15876C13.8571 6.10876 16.1371 6.10876 15.8271 5.09876C15.4971 4.04876 14.3971 3.37876 13.5671 2.75876C12.6371 2.06876 11.5271 1.47876 10.7171 0.638756C10.4571 0.368756 10.1171 0.248756 9.80709 0.0687563C9.69709 -0.00124373 9.53709 0.0187563 9.09709 0.598756C9.11709 0.848756 9.13709 1.01876 9.20709 1.13876L9.21709 1.15876Z" fill="#F1C40F"/>
<path id="Vector_3" d="M11.7271 10.1687C11.5671 10.0487 11.3471 10.0287 11.1471 10.0187C9.60714 9.92875 8.04714 10.0287 6.51714 9.82875C6.14714 9.77875 5.75714 9.70875 5.38714 9.78875C5.21714 9.81875 4.40714 9.91875 4.30714 9.95875C4.17714 9.99875 4.03714 10.0087 3.90714 10.0387C3.61714 10.1187 3.36714 10.3487 3.27714 10.6487C3.25714 10.6987 3.25714 10.7787 3.30714 10.7987C3.32714 10.7987 3.52714 11.2387 4.13714 10.9987C4.39714 10.8987 4.59714 11.0587 4.85714 10.9987C5.38714 10.8587 5.91714 10.9487 6.45714 10.9987C7.08714 11.0587 7.70714 11.1587 8.33714 11.1987C9.06714 11.2587 9.80714 11.2387 10.5471 11.2187C10.9671 11.2187 11.3871 11.1987 11.7971 11.1887C11.8471 11.1887 11.8971 11.1887 11.9371 11.1487C11.9871 11.1087 11.9971 11.0287 11.9871 10.9587C11.9871 10.6887 11.9571 10.3887 11.7571 10.2087C11.7471 10.1987 11.7271 10.1787 11.7071 10.1687H11.7271Z" fill="#F1C40F"/>
<path id="Vector_4" d="M11.7772 12.7388C11.4072 12.4688 11.1372 12.6788 10.8072 12.5688C10.3972 12.4388 8.40722 12.4888 7.78722 12.4988C7.41722 12.4988 7.01721 12.4988 6.63721 12.4788C6.25721 12.4588 5.76722 12.3388 5.40722 12.4488C5.24722 12.4988 4.03722 12.6488 4.00722 12.6588C3.81722 12.7188 3.27722 12.9488 3.23722 13.1788C3.20722 13.3588 3.29721 13.3988 3.43721 13.4488C3.62721 13.5188 4.13722 13.6888 4.27722 13.7088C4.45722 13.7288 5.13721 13.5888 5.28721 13.6288C5.55721 13.6888 5.82721 13.5888 6.08721 13.5988C6.76722 13.6288 7.42722 13.7688 8.11722 13.7888C8.69722 13.7988 9.26721 13.7788 9.84721 13.7888C10.3672 13.7888 10.9772 13.6588 11.4872 13.8088C11.6672 13.8588 11.8172 13.7788 11.9872 13.7488C12.0472 13.7388 12.0872 13.6488 12.0172 13.0488C11.9172 12.8988 11.8472 12.7888 11.7872 12.7488L11.7772 12.7388Z" fill="#F1C40F"/>
</g>
</g>
</svg>
