<svg width="18" height="23" viewBox="0 0 18 23" fill="none" xmlns="http://www.w3.org/2000/svg">
<path fill-rule="evenodd" clip-rule="evenodd" d="M0.87868 1.37868C1.44129 0.81607 2.20435 0.5 3 0.5H10C10.2652 0.5 10.5196 0.605357 10.7071 0.792893L17.7071 7.79289C17.8946 7.98043 18 8.23478 18 8.5V19.5C18 20.2957 17.6839 21.0587 17.1213 21.6213C16.5587 22.1839 15.7957 22.5 15 22.5H3C2.20435 22.5 1.44129 22.1839 0.87868 21.6213C0.31607 21.0587 0 20.2957 0 19.5V3.5C0 2.70435 0.31607 1.94129 0.87868 1.37868ZM3 2.5C2.73478 2.5 2.48043 2.60536 2.29289 2.79289C2.10536 2.98043 2 3.23478 2 3.5V19.5C2 19.7652 2.10536 20.0196 2.29289 20.2071C2.48043 20.3946 2.73478 20.5 3 20.5H15C15.2652 20.5 15.5196 20.3946 15.7071 20.2071C15.8946 20.0196 16 19.7652 16 19.5V8.91421L9.58579 2.5H3Z" fill="#AD5DF7"/>
<path fill-rule="evenodd" clip-rule="evenodd" d="M10 0.5C10.5523 0.5 11 0.947715 11 1.5V7.5H17C17.5523 7.5 18 7.94772 18 8.5C18 9.05228 17.5523 9.5 17 9.5H10C9.44772 9.5 9 9.05228 9 8.5V1.5C9 0.947715 9.44772 0.5 10 0.5Z" fill="#AD5DF7"/>
<rect x="4" y="11.5" width="10" height="2" rx="1" fill="#AD5DF7"/>
<rect x="4" y="14.5" width="10" height="2" rx="1" fill="#AD5DF7"/>
</svg>
