<?xml version="1.0" encoding="UTF-8"?>
<svg id="Layer_2" data-name="Layer 2" xmlns="http://www.w3.org/2000/svg" viewBox="0 0 776.55 137">
  <defs>
    <style>
      .cls-1 {
        fill: #231f20;
      }

      .cls-2 {
        fill: #21a5ac;
      }
    </style>
  </defs>
  <g id="Glyph_with_name_" data-name="Glyph with name
">
    <g>
      <g>
        <path class="cls-1" d="m132.55,77.5c.06-2.59-.14-5.41-.59-8.14l-.13-.88c-.2-1.37-.45-3.06-.86-4.32-.22-1.08-1.17-1.87-2.27-1.87h0c-1.27,0-2.3,1.03-2.3,2.36.06,1.28-.04,3.27-.14,4.79-.03,2.26-.53,5.13-.85,7.01-3.75,21-21.15,38.59-42.32,42.77-15.6,3.13-31.69-.8-44.17-10.8-12.51-10.03-19.84-24.91-20.12-40.8-.17-23.24,13.13-42.72,34.71-50.84,21.84-8.21,44.99-2.28,60.4,15.46.76.89,2.02,1.07,3.01.42.98-.65,1.32-1.88.79-2.94-1.43-2.83-3.34-5.72-6.05-9.11C94.18-.39,62.84-6.11,37.19,7.01,14.8,17.97-.14,42.42,0,67.86c-.02,19.87,8.66,38.87,23.8,52.13,12.59,11.02,28.58,17.01,44.88,17.01,2.87,0,5.75-.19,8.62-.56,9-1.09,17.91-4.18,25.76-8.94,3.06-1.78,6.2-4.12,9.6-7.18l.62-.56c1.19-1.07,2.67-2.4,3.62-3.63,9.25-10,14.91-23.09,15.54-35.87l.12-1.39v-1.36Z"/>
        <path class="cls-2" d="m180.02,51.77c-8.48-10.18-24.14-11.37-36.89-11.28-28.05,1.16-54.02,10.2-75.14,26.16-5.78,4.64-12.16,10.41-15.71,18.01l-.12.27c-.38.83-.22,1.8.4,2.48.41.45.97.71,1.58.73.62.03,1.19-.19,1.64-.6,2.11-1.93,4.73-3.79,8.21-5.82,19.53-10.65,43.01-17.88,69.82-21.49,17.89-2.76,32.71-.7,34,2.98.35,1,.33,4.92-14.71,13.53-5.44,3.05-11.65,5.92-18.99,8.77-.85.33-1.41,1.13-1.45,2.03-.02.61.19,1.19.6,1.63.41.45.98.71,1.58.73,1.02.04,2.05.06,3.07.06,3.02,0,6.02-.19,8.96-.57,10.53-1.51,23.73-4.47,32.45-14.08,5.96-6.54,6.27-16.89.7-23.55Z"/>
      </g>
      <g>
        <path class="cls-1" d="m304.89,70.63h15.74v58.05h-14.43v-7.71c-8.42,6.01-19.08,9.02-31.98,9.02-10.39,0-20.04-2.3-28.95-6.89-8.91-4.59-16.02-11.29-21.32-20.09-5.3-8.8-7.95-19.21-7.95-31.24,0-11.37,2.65-21.54,7.95-30.5,5.3-8.96,12.63-15.99,21.98-21.07,9.35-5.08,19.87-7.62,31.57-7.62,9.18,0,17.52,1.5,25.01,4.51,7.49,3.01,13.86,7.41,19.11,13.2l-10.17,10.17c-9.18-8.86-20.28-13.28-33.29-13.28-8.75,0-16.59,1.91-23.53,5.74-6.94,3.83-12.38,9.13-16.32,15.91-3.94,6.78-5.9,14.43-5.9,22.96,0,9.08,1.99,16.95,5.99,23.62,3.99,6.67,9.27,11.72,15.83,15.17,6.56,3.44,13.67,5.17,21.32,5.17,5.36,0,10.58-.9,15.66-2.71,5.08-1.8,9.65-4.45,13.69-7.95v-34.44Z"/>
        <path class="cls-1" d="m356.55,122.7c-4.59-4.64-6.89-11.18-6.89-19.6V7h15.74v94.79c0,4.7,1.12,8.31,3.36,10.82,2.24,2.52,5.6,3.77,10.09,3.77,2.73,0,5.3-.55,7.71-1.64l.82,12.96c-3.61,1.31-7.38,1.97-11.32,1.97-8.42,0-14.92-2.32-19.52-6.97Z"/>
        <path class="cls-1" d="m414.6,123.93c-6.89-3.83-12.27-9.1-16.15-15.83-3.88-6.72-5.82-14.35-5.82-22.88s1.94-16.15,5.82-22.88c3.88-6.72,9.27-11.97,16.15-15.74,6.89-3.77,14.65-5.66,23.29-5.66s16.37,1.89,23.21,5.66c6.83,3.77,12.19,9.02,16.07,15.74,3.88,6.72,5.82,14.35,5.82,22.88s-1.94,16.15-5.82,22.88c-3.88,6.72-9.24,12-16.07,15.83-6.83,3.83-14.57,5.74-23.21,5.74s-16.4-1.91-23.29-5.74Zm38.29-11.89c4.43-2.57,7.9-6.17,10.41-10.82,2.51-4.65,3.77-9.98,3.77-15.99s-1.26-11.34-3.77-15.99c-2.52-4.65-5.99-8.23-10.41-10.74-4.43-2.51-9.43-3.77-15.01-3.77s-10.58,1.26-15.01,3.77c-4.43,2.52-7.93,6.1-10.5,10.74-2.57,4.65-3.85,9.98-3.85,15.99s1.28,11.34,3.85,15.99c2.57,4.65,6.07,8.26,10.5,10.82,4.43,2.57,9.43,3.86,15.01,3.86s10.58-1.29,15.01-3.86Z"/>
        <path class="cls-1" d="m538.59,88.18l-18.04,16.73v23.78h-15.74V7h15.74v78.06l47.4-43.3h19.02l-36.57,35.92,40.18,51h-19.35l-32.64-40.51Z"/>
        <path class="cls-1" d="m684.22,41.77v86.92h-15.09v-13.78c-3.5,4.81-7.93,8.47-13.28,10.99-5.36,2.52-11.26,3.77-17.71,3.77-8.42,0-15.96-1.86-22.63-5.58-6.67-3.71-11.89-8.94-15.66-15.66-3.77-6.72-5.66-14.46-5.66-23.21s1.89-16.46,5.66-23.12c3.77-6.67,8.99-11.86,15.66-15.58,6.67-3.71,14.21-5.58,22.63-5.58,6.23,0,11.97,1.18,17.22,3.53,5.25,2.35,9.62,5.82,13.12,10.41v-13.12h15.74Zm-29.85,70.27c4.48-2.57,7.98-6.17,10.5-10.82,2.51-4.65,3.77-9.98,3.77-15.99s-1.26-11.34-3.77-15.99c-2.52-4.65-6.01-8.23-10.5-10.74-4.48-2.51-9.46-3.77-14.92-3.77s-10.58,1.26-15.01,3.77c-4.43,2.52-7.93,6.1-10.5,10.74-2.57,4.65-3.85,9.98-3.85,15.99s1.28,11.34,3.85,15.99c2.57,4.65,6.07,8.26,10.5,10.82,4.43,2.57,9.43,3.86,15.01,3.86s10.44-1.29,14.92-3.86Z"/>
        <path class="cls-1" d="m718.49,126.8c-6.56-1.91-11.7-4.35-15.42-7.3l6.56-12.46c3.83,2.73,8.47,4.92,13.94,6.56,5.47,1.64,10.99,2.46,16.56,2.46,13.78,0,20.66-3.94,20.66-11.81,0-2.62-.93-4.7-2.79-6.23-1.86-1.53-4.18-2.65-6.97-3.36-2.79-.71-6.75-1.5-11.89-2.38-7-1.09-12.71-2.35-17.14-3.77-4.43-1.42-8.23-3.83-11.4-7.22-3.17-3.39-4.76-8.14-4.76-14.27,0-7.87,3.28-14.19,9.84-18.94,6.56-4.76,15.36-7.13,26.4-7.13,5.79,0,11.59.71,17.38,2.13,5.79,1.42,10.55,3.34,14.27,5.74l-6.72,12.46c-7.11-4.59-15.47-6.89-25.09-6.89-6.67,0-11.75,1.09-15.25,3.28-3.5,2.19-5.25,5.08-5.25,8.69,0,2.85.98,5.08,2.95,6.72s4.4,2.84,7.3,3.61c2.9.77,6.97,1.64,12.22,2.62,7,1.21,12.65,2.49,16.97,3.85,4.32,1.37,8.01,3.69,11.07,6.97,3.06,3.28,4.59,7.87,4.59,13.78,0,7.87-3.36,14.13-10.09,18.78-6.72,4.65-15.88,6.97-27.47,6.97-7.11,0-13.94-.96-20.5-2.87Z"/>
      </g>
    </g>
  </g>
</svg>