<svg width="35" height="37" viewBox="0 0 35 37" fill="none" xmlns="http://www.w3.org/2000/svg">
<g id="&#208;&#147;&#208;&#176;&#209;&#128;&#208;&#176;&#208;&#189;&#209;&#130;&#208;&#184;&#209;&#143; &#208;&#186;&#208;&#176;&#209;&#135;&#208;&#181;&#209;&#129;&#209;&#130;&#208;&#178;&#208;&#176;" clip-path="url(#clip0_87_3912)">
<g id="&#208;&#147;&#208;&#176;&#209;&#128;&#208;&#176;&#208;&#189;&#209;&#130;&#208;&#184;&#209;&#143; &#208;&#186;&#208;&#176;&#209;&#135;&#208;&#181;&#209;&#129;&#209;&#130;&#208;&#178;&#208;&#176;_2">
<path id="Vector" opacity="0.08" d="M9.9788 11.0024C14.1141 13.5756 16.0918 13.3981 19.418 9.78979C22.7442 6.18147 23.9129 3.81537 23.7031 8.84335C23.4934 13.8713 16.841 20.9401 16.0918 20.319C13.6946 18.1895 11.3273 18.1895 9.61921 14.7586C8.66031 12.8066 7.52161 9.49402 9.9788 11.0024Z" fill="#1D1D1D"/>
<path id="Vector_2" opacity="0.08" d="M6.92216 25.968C6.92216 25.968 3.83569 31.3509 5.21411 31.2031C6.59254 31.0552 8.75007 28.8074 8.66017 30.2862C8.57027 31.765 7.49151 34.5452 6.5326 34.3677C4.73995 34.0582 2.89391 34.3497 1.2886 35.1959C-0.868937 36.3493 2.45726 32.2087 3.83569 30.1383C5.21411 28.068 6.92216 25.968 6.92216 25.968Z" fill="#1D1D1D"/>
<path id="Vector_3" opacity="0.08" d="M27.359 25.8202C27.9283 27.5947 28.3778 30.8777 27.329 29.4285C26.2802 27.9792 27.5987 35.2254 28.3179 35.1959C29.037 35.1663 28.6775 30.9073 31.3744 33.2142C34.0713 35.5212 35.0002 35.1959 33.0525 32.1495C31.1047 29.1031 26.7896 24.0751 27.359 25.8202Z" fill="#1D1D1D"/>
<path id="Vector_4" opacity="0.08" d="M11.5969 23.6907C12.5258 23.247 13.5446 22.5372 14.4736 22.9513C15.4025 23.3653 15.5523 24.4892 16.3614 24.9624C17.1705 25.4357 17.7398 25.1695 18.3691 24.9033C18.9984 24.6371 19.6277 24.2822 20.2869 24.1639C20.9462 24.0456 21.4556 24.0456 21.8451 23.6907C22.2347 23.3357 22.2347 22.5963 22.3246 22.0048C22.4091 21.5353 22.5981 21.0902 22.8779 20.7015C23.1577 20.3128 23.5214 19.9902 23.9428 19.757C24.632 19.3725 25.441 19.2246 25.8905 18.6331C26.34 18.0416 26.1902 16.7106 26.0404 15.7346C25.8368 14.5192 25.9714 13.2721 26.4299 12.1263C26.8494 11.0911 27.5986 10.0855 28.6773 9.78978C29.1568 9.6419 29.816 9.81936 29.846 10.2926C29.8378 10.4377 29.7968 10.5792 29.7261 10.7066C29.3066 11.5348 28.7972 12.4221 28.977 13.3094C29.1568 14.1967 30.3554 15.0544 31.1945 15.8529C32.0335 16.6515 31.8237 17.243 31.8537 18.219C31.8704 18.6594 31.7423 19.0933 31.4884 19.4558C31.2346 19.8184 30.8686 20.09 30.4453 20.2302C29.1868 20.733 28.2578 20.4077 27.0292 20.9401C26.6176 21.1188 26.2786 21.4287 26.0667 21.8202C25.8548 22.2117 25.7822 22.6621 25.8606 23.0991C25.9205 23.4836 26.1003 23.8681 25.9505 24.223C25.8006 24.578 25.5609 25.9089 24.9316 25.9089C23.6431 25.9089 22.3246 26.1159 21.2458 26.8258C20.1671 27.5356 19.7176 29.3693 18.3991 29.4285C13.8443 29.6651 14.2338 25.4948 12.5258 25.4948C11.7467 25.4652 8.60029 25.1103 7.94104 24.7258C7.67411 24.5531 7.45134 24.3216 7.29018 24.0497C7.12902 23.7777 7.03384 23.4726 7.0121 23.1583C6.99517 22.8954 7.0315 22.6319 7.11897 22.383C7.20644 22.1342 7.34329 21.9051 7.52152 21.709C7.94104 21.2654 8.48042 21.5316 8.66022 22.0344C8.84001 22.5372 8.75012 22.8329 8.89994 23.2174C9.01523 23.4396 9.1856 23.6293 9.39518 23.7689C9.60477 23.9085 9.84674 23.9935 10.0986 24.016C10.6061 24.0501 11.1135 23.9479 11.5669 23.7202L11.5969 23.6907Z" fill="#1D1D1D"/>
<path id="Vector_5" d="M25.6808 25.6131L26.1903 25.3174L26.2502 25.2582L26.3101 25.1991C26.3401 25.1695 26.4 25.1399 26.43 25.0808L26.4287 25.0804C26.5484 24.9327 26.5484 24.9327 26.6682 24.7849L26.7596 24.6371C26.7896 24.578 26.7896 24.5188 26.8195 24.4892L26.9094 24.1343C26.9245 23.9276 26.9245 23.72 26.9094 23.5132C26.8854 23.2977 26.8246 23.0877 26.7296 22.8921C26.6557 22.7041 26.5435 22.533 26.4 22.3893C26.3056 22.2913 26.2329 22.1749 26.1864 22.0476C26.14 21.9203 26.1209 21.7849 26.1303 21.6499C26.1358 21.5586 26.156 21.4687 26.1903 21.3837C26.1947 21.25 26.1637 21.1175 26.1004 20.9992C25.9711 20.8803 25.818 20.7897 25.6509 20.733C25.6036 20.708 25.5499 20.6974 25.4965 20.7027C25.4431 20.708 25.3925 20.7288 25.3512 20.7626C25.2014 20.9105 25.0216 21.088 25.0216 21.2654C25.0502 21.5981 25.1207 21.926 25.2314 22.2414C25.3215 22.4783 25.3721 22.728 25.3812 22.9808C25.4111 23.2175 25.5909 23.3949 25.6509 23.5724C25.6964 23.6642 25.7171 23.7661 25.7108 23.8681C25.7048 23.931 25.6843 23.9917 25.6509 24.0456L25.531 24.1935L25.3812 24.4005C25.25 24.5911 25.0613 24.736 24.8418 24.8146C24.6126 24.9013 24.368 24.9415 24.1226 24.9329L22.8041 25.0216C22.3506 25.0617 21.9001 25.1308 21.4557 25.2286C21.3305 25.2304 21.2074 25.2607 21.0961 25.3174L20.7665 25.4653C20.5455 25.5859 20.335 25.7244 20.1372 25.8793C19.7776 26.1751 19.418 26.53 19.0884 26.8553L18.2793 27.506C18.028 27.6874 17.7428 27.8181 17.4403 27.8905H17.0807L16.7211 27.6539C16.4908 27.4222 16.2896 27.164 16.1218 26.8849C15.8221 26.3821 15.5524 25.8498 15.2528 25.3174L14.9831 24.9033L14.9231 24.785L14.8332 24.6667C14.7809 24.557 14.7099 24.457 14.6235 24.3709C14.4802 24.1845 14.2957 24.0327 14.0841 23.9273C13.9792 23.8871 13.865 23.8768 13.7545 23.8977H13.4248L13.1252 24.016H12.8855L12.4959 24.1047L11.6868 24.2822L10.4882 24.4301C10.13 24.4746 9.76761 24.4746 9.40944 24.4301C9.28082 24.4048 9.15859 24.3545 9.04985 24.2822H8.98991L8.90002 24.1935L8.81012 24.1047L8.72022 24.016C8.62321 23.899 8.54258 23.7697 8.4805 23.6315C8.41273 23.4696 8.36251 23.3011 8.33067 23.1287C8.29495 22.9186 8.24489 22.7111 8.18084 22.5076C8.15087 22.271 8.09094 22.0344 8.06098 21.7978C8.06363 21.7515 8.05396 21.7053 8.03293 21.6638C8.01191 21.6222 7.98025 21.5869 7.94111 21.5612C7.77358 21.4379 7.57818 21.3567 7.37176 21.3246C7.292 21.416 7.22173 21.5151 7.162 21.6203C7.10988 21.7032 7.06955 21.7928 7.04214 21.8865C6.94664 22.4204 6.98784 22.9694 7.162 23.4836C7.32264 24.0364 7.59819 24.5502 7.97108 24.992L8.06098 25.0808L8.18084 25.1991L8.27074 25.2878L8.3906 25.3765C8.56802 25.489 8.75938 25.5785 8.95995 25.6427L9.5293 25.761H10.0986C10.8037 25.7081 11.5044 25.6093 12.1963 25.4653L12.9754 25.2878L13.3349 25.1695H13.7245C13.7798 25.2045 13.8219 25.2564 13.8444 25.3174V25.3765L13.9642 25.5836L14.2339 25.9976L14.8033 26.9145L15.4625 27.8018C15.6732 28.084 15.9257 28.3333 16.2117 28.5412C16.3995 28.68 16.6134 28.7806 16.8409 28.837C16.9639 28.8881 17.0977 28.9084 17.2305 28.8961H17.5601C17.7682 28.8687 17.9705 28.8088 18.1594 28.7187C18.3392 28.6378 18.5099 28.5387 18.6689 28.4229C18.9446 28.2371 19.1962 28.0186 19.418 27.7722L20.0772 27.092L20.6766 26.5004L21.2759 26.1159H21.4257L21.5755 26.0568L21.9651 25.9976C22.2461 25.99 22.5271 26.0098 22.8041 26.0568C23.111 26.107 23.4222 26.1268 23.7331 26.1159C24.0467 26.1184 24.3593 26.0786 24.662 25.9976C25.02 25.9232 25.3638 25.7934 25.6808 25.6131Z" fill="#1D1D1D"/>
<path id="Vector_6" d="M2.90667 18.9585C3.05902 19.2981 3.2817 19.6025 3.56038 19.8521C3.83907 20.1017 4.16759 20.2909 4.52482 20.4077C5.38953 20.6735 6.31089 20.7042 7.19177 20.4964C6.83218 19.1951 4.2851 19.5204 4.04537 18.1599C4.03139 17.8376 4.11484 17.5184 4.28509 17.243C4.85444 16.1487 5.93321 15.2023 5.87328 13.9601C5.81335 12.7178 4.88441 12.008 4.43492 11.0024C4.32244 10.7729 4.28076 10.5157 4.31506 10.263C4.43 9.95851 4.65382 9.70604 4.94434 9.55318C6.08304 8.87292 7.61129 8.72504 8.4803 7.71945C9.34931 6.71385 9.22944 5.32376 9.40924 4.05198C9.39844 3.97019 9.41264 3.88708 9.45001 3.81331C9.48739 3.73954 9.54623 3.67846 9.619 3.63791C9.682 3.61359 9.74975 3.60362 9.8172 3.60874C9.88465 3.61386 9.95006 3.63394 10.0086 3.66749C11.2671 4.14071 12.7354 5.41249 14.1738 4.90969C15.6122 4.4069 15.8219 2.18867 17.0505 1.12392C17.4389 1.96697 17.943 2.7532 18.5488 3.46045C18.9143 3.88562 19.3853 4.20995 19.9158 4.40176C20.4462 4.59356 21.018 4.64628 21.5753 4.55478C22.5942 4.34774 22.9238 4.43647 23.9127 4.28859C24.1121 4.25285 24.3172 4.26297 24.512 4.31817C24.6864 4.41718 24.8312 4.56005 24.9315 4.73223C25.8005 6.12232 25.5907 7.45326 26.6995 8.63631C27.8082 9.81937 28.5274 9.5236 29.3964 10.0264C29.5133 10.0838 29.608 10.1772 29.6661 10.2926C29.7168 10.4484 29.7061 10.6174 29.6361 10.7658C29.1866 11.9193 27.988 12.8362 27.958 14.0784C27.9281 15.3206 29.5163 16.6219 29.9058 18.0712C30.2954 19.5204 28.3176 19.4613 27.4486 19.3429C27.2098 19.3133 26.9682 19.3133 26.7294 19.3429C26.614 19.3587 26.5053 19.4057 26.4153 19.4788C26.3254 19.5519 26.2578 19.6482 26.22 19.757C25.8604 21.0288 28.7671 20.1711 29.2466 20.0232C29.726 19.8753 30.5651 19.7274 30.9546 19.3134C31.3442 18.8993 31.0445 17.1839 30.5051 16.4445C29.9657 15.7051 29.0068 14.5516 29.4264 13.3094C29.8459 12.0672 31.3442 11.0911 30.7449 9.78979C30.1455 8.48843 27.2688 8.93207 26.8193 6.95046C26.5796 5.82656 26.8193 4.67308 26.0402 3.66749C25.2611 2.66189 24.0026 2.69147 22.8639 3.13511C21.7252 3.57876 20.9461 3.9041 20.107 3.49003C19.268 3.07596 18.369 0.207055 17.0505 0.029597C16.4512 -0.059132 16.0017 0.532395 15.702 1.03519C15.4024 1.53799 14.9829 2.83935 14.2937 3.4013C13.6044 3.96325 12.256 3.4013 11.357 2.8985C10.458 2.3957 9.37927 2.07036 8.66009 2.69147C7.94092 3.31257 8.36044 5.1463 7.85102 6.29978C7.01198 8.16309 3.71575 7.86733 3.08646 9.78979C2.69691 10.9728 3.56592 12.1263 4.25513 13.1319C4.48277 13.399 4.61911 13.7302 4.64468 14.0784C4.62444 14.3492 4.54249 14.6121 4.40496 14.8473C3.74571 16.06 2.57705 17.1839 2.78681 18.5444C2.81677 18.6627 2.8767 18.8106 2.90667 18.9585Z" fill="#1D1D1D"/>
<path id="Vector_7" d="M10.638 28.1567C9.91877 29.044 9.49925 30.1087 8.89994 31.0848C8.30062 32.0608 7.58145 33.5987 6.8323 34.8114L6.65251 35.1071V35.2254L6.59258 35.2846L6.44275 35.4916V35.5508H6.32288L6.26295 35.4916V35.3142H6.23299H6.11312V35.255C6.11312 35.2472 6.10997 35.2397 6.10435 35.2341C6.09873 35.2286 6.09111 35.2254 6.08316 35.2254V35.0776L5.96329 34.6931C5.9266 34.6521 5.90543 34.5998 5.90336 34.5452L5.81347 34.3973L5.6936 34.0424C5.60661 33.8463 5.47298 33.6738 5.30405 33.5396L5.06432 33.3621L4.76467 33.303H4.46501L4.16535 33.4213L3.5061 33.7762L2.69703 34.2198L2.48727 34.3382L2.36741 34.3973H2.18761C2.18761 34.3973 2.18761 34.3677 2.15764 34.3973L2.09771 34.4565V34.5156H1.91792V34.4565H1.97785C2.00782 34.4269 1.94788 34.4565 2.00782 34.4269C2.06775 34.3973 2.00782 34.4269 1.97785 34.4565H2.03778V34.1903H2.06775L2.12768 34.072L2.27751 33.8649C2.39468 33.7185 2.49517 33.5598 2.57717 33.3917C2.93675 32.8593 3.35627 32.3565 3.6859 31.7946C4.31518 30.7298 4.88453 29.6355 5.60371 28.6299C5.85177 28.2977 6.04401 27.9282 6.17306 27.5356C6.28632 27.2231 6.43723 26.9252 6.62254 26.6483C6.77237 26.4413 6.95217 26.2934 6.86227 25.968C6.77237 25.6427 6.44275 25.7019 6.32288 25.7906C6.20302 25.8793 6.08316 25.9385 6.05319 26.0864C5.93275 26.557 5.71886 26.9993 5.42391 27.3877C5.26908 27.5947 5.14777 27.8242 5.06432 28.068C4.76467 28.5412 4.34514 28.9553 4.13538 29.4876C3.93174 30.0039 3.65968 30.4912 3.32631 30.9369C2.78693 31.7059 2.30747 32.534 1.76809 33.303L1.52836 33.6579L1.22871 34.072L0.929049 34.486L0.77922 34.6931L0.689323 34.8114V34.8705H0.56946L0.509529 34.9593L0.419631 35.1071L0.329734 35.255L0.239837 35.4029L0.090008 35.6691L0.0300764 35.7874C0.00585305 35.8328 -0.00455322 35.8842 0.000110647 35.9353C0.00574137 35.9832 0.0221068 36.0293 0.0480209 36.0702C0.0739351 36.1112 0.108749 36.1459 0.149939 36.1719L0.299768 36.231H0.419631L0.869117 36.1127L0.98898 36.0536H1.10884L1.28864 35.9649L1.43847 35.9057L2.09771 35.5804L2.78693 35.255L3.32631 35.0184L3.83573 34.7818L3.98556 34.7226H4.07545L4.22528 34.6339L4.40508 34.5748H4.5549C4.56575 34.5868 4.574 34.6008 4.57915 34.6161C4.5843 34.6313 4.58625 34.6475 4.58487 34.6635L4.6448 34.7522C4.64343 34.7682 4.64537 34.7844 4.65052 34.7996C4.65568 34.8149 4.66393 34.8289 4.67477 34.841V35.0184H4.70473L4.76467 35.1071C4.80212 35.2208 4.85238 35.3299 4.91449 35.4325L4.97443 35.4916L5.03436 35.6099L5.15422 35.8465L5.27408 36.1127L5.36398 36.231V36.2902H5.39395H5.51381L5.57374 36.4085L5.66364 36.4677L5.72357 36.5564H5.7835L5.8734 36.6155L5.93333 36.6747H6.05319C6.12048 36.6931 6.19134 36.6946 6.25937 36.6791C6.32739 36.6636 6.39042 36.6316 6.44275 36.586C6.547 36.5246 6.63852 36.4444 6.71244 36.3493L6.86227 36.1719L6.98213 35.9057L7.25182 35.4029L7.34172 35.2846V35.1663L7.43162 35.0184L7.61141 34.6931C8.57032 33.0664 9.31946 31.3214 10.3683 29.7242C10.6979 29.2214 10.9376 28.6891 11.2373 28.1567C11.5369 27.6243 11.4171 27.7722 11.0874 27.4173C10.8907 27.6328 10.738 27.8839 10.638 28.1567Z" fill="#1D1D1D"/>
<path id="Vector_8" d="M34.8802 34.7818H34.7903V34.7226L34.7304 34.6339L34.5805 34.4269L34.3109 33.9832L33.7115 33.1255L33.0823 32.2086C32.6927 31.6763 32.3631 31.1143 31.9735 30.5819C31.584 30.0496 30.3853 28.6595 29.7261 27.6539C29.5064 27.2999 29.2336 26.9808 28.917 26.7074C28.6659 26.479 28.4445 26.2207 28.2578 25.9385C28.1379 25.761 28.048 25.5244 27.7184 25.4652C27.3888 25.4061 27.3588 25.7314 27.3888 25.8793C27.4187 26.0272 27.4487 26.1455 27.5686 26.2342C27.9584 26.5445 28.284 26.9261 28.5275 27.3581C28.6706 27.5679 28.8309 27.7658 29.0069 27.9496C29.3665 28.3933 29.6062 28.9257 30.0257 29.3102C30.4236 29.7038 30.7754 30.1403 31.0746 30.6115C31.584 31.3805 32.1833 32.1495 32.7227 32.9185L32.9624 33.303L33.2021 33.6579L33.4119 33.9536L33.5018 34.1311V34.1903H33.5617C33.5831 34.2682 33.6244 34.3395 33.6816 34.3973L33.7715 34.5747L33.8913 34.7522V34.8409C33.9022 34.8529 33.9104 34.867 33.9156 34.8823C33.9207 34.8975 33.9227 34.9136 33.9213 34.9297C33.9143 34.9636 33.8955 34.994 33.8681 35.0156C33.8407 35.0372 33.8065 35.0487 33.7715 35.048H33.5617L33.1722 34.8114L32.9924 34.6931L32.8425 34.6043L32.5129 34.4269L32.3631 34.3381H32.2732L32.1234 34.2494L31.6439 33.9536L31.1644 33.6283L31.0446 33.5396H30.9847L30.8948 33.4804L30.5352 33.2438H30.5052C30.3614 33.1432 30.1982 33.0727 30.0257 33.0368H29.786L29.5463 33.1255L29.3965 33.2734L29.2466 33.4804L29.0968 33.717L28.9769 33.9832V34.1903H28.947L28.887 34.3677L28.7372 34.7226V34.8409H28.7073V34.9888H28.6773L28.7672 35.1367L28.7073 35.0775H28.6473V35.1959C28.6174 35.2254 28.6473 35.2846 28.6174 35.3142H28.4675C28.4596 35.3142 28.452 35.311 28.4463 35.3055C28.4407 35.2999 28.4376 35.2924 28.4376 35.2846H28.4076C28.4057 35.2618 28.395 35.2406 28.3776 35.2254V35.1367L27.9581 34.2198C27.179 32.5044 26.1901 30.8481 25.5009 29.0735C25.2912 28.5412 25.0215 28.0088 24.7518 27.4764C24.4821 26.9441 24.542 27.1215 24.0925 27.1215C24.0932 27.3299 24.1132 27.5378 24.1525 27.7426C24.3228 28.2841 24.5435 28.8088 24.8117 29.3102C25.0514 29.8425 25.2912 30.3453 25.5009 30.8481C26.0403 32.1791 26.7894 33.4213 27.3288 34.7226L27.4787 35.0184L27.5386 35.1959L27.6585 35.4325L27.8682 35.9057L27.9281 36.024L27.9881 36.1423C28.018 36.1719 28.048 36.231 28.078 36.231L28.1379 36.3198L28.1978 36.4085C28.2057 36.4085 28.2135 36.41 28.2208 36.413C28.228 36.416 28.2347 36.4203 28.2402 36.4258C28.2458 36.4313 28.2502 36.4378 28.2532 36.445C28.2562 36.4522 28.2578 36.4599 28.2578 36.4676L28.3776 36.5564C28.4923 36.6314 28.6307 36.663 28.7672 36.6451H28.887L28.9769 36.5859C29.0069 36.5564 29.0668 36.5564 29.0968 36.4972C29.1585 36.475 29.2112 36.4335 29.2466 36.3789L29.3365 36.2902C29.3365 36.2014 29.3066 36.1127 29.3066 36.024C29.3066 35.9353 29.3665 36.1127 29.3965 36.2014H29.4264L29.4864 36.1127L29.5463 35.9944L29.6961 35.7578L29.846 35.4916V35.4325H29.8759L29.9359 35.3437C29.9882 35.2341 30.0591 35.1341 30.1456 35.048L30.2355 34.8705H30.2655C30.2655 34.8409 30.2355 34.7818 30.2655 34.7522C30.2954 34.7226 30.2954 34.7226 30.3254 34.6931H30.5052V34.7522H30.5352L31.4042 35.1959L31.8237 35.4029H32.0934L32.453 35.5803L33.2021 35.9648L33.5917 36.1423L33.7715 36.231L33.8913 36.2902H34.2809C34.3109 36.2902 34.3408 36.2902 34.3408 36.2606H34.5805L34.7004 36.2014L34.7903 36.1423L34.9102 36.0831L35.0001 35.9944C35.03 35.9353 35.03 35.9057 35.06 35.8761C35.0708 35.8641 35.0791 35.85 35.0842 35.8348C35.0894 35.8195 35.0913 35.8034 35.09 35.7874V35.6395C35.0984 35.3403 35.026 35.0442 34.8802 34.7818Z" fill="#1D1D1D"/>
<path id="Vector_9" d="M16.2414 16.0895H16.2115L16.1516 16.0304L15.8819 15.8825L15.3425 15.5572C14.9898 15.3685 14.675 15.118 14.4135 14.8178C14.3282 14.6874 14.2062 14.5844 14.0626 14.5214C13.9189 14.4583 13.7597 14.438 13.6045 14.4628C13.4808 14.476 13.3558 14.4585 13.2407 14.412C13.1256 14.3656 13.0241 14.2915 12.9452 14.1967C12.8254 14.0784 12.8553 13.8713 12.286 14.1375C11.7166 14.4037 11.357 14.8473 11.3271 14.9952C11.2971 15.1431 11.1772 15.291 11.2971 15.3206C11.417 15.3501 12.1062 15.4684 12.1361 15.8529C12.1661 16.2374 12.4058 16.0304 12.5557 16.1191C12.7055 16.2079 12.7954 16.829 13.3048 16.8881C13.5044 16.8949 13.6998 16.9463 13.8763 17.0386C14.0528 17.1308 14.2058 17.2614 14.3236 17.4205C14.4144 17.5724 14.5252 17.7116 14.6533 17.8345L15.0129 18.219L15.3724 18.574L15.7021 18.8993L16.0617 19.3134L16.2414 19.4908C16.2414 19.5303 16.2714 19.5598 16.3313 19.5796C16.3453 19.5979 16.3634 19.6128 16.3842 19.6231C16.405 19.6334 16.4279 19.6387 16.4512 19.6387C16.532 19.6591 16.6177 19.6486 16.6909 19.6091L16.7808 19.55L16.8408 19.4612L17.1704 19.1655L17.2902 19.0472L17.4101 18.8993L17.53 18.7218C17.5872 18.6641 17.6284 18.5928 17.6498 18.5148C17.7997 18.2486 17.9795 17.9824 18.1293 17.6867L18.369 17.2726V17.1543L18.4289 17.0951L18.5188 16.9473L18.9983 16.3262C19.3443 15.8309 19.6452 15.3063 19.8973 14.7586C20.1376 14.1958 20.439 13.6603 20.7962 13.1615C21.1342 12.6715 21.4156 12.1457 21.6353 11.5939C21.8837 11.0501 22.1742 10.5261 22.5043 10.0264C22.7051 9.70856 22.8471 9.35807 22.9238 8.99122C22.9837 8.87292 22.9538 8.72504 22.4743 8.34055L21.9949 8.518C21.7075 8.75001 21.464 9.03038 21.2757 9.34614C21.0936 9.6601 20.883 9.95708 20.6464 10.2334C20.3339 10.5587 20.0714 10.9273 19.8673 11.3278C19.6569 11.7358 19.4059 12.1221 19.1182 12.4812C18.7052 12.9689 18.3248 13.4827 17.9795 14.0192L16.9606 15.5867L16.601 16.0895L16.5111 16.2079H16.4212C16.3913 16.2374 16.3913 16.2374 16.3913 16.267C16.3833 16.267 16.3757 16.2701 16.3701 16.2757C16.3645 16.2812 16.3613 16.2887 16.3613 16.2966C16.3613 16.3557 16.3313 16.3557 16.3313 16.3557C16.3234 16.3557 16.3158 16.3526 16.3102 16.3471C16.3045 16.3415 16.3014 16.334 16.3014 16.3262C16.2714 16.2966 16.2714 16.2966 16.2714 16.267C16.2714 16.2374 16.2414 16.2079 16.2414 16.1487V16.0304C16.2115 16.0304 16.2414 16.0008 16.2714 15.9712C16.2873 15.9752 16.301 15.9852 16.3094 15.999C16.3178 16.0129 16.3203 16.0295 16.3164 16.0452C16.3124 16.0609 16.3023 16.0744 16.2882 16.0827C16.2742 16.091 16.2573 16.0935 16.2414 16.0895Z" fill="#1D1D1D"/>
<path id="Vector_10" d="M16.3014 16.0895H16.2715C16.276 16.0869 16.2812 16.0856 16.2865 16.0856C16.2917 16.0856 16.2969 16.0869 16.3014 16.0895Z" fill="#1D1D1D"/>
</g>
</g>
<defs>
<clipPath id="clip0_87_3912">
<rect width="35" height="37" fill="white"/>
</clipPath>
</defs>
</svg>
