<svg width="31" height="32" viewBox="0 0 31 32" fill="none" xmlns="http://www.w3.org/2000/svg">
<g id="Group">
<path id="Vector" opacity="0.25" d="M21.6959 18.5C21.6959 18.5 24.7959 12.4 22.0959 9.30001C19.3959 6.20001 15.4959 14 14.6959 12.4C11.8959 6.70001 1.69586 3.10001 6.19586 14.6C5.59586 13.8 1.09586 6.80001 4.59586 3.30001C8.09586 -0.199987 13.9959 6.60001 15.0959 9.30001C16.1959 12 18.9959 6.10001 21.2959 5.20001C23.5959 4.30001 26.6959 4.90001 27.7959 7.90001C28.8959 10.9 28.6959 14 25.3959 16.3C22.0959 18.6 21.6959 18.5 21.6959 18.5Z" fill="#F1C40F"/>
<g id="Group 122">
<path id="Vector_2" d="M19.9959 26.3C22.6959 24.3 23.9959 21.4 26.1959 19L28.0959 16.7C28.1993 16.5884 28.2687 16.4496 28.2959 16.3L28.5959 15.9L28.9959 15.2L29.5959 13.6C30.012 12.4828 30.1826 11.289 30.0959 10.1C30.0831 8.81403 29.7752 7.54818 29.1959 6.4C28.2623 4.72692 26.7237 3.4746 24.8959 2.9C23.894 2.58376 22.8303 2.51513 21.7959 2.7C20.8869 2.9104 20.0117 3.247 19.1959 3.7C18.2757 4.28952 17.4355 4.99535 16.6959 5.8C16.5959 5.9 15.8959 6.8 15.7959 6.5C15.3549 5.19629 14.6387 4.00265 13.6959 3L13.1959 2.5C12.4915 1.73849 11.6422 1.12514 10.6978 0.695873C9.75342 0.266603 8.73289 0.0300291 7.69594 0C6.1881 0.0564394 4.74345 0.620204 3.59594 1.6C2.59769 2.55959 1.87287 3.76762 1.49594 5.1C1.49594 5.2 1.39594 5.3 1.39594 5.5C1.39594 5.7 1.29594 5.7 1.29594 5.9C0.971604 7.07101 0.836567 8.28635 0.895943 9.5C0.973803 10.6599 1.2093 11.8037 1.59594 12.9C2.11707 14.9222 2.96126 16.8469 4.09594 18.6C5.15741 20.113 6.36305 21.5196 7.69594 22.8C8.89594 24.1 10.1959 25.4 11.2959 26.8C12.0351 27.77 13.0438 28.5004 14.1959 28.9C15.1141 29.2302 15.9379 29.7794 16.5959 30.5C17.0959 30.9 17.3959 31.6 18.6959 31.2C19.1719 30.8042 19.5776 30.3309 19.8959 29.8C19.9959 29.4 20.0959 28.3 19.4959 28.2C18.752 27.9959 18.0667 27.619 17.4959 27.1C16.7959 26.6 16.3959 25.9 15.7959 25.4L14.3959 24.2C13.6959 23.5 13.0959 22.7 12.4959 22L9.89594 19.7C8.41817 18.1764 7.20184 16.4195 6.29594 14.5C5.09594 12 4.09594 9.2 4.79594 6.5C4.90805 5.92565 5.17087 5.39145 5.55746 4.95214C5.94405 4.51283 6.44051 4.18422 6.99594 4C7.43149 3.92171 7.87854 3.93461 8.30885 4.03789C8.73916 4.14116 9.14337 4.33256 9.49594 4.6C12.0959 6.4 13.4959 9.9 14.6959 12.4C15.8959 14.9 16.1959 12 18.0959 9.9C18.937 8.93116 19.9138 8.0891 20.9959 7.4C21.456 7.03966 21.9969 6.79674 22.5718 6.6922C23.1467 6.58766 23.7385 6.62466 24.2959 6.8C24.8372 7.07675 25.2971 7.48971 25.6302 7.99821C25.9634 8.50672 26.1584 9.09324 26.1959 9.7C26.2291 10.9155 25.9539 12.1196 25.3959 13.2C23.3959 17.3 19.6959 20.3 17.4959 24.2C17.2637 24.4847 17.1241 24.8337 17.0959 25.2C17.1223 25.5972 17.2611 25.9787 17.4959 26.3C17.5959 26.3 18.0959 27.1 18.1959 27.1C18.8558 26.9962 19.4767 26.7202 19.9959 26.3Z" fill="#F1C40F"/>
</g>
</g>
</svg>
