<svg width="30" height="32" viewBox="0 0 30 32" fill="none" xmlns="http://www.w3.org/2000/svg">
<path opacity="0.25" d="M21.3136 18.5C21.3136 18.5 24.4136 12.4 21.7136 9.30001C19.0136 6.20001 15.1136 14 14.3136 12.4C11.5136 6.70001 1.31361 3.10001 5.81361 14.6C5.21361 13.8 0.713614 6.80001 4.21361 3.30001C7.71361 -0.199987 13.6136 6.60001 14.7136 9.30001C15.8136 12 18.6136 6.10001 20.9136 5.20001C23.2136 4.30001 26.3136 4.90001 27.4136 7.90001C28.5136 10.9 28.3136 14 25.0136 16.3C21.7136 18.6 21.3136 18.5 21.3136 18.5Z" fill="#B3B3B3"/>
<path d="M19.6136 26.3C22.3136 24.3 23.6136 21.4 25.8136 19L27.7136 16.7C27.817 16.5884 27.8863 16.4496 27.9136 16.3L28.2136 15.9L28.6136 15.2L29.2136 13.6C29.6297 12.4828 29.8003 11.289 29.7136 10.1C29.7008 8.81403 29.3929 7.54818 28.8136 6.4C27.88 4.72692 26.3414 3.4746 24.5136 2.9C23.5116 2.58376 22.4479 2.51513 21.4136 2.7C20.5045 2.9104 19.6294 3.247 18.8136 3.7C17.8934 4.28952 17.0531 4.99535 16.3136 5.8C16.2136 5.9 15.5136 6.8 15.4136 6.5C14.9726 5.19629 14.2564 4.00265 13.3136 3L12.8136 2.5C12.1092 1.73849 11.2599 1.12514 10.3155 0.695873C9.3711 0.266603 8.35056 0.0300291 7.31362 0C5.80578 0.0564394 4.36113 0.620204 3.21362 1.6C2.21536 2.55959 1.49055 3.76762 1.11362 5.1C1.11362 5.2 1.01362 5.3 1.01362 5.5C1.01362 5.7 0.913619 5.7 0.913619 5.9C0.58928 7.07101 0.454242 8.28635 0.513619 9.5C0.591479 10.6599 0.826977 11.8037 1.21362 12.9C1.73474 14.9222 2.57894 16.8469 3.71362 18.6C4.77509 20.113 5.98073 21.5196 7.31362 22.8C8.51362 24.1 9.81362 25.4 10.9136 26.8C11.6527 27.77 12.6615 28.5004 13.8136 28.9C14.7318 29.2302 15.5556 29.7794 16.2136 30.5C16.7136 30.9 17.0136 31.6 18.3136 31.2C18.7896 30.8042 19.1953 30.3309 19.5136 29.8C19.6136 29.4 19.7136 28.3 19.1136 28.2C18.3697 27.9959 17.6844 27.619 17.1136 27.1C16.4136 26.6 16.0136 25.9 15.4136 25.4L14.0136 24.2C13.3136 23.5 12.7136 22.7 12.1136 22L9.51362 19.7C8.03585 18.1764 6.81952 16.4195 5.91362 14.5C4.71362 12 3.71362 9.2 4.41362 6.5C4.52573 5.92565 4.78855 5.39145 5.17514 4.95214C5.56173 4.51283 6.05819 4.18422 6.61362 4C7.04917 3.92171 7.49622 3.93461 7.92653 4.03789C8.35683 4.14116 8.76105 4.33256 9.11362 4.6C11.7136 6.4 13.1136 9.9 14.3136 12.4C15.5136 14.9 15.8136 12 17.7136 9.9C18.5546 8.93116 19.5314 8.0891 20.6136 7.4C21.0737 7.03966 21.6145 6.79674 22.1895 6.6922C22.7644 6.58766 23.3562 6.62466 23.9136 6.8C24.4549 7.07675 24.9148 7.48971 25.2479 7.99821C25.5811 8.50672 25.776 9.09324 25.8136 9.7C25.8468 10.9155 25.5716 12.1196 25.0136 13.2C23.0136 17.3 19.3136 20.3 17.1136 24.2C16.8813 24.4847 16.7418 24.8337 16.7136 25.2C16.74 25.5972 16.8787 25.9787 17.1136 26.3C17.2136 26.3 17.7136 27.1 17.8136 27.1C18.4735 26.9962 19.0944 26.7202 19.6136 26.3Z" fill="#B3B3B3"/>
</svg>
