<svg width="37" height="31" viewBox="0 0 37 31" fill="none" xmlns="http://www.w3.org/2000/svg">
<g id="&#208;&#152;&#208;&#189;&#209;&#130;&#208;&#181;&#209;&#128;&#209;&#132;&#209;&#141;&#208;&#185;&#209;&#129;" clip-path="url(#clip0_87_3754)">
<g id="&#208;&#152;&#208;&#189;&#209;&#130;&#208;&#181;&#209;&#128;&#209;&#132;&#209;&#141;&#208;&#185;&#209;&#129;_2">
<path id="Vector" opacity="0.08" d="M3.74712 2.33333C3.15701 2.36363 2.92096 3.42424 2.74393 3.93939C2.5669 4.45454 2.50788 5.78787 3.59959 6.12121C5.2519 6.57575 32.279 7.66666 32.456 7.0606C32.6331 6.45454 33.0167 3.42424 32.456 2.66666C31.8954 1.90908 8.64505 2.21211 3.74712 2.33333Z" fill="#1D1D1D"/>
<path id="Vector_2" opacity="0.08" d="M24.0174 17.6061C24.0174 17.6061 19.6211 30.303 33.2822 27.5151C33.2822 27.5151 36.1442 31.0303 27.6761 31.0303C17.0836 30.5151 18.5884 20.6667 19.6506 18.5758C20.7128 16.4848 24.1944 14.1212 24.0174 17.6061Z" fill="#1D1D1D"/>
<path id="Vector_3" d="M5.45854 3.75758C5.45854 4.30303 4.80941 4.60606 4.39634 4.60606C3.98326 4.60606 3.74721 4.54545 3.74721 4C3.73726 3.89931 3.74977 3.79762 3.78377 3.70263C3.81778 3.60764 3.87239 3.52185 3.94348 3.45176C4.01457 3.38168 4.10026 3.32913 4.19406 3.29811C4.28786 3.26709 4.3873 3.25841 4.48485 3.27273C4.89793 3.27273 5.45854 3.24242 5.45854 3.75758Z" fill="#1D1D1D"/>
<path id="Vector_4" d="M8.02543 3.75758C8.02543 4.30303 7.37631 4.60606 6.96323 4.60606C6.55015 4.60606 6.31411 4.54545 6.31411 4C6.30416 3.89931 6.31666 3.79762 6.35067 3.70263C6.38467 3.60764 6.43929 3.52185 6.51038 3.45176C6.58146 3.38168 6.66715 3.32913 6.76095 3.29811C6.85475 3.26709 6.9542 3.25841 7.05175 3.27273C7.46483 3.27273 8.02543 3.24242 8.02543 3.75758Z" fill="#1D1D1D"/>
<path id="Vector_5" d="M10.8285 3.75756C10.8285 4.30302 10.1794 4.60605 9.76634 4.60605C9.35326 4.60605 9.11722 4.54544 9.11722 3.99999C9.11263 3.90061 9.12881 3.80138 9.16467 3.70896C9.20053 3.61655 9.25523 3.53309 9.32511 3.46419C9.39499 3.39529 9.47842 3.34256 9.56979 3.30953C9.66117 3.2765 9.75837 3.26395 9.85486 3.27271C10.2679 3.27271 10.8285 3.24241 10.8285 3.75756Z" fill="#1D1D1D"/>
<path id="Vector_6" d="M19.3261 26.6061C19.2671 26.5454 19.1786 26.4242 19.1196 26.4848C19.0606 26.5454 18.5295 26.8182 18.2639 26.697C17.9984 26.5758 17.9394 26.7879 17.7918 26.8182C17.6443 26.8485 17.1427 26.697 16.8181 26.9091C16.5192 27.0744 16.1839 27.1579 15.8445 27.1515C15.2839 27.1212 14.7528 27.2424 14.1921 27.2424C13.6315 27.2424 12.9824 27.1515 12.3923 27.0909C11.8022 27.0303 10.622 27.0303 9.7073 26.9091C8.79263 26.7879 7.46487 26.8788 6.31416 26.697C5.16344 26.5151 4.10124 26.6667 3.00953 26.3939C2.66913 26.3294 2.32218 26.309 1.97683 26.3333C1.85881 26.3333 1.74079 26.3939 1.65227 26.8788C1.59349 26.6504 1.59349 26.4102 1.65227 26.1818C1.66639 25.9557 1.63629 25.7291 1.56376 25.5151C1.47524 25 1.68178 24.5151 1.47524 24.0303C1.30648 23.566 1.23607 23.0702 1.2687 22.5758C1.29821 21.7576 1.18018 20.9394 1.20969 20.1212C1.2392 19.303 1.29821 18.3333 1.35722 17.4242C1.41623 16.5151 1.47524 14.7576 1.59326 13.4545C1.71128 12.1515 1.65227 10.0606 1.85881 8.39393C2.06535 6.72727 1.91782 5.0606 2.24239 3.42424C2.29213 2.93103 2.31184 2.43512 2.3014 1.93939C2.75471 1.73143 3.25839 1.66809 3.74717 1.75757C4.02551 1.77249 4.30438 1.7418 4.57333 1.66666C5.16344 1.57575 5.78306 1.78787 6.37317 1.57575C6.93203 1.37708 7.5238 1.29468 8.114 1.33333C9.11719 1.36363 10.1204 1.24242 11.1236 1.24242C12.1268 1.24242 13.307 1.30302 14.3987 1.36363C16.0215 1.45454 17.6443 1.42424 19.2671 1.57575C20.8899 1.72727 23.3684 1.57575 25.4338 1.78787C27.4992 1.99999 29.4465 1.78787 31.4529 2.0909C32.0513 2.14645 32.6529 2.15658 33.2528 2.12121C33.1937 2.24242 33.3118 2.33333 33.3413 2.42424C33.3708 2.51514 33.2232 2.87878 33.4003 3.12121C33.4872 3.19944 33.5542 3.29834 33.5953 3.40926C33.6364 3.52019 33.6505 3.63977 33.6363 3.75757C33.6068 4.15151 33.7248 4.51515 33.6953 4.90908C33.6735 5.31614 33.6242 5.72115 33.5478 6.12121C33.4593 6.72727 33.4593 7.33333 33.3413 7.93939C33.2232 8.54545 33.2823 9.45454 33.0757 10.2121C32.8692 10.9697 33.0462 11.7273 32.7217 12.4848C32.6674 12.7129 32.6573 12.9498 32.6921 13.1818C32.6626 13.2727 32.7512 13.3636 33.3708 13.4242C33.5029 13.3819 33.624 13.3094 33.7248 13.2121C34.0789 12.7576 33.9314 12.303 34.1084 11.8788C34.2854 11.4545 34.1674 10.7576 34.315 10.1818C34.4568 9.4003 34.5553 8.61115 34.61 7.81818C34.6395 7.30302 34.787 6.81818 34.728 6.30302C34.669 5.78787 34.8756 5.27272 34.8756 4.75757C34.9001 4.49574 34.91 4.23268 34.9051 3.96969C34.787 3.48484 34.551 2.99999 34.5805 2.51515C34.6047 2.42225 34.5974 2.32368 34.5599 2.23559C34.5223 2.1475 34.4568 2.07511 34.374 2.0303C34.1969 1.87878 34.2264 1.75757 34.1969 1.63636C34.1674 1.51515 34.2854 1.42424 33.9314 1.33333H33.8724L33.3708 1.0606C32.161 0.696963 30.9808 0.878782 29.7711 0.696963C28.5614 0.515145 26.7615 0.636357 25.2272 0.515145C23.1323 0.333327 21.0079 0.333327 18.8835 0.272721C17.5558 0.212115 16.1985 0.0909027 14.8708 0.151509C13.543 0.212115 12.0972 0.0302964 10.7105 0.0302964C10.0024 0.0605995 9.32373 -0.0303096 8.61559 0.0302964C7.31735 0.151509 6.0191 0.393933 4.72085 0.393933C4.2774 0.343337 3.82888 0.416621 3.42261 0.606054C3.08413 0.739707 2.7228 0.801556 2.36041 0.787872C2.12436 0.818175 1.85881 0.727266 1.62277 1.0909C1.38672 1.45454 1.59326 1.27272 1.62277 1.33333C1.47934 1.48506 1.35988 1.65887 1.2687 1.84848C0.885128 2.81818 1.03266 3.81818 0.855623 4.78787C0.678589 5.75757 0.767106 7.27272 0.649084 8.51515C0.442545 10.2424 0.413039 12 0.324522 13.7273C0.265511 14.8485 0.147489 15.9394 0.176994 17.0303C0.2065 18.1212 0.0294664 19.303 0.0294664 20.4545C0.0294664 21 -0.0295448 21.5758 -3.9218e-05 22.1515C0.0884775 23.2121 0.354028 24.303 0.295017 25.3636C0.274353 25.7427 0.356039 26.1202 0.531061 26.4545C0.650519 26.7196 0.701334 27.0119 0.678589 27.303C0.708095 27.5151 0.619578 27.7273 0.973645 27.9091C1.32771 28.0909 1.65227 27.9091 1.74079 27.7879C1.82931 27.6667 1.88832 27.5758 1.85881 27.4545L1.74079 27.2424L1.94733 27.3939C2.62596 27.7576 3.27508 27.6061 3.9242 27.7576C4.57333 27.9091 5.60602 27.8182 6.43218 27.9697C7.25833 28.1212 8.76312 28.1212 9.94334 28.2121C10.6515 28.2424 11.3891 28.3636 12.1268 28.3333C12.8644 28.303 13.661 28.4545 14.4282 28.4242C15.1953 28.3939 15.1953 28.4848 15.5789 28.4545C15.9625 28.4242 16.9952 28.0606 17.7328 28.0909C17.861 28.1081 17.9913 28.0952 18.114 28.0532C18.2366 28.0112 18.3484 27.9412 18.441 27.8485C18.6179 27.7339 18.8219 27.6711 19.0311 27.6667C19.1491 27.6667 19.2966 27.7576 19.4441 27.3939C19.5917 27.0303 19.4146 26.6667 19.3261 26.6061Z" fill="#1D1D1D"/>
<path id="Vector_7" d="M4.21914 10.697C4.33716 10.7273 4.48469 10.6364 4.63222 10.606C4.77974 10.5757 5.22233 10.697 5.54689 10.5454C5.82366 10.4134 6.12712 10.351 6.43206 10.3636C6.93365 10.3939 7.46475 10.303 7.96635 10.303C8.46794 10.303 9.08756 10.3636 9.64817 10.3939C10.2088 10.4242 11.3005 10.4545 12.1266 10.5454C12.9528 10.6364 14.2215 10.5454 15.2542 10.697C16.2869 10.8485 17.3196 10.697 18.3523 10.9091C18.6655 10.949 18.9815 10.9591 19.2965 10.9394C19.4145 10.9394 19.5325 10.8788 19.6506 10.4545L19.326 10.1818C18.7064 9.93938 18.0868 10.0606 17.4966 9.93938C16.9065 9.81817 15.9329 9.90908 15.1657 9.81817C14.3986 9.72726 13.0118 9.69696 11.9201 9.63635C10.8284 9.57575 10.5628 9.51514 9.88421 9.54544C9.20558 9.57575 8.46794 9.45453 7.75981 9.48484C7.05167 9.51514 7.05167 9.42423 6.69761 9.45453C6.03528 9.59001 5.36507 9.68111 4.69123 9.72726C4.57866 9.7067 4.46322 9.70951 4.35173 9.73553C4.24024 9.76155 4.13496 9.81026 4.0421 9.87878C3.87068 9.97429 3.67587 10.0164 3.4815 9.99999C3.36348 10.0303 3.24545 9.93938 3.09793 10.2121C2.9504 10.4848 3.12743 10.697 3.21595 10.7576C3.30447 10.8182 3.33397 10.8788 3.42249 10.8485C3.5369 10.766 3.66727 10.7097 3.80474 10.6836C3.94221 10.6574 4.08354 10.662 4.21914 10.697Z" fill="#1D1D1D"/>
<path id="Vector_8" d="M19.7982 14.4848C19.7173 14.3838 19.6168 14.3013 19.5031 14.2424C18.913 13.9697 18.2934 14.0303 17.7033 13.9091C17.1132 13.7879 16.1985 13.8182 15.4609 13.697C14.7232 13.5758 13.3364 13.4848 12.2742 13.3939C11.212 13.303 10.9465 13.2121 10.2679 13.2121C9.58924 13.2121 8.91061 13.0909 8.20248 13.0606C7.49434 13.0303 7.52385 13 7.16978 13.0303C6.81572 13.0606 5.84203 13.2424 5.19291 13.1818C4.96632 13.1596 4.73876 13.2127 4.54379 13.3333C4.38089 13.4215 4.19463 13.4534 4.01268 13.4242C3.89466 13.4545 3.74713 13.3636 3.62911 13.6364C3.51109 13.9091 3.62911 14.1212 3.68812 14.1818C3.74713 14.2424 3.83565 14.303 3.89466 14.2727C4.00866 14.1893 4.1403 14.1347 4.27879 14.1137C4.41727 14.0926 4.55865 14.1056 4.69131 14.1515C4.80934 14.1818 4.95686 14.0909 5.10439 14.0909C5.25192 14.0909 5.6945 14.1818 5.98956 14.0606C6.26814 13.9366 6.57205 13.8846 6.87473 13.9091C7.37632 13.9697 7.87792 13.8788 8.37951 13.9091L10.0023 14.0606C10.8285 14.1515 11.6251 14.1818 12.4218 14.303C13.2184 14.4242 14.4872 14.3939 15.5199 14.5758C16.5526 14.7576 17.5262 14.6667 18.5294 14.9091C18.8415 14.9603 19.1577 14.9806 19.4736 14.9697C19.5621 14.9697 19.6801 14.9394 19.7982 14.4848Z" fill="#1D1D1D"/>
<path id="Vector_9" d="M12.3924 18.2424C12.0678 18 11.7137 18.0909 11.3892 17.9697C11.0646 17.8485 10.5335 17.9394 10.1204 17.8485C9.70736 17.7576 8.91071 17.7273 8.3206 17.6667C7.94892 17.617 7.57408 17.5967 7.19939 17.606C6.78631 17.6363 6.40274 17.5151 6.01916 17.5151H5.42905C5.07178 17.6247 4.70679 17.7058 4.33735 17.7576C4.26625 17.7491 4.1942 17.7584 4.1274 17.7848C4.06059 17.8112 4.00101 17.8538 3.95377 17.9091C3.86526 18.0303 3.77674 18.0303 3.65872 18.0606C3.54069 18.0909 3.51119 18 3.45218 18.2424C3.39317 18.4848 3.45218 18.7576 3.51119 18.7879C3.5702 18.8182 3.5702 18.9091 3.62921 18.8788C3.68822 18.8485 3.92427 18.6363 4.07179 18.7273C4.21932 18.8182 4.21932 18.6667 4.27833 18.6364C4.33735 18.606 4.6324 18.7273 4.80943 18.606C4.8673 18.5379 4.94073 18.4857 5.02313 18.4539C5.10554 18.4222 5.19433 18.412 5.28152 18.4242L6.13719 18.3636C6.4442 18.3639 6.75049 18.3943 7.05186 18.4545C7.52395 18.5151 7.96653 18.4848 8.43862 18.5757C8.91071 18.6667 9.58934 18.606 10.1499 18.7273C10.7106 18.8485 11.3007 18.7576 11.8613 18.9394C12.0332 18.9943 12.2156 19.0047 12.3924 18.9697C12.4514 18.9697 12.5104 18.9394 12.5694 18.4848C12.5339 18.3885 12.4725 18.3044 12.3924 18.2424Z" fill="#1D1D1D"/>
<path id="Vector_10" d="M9.41215 21.303C8.99467 21.2162 8.56933 21.1755 8.14341 21.1818C7.73034 21.1818 7.28775 21.0606 6.84517 21.0606C6.63054 21.024 6.41358 21.0038 6.19604 21C5.78297 21.0606 5.36989 21.2424 4.95681 21.2121C4.88128 21.2036 4.80485 21.2128 4.73329 21.239C4.66173 21.2653 4.59691 21.3079 4.54373 21.3636C4.42571 21.4848 4.33719 21.4545 4.21917 21.4848C4.10115 21.5152 4.07164 21.4242 3.98313 21.6667C3.89461 21.9091 3.95362 22.1818 4.01263 22.2121C4.07164 22.2424 4.10115 22.3333 4.13065 22.303C4.16016 22.2727 4.45522 22.0909 4.63225 22.1818C4.80928 22.2727 4.80928 22.1212 4.8978 22.0909C4.98632 22.0606 5.25187 22.2121 5.45841 22.0606C5.61879 21.9367 5.82004 21.8823 6.01901 21.9091C6.31407 21.9394 6.63863 21.8788 6.96319 21.8788L7.96638 22.0303C8.46797 22.0909 8.99907 22.1212 9.50067 22.2121C10.0023 22.303 10.7694 22.2727 11.4185 22.4545C12.0677 22.6364 12.6873 22.5152 13.3069 22.7273C13.4996 22.7774 13.6985 22.7978 13.897 22.7879C13.956 22.7879 14.0445 22.7273 14.1035 22.303C14.0586 22.2032 13.9989 22.1112 13.9265 22.0303C13.5724 21.7879 13.1889 21.8788 12.8053 21.7273C12.4217 21.5758 11.8611 21.6667 11.389 21.5455C10.9169 21.4242 10.0613 21.3939 9.41215 21.303Z" fill="#1D1D1D"/>
<path id="Vector_11" d="M30.2726 6.48484H32.0134C32.1332 6.49773 32.2539 6.47271 32.3593 6.41312C32.4648 6.35354 32.55 6.26225 32.6036 6.15151L32.0134 5.96969C30.9217 5.78787 29.8005 5.87878 28.6793 5.78787C27.5581 5.69696 25.9058 5.75757 24.4895 5.69696C22.5422 5.60605 20.5653 5.60605 18.5884 5.57575C17.3492 5.54545 16.1099 5.48484 14.9002 5.51514L11.035 5.45454C10.3859 5.45454 9.73673 5.42424 9.0876 5.45454C7.87788 5.51514 6.66815 5.63636 5.45842 5.60605C5.06185 5.60133 4.666 5.64198 4.2782 5.72727C3.95911 5.80254 3.63158 5.83312 3.30451 5.81818C3.06847 5.84848 2.83242 5.78787 2.59638 5.96969C2.36033 6.15151 2.62588 6.33333 2.77341 6.36363C2.88477 6.41347 3.0064 6.43428 3.12748 6.42424C3.61063 6.30869 4.10786 6.26783 4.60276 6.30302C4.84901 6.30806 5.09533 6.29794 5.3404 6.27272C5.901 6.21211 6.46161 6.33333 6.99271 6.21211C7.52967 6.12769 8.07231 6.08716 8.61552 6.0909C9.55969 6.12121 10.5039 6.0606 11.4185 6.0606L14.4576 6.12121L18.9425 6.21211C20.8603 6.30302 22.7487 6.21211 24.6666 6.33333C26.5844 6.45454 28.3843 6.33333 30.2726 6.48484Z" fill="#1D1D1D"/>
<path id="Vector_12" d="M14.2511 19.303C14.3101 19.1515 14.3691 19.0303 14.4576 19.1212C14.5461 19.2121 14.5166 19.0606 14.5756 19.0303C14.6347 19 14.7232 19.0909 14.8117 18.9394C14.9002 18.7879 14.9297 18.7576 15.0182 18.7576C15.1067 18.7576 15.2838 18.6667 15.4313 18.6667C15.5793 18.6464 15.7298 18.6567 15.8739 18.697C16.1018 18.7123 16.3284 18.7427 16.5525 18.7879C16.8181 18.8485 17.0836 18.7273 17.3787 18.8485C17.6737 18.9697 17.9393 18.8182 18.2343 18.9697C18.5294 19.1212 18.3819 19 18.4704 19C18.5589 19 18.5294 18.9394 18.5294 18.4849L18.4114 18.2424C18.2343 18 18.0868 18.1515 17.9098 18.0303C17.7327 17.9091 17.4967 18.0303 17.2902 17.9697C16.9987 17.9095 16.7022 17.8791 16.405 17.8788C16.223 17.8237 16.031 17.8133 15.8444 17.8485C15.6673 17.9091 15.4608 17.7879 15.2838 17.8182C15.1067 17.8485 15.1067 17.7879 15.0182 17.8485C14.9297 17.9091 14.6642 18.1515 14.4871 18.1515C14.3101 18.1515 14.3691 18.1515 14.3396 18.303C14.3101 18.4545 14.2511 18.4242 14.2216 18.4545C14.1921 18.4848 14.1331 18.4242 14.1331 18.6667C14.1333 18.8502 14.1531 19.0331 14.1921 19.2121L14.2511 19.303Z" fill="#1D1D1D"/>
<path id="Vector_13" d="M36.7345 20C36.6361 19.3991 36.4779 18.8102 36.2624 18.2424C35.9583 17.6263 35.6029 17.0382 35.2002 16.4848C34.4343 15.3321 33.3997 14.3946 32.1907 13.7576C30.1548 12.6667 27.7943 12.1515 25.6109 12.8182C23.4275 13.4848 21.3031 15.6061 20.3589 17.8485C19.4148 20.0909 19.1787 22.7879 19.8868 25.1515C20.4179 27 21.3916 28.6061 23.0734 29.6061C23.5879 29.8766 24.1203 30.1095 24.6667 30.303L26.3191 30.6667L27.9714 30.8182C28.698 30.881 29.4283 30.756 30.0958 30.4545C30.7154 30.1515 32.3382 30.0606 32.6333 29.3333C32.9283 28.6061 32.3677 28.4848 31.9251 28.5758C31.6289 28.6393 31.348 28.7629 31.099 28.9394C29.9187 29.6061 28.5025 29.6364 27.1452 29.5152C25.788 29.3939 24.6372 29.1212 23.6045 28.4545C21.6572 27.2121 20.9785 24.697 20.949 22.3333C20.9195 19.9697 21.8047 16.8182 24.0471 15.3333C25.2806 14.4646 26.7413 13.9997 28.2369 14C29.7461 14.056 31.209 14.5498 32.4562 15.4242C33.6543 16.2997 34.5691 17.5242 35.0822 18.9394C35.6576 20.3236 35.8613 21.8408 35.6723 23.3333C35.4748 24.8202 34.7499 26.1798 33.6364 27.1515C33.1939 27.5455 32.6333 27.9394 32.5742 28.5152C32.5719 28.6139 32.6032 28.7103 32.6628 28.7879C32.6897 28.8038 32.7202 28.8122 32.7513 28.8122C32.7824 28.8122 32.8129 28.8038 32.8398 28.7879C34.079 28.6667 35.0822 27.6667 35.7313 26.6364L35.8494 26.4848L35.9379 26.3333C36.2341 25.775 36.4715 25.1858 36.646 24.5758L36.705 24.3939V24.2121L36.7935 23.8485C37.0688 22.5787 37.0485 21.2602 36.7345 20Z" fill="#1D1D1D"/>
<path id="Vector_14" d="M25.5518 24.8182C25.6699 24.4545 25.5813 24.0909 25.6403 23.7273C25.6994 23.3636 25.7289 22.697 25.7879 22.1818C25.8469 21.6667 25.8174 21.8485 25.8174 21.697C25.8174 21.5454 25.8469 21.5454 25.8469 21.4545V20.9091C25.8469 20.8485 25.8174 20.7576 25.8174 20.697C25.8174 20.6364 25.7879 20.5757 25.7584 20.5151C25.7295 20.448 25.6896 20.3865 25.6403 20.3333L25.5518 20.2727H25.4928L25.2863 20.1818H24.3126C24.0139 20.2714 23.7076 20.3323 23.3979 20.3636C23.3384 20.3564 23.278 20.3635 23.2216 20.3846C23.1652 20.4056 23.1145 20.44 23.0734 20.4848C23.0464 20.5214 23.0099 20.5493 22.9681 20.5654C22.9264 20.5815 22.881 20.5851 22.8373 20.5757C22.7783 20.606 22.7193 20.5454 22.6603 20.7273V20.8788C22.4537 21.1818 22.5423 21.4545 22.4537 21.7273C22.3652 22 22.4242 22.4545 22.3652 22.8182C22.3062 23.1818 22.2767 23.8182 22.2177 24.3333C22.1587 24.8485 22.1587 24.9697 22.1587 25.2727V25.3939C22.1587 25.4242 22.1882 25.4848 22.1882 25.5151C22.1834 25.5872 22.1935 25.6595 22.2177 25.7273C22.2567 25.8729 22.3273 26.0076 22.4242 26.1212C22.5256 26.2396 22.6592 26.3241 22.8078 26.3636L23.0144 26.4242H23.7225C24.0206 26.3318 24.327 26.2709 24.6372 26.2424C24.6923 26.2499 24.7484 26.2427 24.8001 26.2214C24.8518 26.2002 24.8973 26.1657 24.9322 26.1212C24.9611 26.0871 24.9979 26.061 25.0391 26.0451C25.0803 26.0293 25.1247 26.0242 25.1683 26.0303C25.2273 26 25.2863 26.0606 25.3453 25.8788V25.7273C25.5518 25.3939 25.4633 25.1212 25.5518 24.8182ZM25.2273 21V21.2424V21.6667C25.2367 21.8606 25.2168 22.0548 25.1683 22.2424C25.1092 22.7273 25.1683 23.2424 25.0797 23.7273C24.9912 24.2121 25.0502 24.7273 24.9027 25.2121C24.8785 25.2799 24.8685 25.3522 24.8732 25.4242L24.7552 25.4848C24.6077 25.5454 24.4601 25.4242 24.3421 25.5454C24.2875 25.5978 24.2216 25.636 24.1498 25.6571C24.078 25.6782 24.0023 25.6814 23.929 25.6667H23.1619C23.1069 25.6715 23.0516 25.663 23.0004 25.642C22.9491 25.6209 22.9034 25.5879 22.8668 25.5454C22.8191 25.4524 22.7986 25.3472 22.8078 25.2424H22.8373V24.7879C22.8279 24.594 22.8478 24.3997 22.8963 24.2121C22.9553 23.7273 22.8963 23.2424 22.9848 22.7576C23.0734 22.2727 23.0144 21.7879 23.1619 21.303C23.1861 21.2352 23.1961 21.1629 23.1914 21.0909L23.3389 21.0303C23.4569 20.9697 23.6045 21.0909 23.752 20.9697C23.8066 20.9174 23.8725 20.8791 23.9443 20.858C24.0161 20.837 24.0918 20.8337 24.1651 20.8485H25.1683V21H25.2273Z" fill="#1D1D1D"/>
<path id="Vector_15" d="M34.0493 23.9091C34.0198 23.9394 34.0198 24 33.9903 24.0303C33.9523 24.1339 33.8917 24.2271 33.8133 24.303C33.7422 24.3913 33.6632 24.4725 33.5772 24.5454C33.4822 24.6433 33.4026 24.7558 33.3412 24.8788L33.2527 25.0606H33.2231C33.1561 25.2741 33.0454 25.4703 32.8986 25.6364L32.6625 25.8485L32.515 25.9394H32.3675L32.0724 26.0303H30.1251C29.5916 26.0352 29.0587 25.9947 28.5318 25.9091C28.1735 25.8279 27.8047 25.8074 27.4401 25.8485C27.152 25.8631 26.8634 25.8324 26.5844 25.7576L26.2893 25.6667C26.1779 25.6591 26.0665 25.68 25.9648 25.7273C25.8468 25.9091 25.8468 26.0606 25.9943 26.1212L26.1418 26.2424L26.3188 26.303C26.7661 26.2918 27.2127 26.3427 27.6466 26.4545C27.8666 26.5212 28.0973 26.5419 28.3252 26.5151C28.8268 26.5454 29.2989 26.7273 29.83 26.6667H31.9249L32.574 26.5151C32.9798 26.3335 33.3202 26.0263 33.5477 25.6364L33.6362 25.4848V25.3939L33.6952 25.3333V25.2121L33.7838 25.0909L33.8428 25.0303L33.9018 24.9697L34.1378 24.697C34.3068 24.5194 34.4287 24.3003 34.4919 24.0606C34.4919 24.0303 34.5214 24 34.5214 23.9697V23.6667C34.5249 23.5547 34.515 23.4428 34.4919 23.3333C34.4667 23.1486 34.4272 22.9662 34.3739 22.7879C34.3739 22.7576 34.3444 22.697 34.3444 22.6667L34.2853 22.5454C34.2617 22.4881 34.2515 22.4258 34.2558 22.3636V21.9394C34.2604 21.887 34.2502 21.8344 34.2263 21.7879C34.1934 21.5827 34.1009 21.3925 33.9608 21.2424C33.8361 21.089 33.6728 20.9737 33.4887 20.9091L33.3412 20.8485H31.6003L31.4233 20.7879C31.3775 20.7542 31.3421 20.7078 31.3212 20.6541C31.3003 20.6004 31.2948 20.5417 31.3053 20.4848V20.2121L31.4233 19.9091L31.6003 19.2727C31.7184 18.8485 31.8364 18.4242 31.9249 17.9394C31.923 17.8872 31.9332 17.8353 31.9544 17.7879V17.5757C31.9491 17.4326 31.9294 17.2904 31.8954 17.1515C31.7653 16.8555 31.5345 16.6185 31.2463 16.4848C30.9634 16.397 30.6591 16.4186 30.3906 16.5454C30.2644 16.5875 30.1451 16.6488 30.0365 16.7273L29.7415 17L29.5054 17.2727L29.4169 17.4242L29.3284 17.5757L29.1514 17.8182L28.9743 18.0606C28.4608 18.7202 27.8985 19.3382 27.2925 19.9091L26.4074 20.9697C26.3241 21.0489 26.2676 21.1534 26.2464 21.2679C26.2252 21.3825 26.2402 21.501 26.2893 21.6061C26.4649 21.57 26.628 21.4863 26.7614 21.3636C27.5876 20.7576 28.2367 19.9697 28.9448 19.2424C29.1757 19.0141 29.3925 18.7712 29.594 18.5151L29.889 18.1212L30.007 17.9394L30.1546 17.7273C30.2849 17.4771 30.4786 17.2677 30.7152 17.1212C30.8226 17.0536 30.9438 17.0121 31.0692 17L31.3643 17.0606C31.4163 17.1057 31.4588 17.1612 31.4892 17.2237C31.5197 17.2862 31.5374 17.3545 31.5413 17.4242V17.6667C31.5118 17.7576 31.5118 17.8788 31.4823 17.9697C31.3917 18.4015 31.2734 18.8266 31.1283 19.2424C31.0728 19.4589 31.0038 19.6714 30.9217 19.8788V20.1212L30.8627 20.2727C30.8381 20.4567 30.8583 20.6442 30.9217 20.8182C30.9936 20.9853 31.1052 21.1311 31.2463 21.2424C31.3882 21.3603 31.5653 21.4244 31.7479 21.4242H33.2527C33.4211 21.456 33.5757 21.5407 33.6952 21.6667C33.791 21.7978 33.8428 21.9573 33.8428 22.1212C33.8321 22.1335 33.824 22.1479 33.8189 22.1635C33.8138 22.1792 33.8119 22.1957 33.8133 22.2121C33.8035 22.3365 33.8237 22.4614 33.8723 22.5757C33.8709 22.5922 33.8728 22.6087 33.8779 22.6243C33.883 22.64 33.8911 22.6544 33.9018 22.6667V22.7273H33.9313V22.7879C33.9372 22.8523 33.9574 22.9145 33.9903 22.9697C34.0505 23.2071 34.0803 23.4516 34.0788 23.697V23.7576L34.0493 23.9091Z" fill="#1D1D1D"/>
</g>
</g>
<defs>
<clipPath id="clip0_87_3754">
<rect width="37" height="31" fill="white"/>
</clipPath>
</defs>
</svg>
