<svg width="37" height="37" viewBox="0 0 37 37" fill="none" xmlns="http://www.w3.org/2000/svg">
<g id="&#208;&#152;&#208;&#189;&#209;&#130;&#208;&#181;&#208;&#179;&#209;&#128;&#208;&#176;&#209;&#134;&#208;&#184;&#209;&#143;" clip-path="url(#clip0_87_3525)">
<g id="&#208;&#152;&#208;&#189;&#209;&#130;&#208;&#181;&#208;&#179;&#209;&#128;&#208;&#176;&#209;&#134;&#208;&#184;&#209;&#143;_2">
<path id="Vector" opacity="0.08" d="M22.1353 1.85C21.2522 2.02903 20.9873 2.74516 21.2522 3.61048C21.5171 4.47581 21.6349 4.41613 22.1353 4.44597C23.2538 4.50565 28.7876 12.1145 21.105 13.8452C16.5131 14.8597 24.9022 14.979 24.8727 15.4565C24.8433 15.9339 24.8727 18.8879 27.1981 18.4702C30.2005 17.9331 27.934 13.8452 30.0828 13.875C32.2315 13.9048 34.8512 14.6806 35.0573 10.6226C35.2633 6.56452 36.2053 2.20806 34.6746 2.3871C33.144 2.56613 25.3143 1.19355 22.1353 1.85Z" fill="#1D1D1D"/>
<path id="Vector_2" opacity="0.08" d="M3.64999 21.5734C3.64999 21.5734 -0.500368 29.6597 2.97298 34.225C3.2379 34.5831 18.8385 33.8669 16.4837 33.5984C12.4511 33.1508 10.8616 24.6468 15.895 23.2444C20.9284 21.8419 13.7463 22.2597 12.7455 22.2597C11.7447 22.2597 12.1862 18.2016 10.9793 17.6347C9.7725 17.0677 7.47656 17.2169 7.38826 20.4992C7.29995 23.7815 6.29915 21.1855 3.64999 21.5734Z" fill="#1D1D1D"/>
<path id="Vector_3" d="M16.837 15.9637C16.9543 15.2237 17.0134 14.4753 17.0136 13.7258V13.0395C17.0136 12.9798 16.9842 12.8903 17.0136 12.8306C17.0339 12.7629 17.072 12.7021 17.1239 12.6548C17.1758 12.6074 17.2394 12.5754 17.308 12.5621H18.3677L19.133 12.6218C19.7894 12.6586 20.447 12.5778 21.0757 12.3831C21.4285 12.2641 21.7574 12.0822 22.0471 11.846C22.3525 11.612 22.5953 11.3042 22.7535 10.9508C22.9196 10.605 23.0194 10.2303 23.0478 9.84677V9.45887C23.0527 9.28924 23.0429 9.1195 23.0184 8.95161C22.9779 8.24956 22.8082 7.56138 22.518 6.92258C22.3034 6.45262 22.0039 6.02755 21.635 5.66935C21.2502 5.33755 20.8121 5.07514 20.3398 4.89355C19.8887 4.70458 19.4127 4.58393 18.9269 4.53548L18.5737 4.47581H17.8967C17.9187 4.40851 17.9286 4.33778 17.9261 4.26693C17.9261 4.29677 17.9261 4.2371 17.8967 4.20726V3.87903C17.8673 3.75968 17.8673 3.64032 17.8378 3.49113C17.8326 3.36979 17.8129 3.24954 17.779 3.13306L17.7201 2.92419V2.74516C17.5443 2.19159 17.2532 1.68279 16.8665 1.25323C16.6373 1.04696 16.3794 0.876037 16.1011 0.745968L15.3653 0.44758C14.7858 0.285365 14.1956 0.1657 13.5992 0.089516C13.0222 0.0288883 12.4425 -0.000991479 11.8625 -1.52053e-07C10.7406 -0.00478841 9.61971 0.0649849 8.50688 0.208871L5.0924 0.656451L4.29765 0.775806H4.0916L3.73838 0.865322L3.38516 0.984677L3.20855 1.07419H3.12024L3.06137 1.13387C2.67483 1.38175 2.35197 1.71926 2.11945 2.11855C1.92285 2.45362 1.77419 2.81529 1.67792 3.19274C1.64695 3.28955 1.6272 3.38969 1.61905 3.49113C1.58961 3.58064 1.58961 3.67016 1.56018 3.75968V3.90887C1.53638 3.95469 1.52616 4.0065 1.53074 4.05806V4.17742V4.2371L1.44244 5.07258C1.38241 5.6674 1.35293 6.26498 1.35413 6.8629C1.3247 9.01129 1.44244 11.1597 1.26583 13.3081C1.17297 14.0254 1.2129 14.754 1.38357 15.4565C1.49097 16.0268 1.51082 16.6106 1.44244 17.1871C1.44244 17.6048 1.3247 18.0524 1.67792 18.4702C2.03114 18.8879 2.44323 18.4702 2.53154 18.2315C2.61984 17.9927 2.73758 17.7839 2.70815 17.5452C2.50189 16.6953 2.47182 15.8114 2.61984 14.9492C2.73758 14.5315 2.61984 14.054 2.61984 13.6065C2.59041 12.6218 2.88476 11.6371 2.73758 10.6524C2.57646 9.69639 2.54675 8.72235 2.64928 7.75806C2.73758 6.92258 2.76702 6.0871 2.79645 5.28145V4.65484C2.82091 4.44694 2.83074 4.23754 2.82589 4.02823C2.82652 3.83578 2.85631 3.64457 2.9142 3.46129C2.95976 3.274 3.02901 3.09348 3.12024 2.92419C3.22355 2.73766 3.35238 2.56688 3.5029 2.41694C3.64397 2.27862 3.8155 2.17634 4.0033 2.11855L4.26821 2.05887H4.62143L5.26901 1.93952L7.88874 1.64113C9.21332 1.52177 10.5085 1.40242 11.8036 1.40242C12.4433 1.39663 13.0827 1.43652 13.7169 1.52177C14.0359 1.54983 14.3514 1.6098 14.6588 1.70081C14.9437 1.76873 15.2201 1.86882 15.483 1.99919L15.8657 2.29758L16.0128 2.47661H16.0423V2.53629L16.1011 2.62581C16.2572 2.9462 16.3663 3.28798 16.4249 3.64032V3.90887C16.4477 4.00657 16.4576 4.10691 16.4544 4.20726V4.68468C16.4544 4.77419 16.4249 4.86371 16.4249 4.95323V5.1621C16.4406 5.2328 16.4603 5.30253 16.4838 5.37097C16.5132 5.43064 16.5132 5.49032 16.5427 5.55V5.60968L16.631 5.66935L16.8076 5.72903C16.9365 5.79004 17.0774 5.82064 17.2197 5.81855H18.4265C18.6164 5.81919 18.805 5.84938 18.9858 5.90806C19.3438 5.9633 19.6912 6.074 20.016 6.23629C20.3316 6.3834 20.6125 6.59702 20.8402 6.8629C21.058 7.11774 21.2276 7.41108 21.3406 7.72822C21.5131 8.3186 21.5926 8.93288 21.5761 9.54839C21.5761 9.6379 21.5467 9.69758 21.5467 9.75726V9.96613C21.5172 10.0258 21.5172 10.0855 21.4878 10.1452C21.4751 10.1943 21.4652 10.2441 21.4583 10.2944C21.375 10.4934 21.2434 10.6679 21.0757 10.8016C20.6273 11.1267 20.0957 11.3132 19.5451 11.3387H17.985L17.4846 11.279H16.9253L16.6604 11.3387L16.4249 11.4581C16.268 11.5521 16.1285 11.6733 16.0128 11.8161C15.9034 11.9514 15.8142 12.1022 15.7479 12.2637L15.6891 12.4427C15.6763 12.4918 15.6665 12.5417 15.6596 12.5919V14.4121C15.6596 14.9194 15.6891 15.4266 15.7185 15.9637C15.7479 16.5008 15.8068 16.7097 16.4838 17.0081C16.6448 16.6765 16.7635 16.3256 16.837 15.9637Z" fill="#1D1D1D"/>
<path id="Vector_4" d="M20.3101 16.9484C21.0196 17.077 21.7383 17.1469 22.4589 17.1573H23.1359L23.3125 17.2468C23.3706 17.2804 23.4197 17.3279 23.4556 17.3851C23.4914 17.4423 23.5131 17.5074 23.5186 17.575C23.5447 17.6413 23.5548 17.7129 23.548 17.7839C23.5244 17.8403 23.5143 17.9017 23.5186 17.9629V18.0226V18.6194C23.517 18.8729 23.5567 19.125 23.6363 19.3653C23.7418 19.7241 23.946 20.045 24.225 20.2903C24.4863 20.5497 24.7967 20.7527 25.1375 20.8871C25.4533 20.9803 25.78 21.0304 26.1089 21.0363H27.0508C27.7178 21.013 28.3713 20.8397 28.9641 20.529C29.2742 20.3467 29.5609 20.1262 29.8177 19.8726C30.0569 19.6057 30.2554 19.3039 30.4064 18.9774C30.6323 18.5434 30.7628 18.065 30.7891 17.575C30.8233 17.3378 30.843 17.0986 30.8479 16.8589V16.0532H31.5544C31.9967 16.0625 32.4392 16.0426 32.879 15.9935C33.3503 15.971 33.8162 15.8806 34.2624 15.725C34.5357 15.6504 34.7944 15.5293 35.0277 15.3669L35.2043 15.2177L35.3221 15.1282C35.3515 15.1282 35.3515 15.0984 35.381 15.0685L35.5281 14.8895C35.587 14.8298 35.6164 14.7702 35.6753 14.7403C35.9565 14.3175 36.1747 13.855 36.3229 13.3677C36.4981 12.8211 36.6358 12.2627 36.735 11.6968C36.8233 11.1298 36.8821 10.5927 36.941 10.0258C37.0244 8.94363 37.0342 7.85693 36.9705 6.77339L36.8821 5.04274L36.8233 4.20726C36.7938 3.90887 36.7938 3.64032 36.7644 3.3121V3.13306C36.735 3.01371 36.735 2.89435 36.7055 2.775C36.6761 2.65564 36.6172 2.56613 36.5878 2.44677C36.557 2.33909 36.5071 2.23798 36.4406 2.14839C36.2461 1.77536 35.9628 1.45742 35.6164 1.22339C35.3081 1.0073 34.9712 0.836519 34.6156 0.716129L34.3507 0.626612L34.0858 0.566935H32.7318L31.937 0.507258L30.3181 0.387903C28.2871 0.387903 26.2561 0.507258 24.225 0.358064C23.5382 0.269001 22.8414 0.299273 22.1646 0.44758C21.6333 0.566434 21.0865 0.596669 20.5456 0.537096C20.1335 0.537096 19.7509 0.387903 19.3388 0.775806C18.9267 1.16371 19.3388 1.55161 19.5743 1.64113C19.8098 1.73064 19.9864 1.85 20.1924 1.79032C20.9815 1.59072 21.8016 1.55017 22.6061 1.67097C23.0182 1.76048 23.4597 1.64113 23.9012 1.64113C24.8137 1.61129 25.7557 1.90968 26.6976 1.76048C27.601 1.59687 28.5231 1.56672 29.435 1.67097L31.7899 1.79032L32.9673 1.85H33.5265L34.0858 1.96935C34.273 2.00735 34.4523 2.07802 34.6156 2.17823C34.7882 2.26272 34.947 2.3734 35.0866 2.50645C35.2207 2.64565 35.3302 2.80713 35.4104 2.98387C35.4705 3.14598 35.5004 3.31797 35.4987 3.49113C35.5576 4.32661 35.587 5.22177 35.6164 6.0871C35.6459 6.95242 35.6459 8.62339 35.5576 9.87661C35.4987 10.5032 35.4398 11.1298 35.3221 11.7565C35.226 12.346 35.0476 12.9187 34.7922 13.4573C34.726 13.6188 34.6367 13.7696 34.5273 13.9048C34.4531 14.0181 34.3519 14.1105 34.233 14.1734C34.1193 14.2665 33.9896 14.3373 33.8503 14.3823L33.3499 14.5016C32.9809 14.5724 32.6068 14.6123 32.2314 14.621H30.0532L29.7 14.7105L29.5822 14.7702H29.5528C29.5234 14.7702 29.5234 14.7702 29.5234 14.8C29.5063 14.8153 29.4958 14.8367 29.4939 14.8597C29.4472 14.974 29.4175 15.0946 29.4056 15.2177C29.3761 15.3554 29.3761 15.4978 29.4056 15.6355C29.4125 15.796 29.4322 15.9556 29.4645 16.1129C29.4615 16.1936 29.4714 16.2742 29.4939 16.3516V16.5605C29.5191 16.9196 29.4993 17.2806 29.435 17.6347C29.3762 17.949 29.2668 18.2514 29.1113 18.5298C28.8103 18.9217 28.4001 19.2128 27.9339 19.3653C27.3881 19.5181 26.8212 19.5786 26.2561 19.5444C25.9957 19.5554 25.7357 19.5149 25.4907 19.425C25.3019 19.3862 25.1282 19.2929 24.9903 19.1564C24.8818 19.0182 24.8108 18.8536 24.7843 18.679C24.7583 18.5717 24.7484 18.4611 24.7549 18.3508V18.1718C24.7655 18.1597 24.7736 18.1455 24.7787 18.1301C24.7837 18.1147 24.7856 18.0984 24.7843 18.0823C24.7843 17.9927 24.8137 17.9032 24.8137 17.8435V17.6645C24.8417 17.6203 24.8522 17.567 24.8432 17.5153V17.3661C24.8432 17.3064 24.8137 17.2766 24.8137 17.2169C24.7864 17.0193 24.7267 16.8277 24.6371 16.65C24.543 16.4661 24.4127 16.3037 24.2545 16.1726C24.1144 16.0261 23.9433 15.9138 23.7541 15.8444L23.4303 15.8145H20.3101C19.9569 15.8145 19.6037 15.904 19.3094 16.5903C19.6262 16.7532 19.9626 16.8736 20.3101 16.9484Z" fill="#1D1D1D"/>
<path id="Vector_5" d="M16.1599 20.171L15.218 20.3202H14.7764L14.3349 20.3798H13.9817C13.8659 20.4102 13.7443 20.4102 13.6285 20.3798L13.4813 20.3202C13.4583 20.2971 13.441 20.2689 13.4308 20.2378C13.4206 20.2067 13.4177 20.1736 13.4224 20.1411V19.4847C13.4273 19.315 13.4175 19.1453 13.393 18.9774C13.3728 18.6257 13.3236 18.2764 13.2458 17.9331C13.1926 17.6023 13.0935 17.2808 12.9515 16.9782C12.8076 16.649 12.597 16.3542 12.3333 16.1129C12.0628 15.858 11.7417 15.6647 11.3914 15.546C11.0515 15.4193 10.6937 15.3488 10.3317 15.3371C10.0166 15.3272 9.70127 15.3472 9.38981 15.3968C9.05179 15.4274 8.71697 15.4873 8.38902 15.5758C8.05908 15.661 7.74218 15.7915 7.44709 15.9637C7.12734 16.131 6.83855 16.3531 6.59347 16.6202C6.22084 16.9806 5.94698 17.433 5.79872 17.9331C5.63523 18.3958 5.52654 18.8766 5.47494 19.3653V19.604C5.47494 19.6637 5.4455 19.6935 5.4455 19.7234V20.0815H5.41607L5.21002 19.9919L5.06285 19.9323H4.88623L3.91487 19.6935C3.55329 19.6529 3.18899 19.6429 2.82577 19.6637L2.1782 19.8427C1.94889 19.9429 1.73944 20.0844 1.56006 20.2605C1.31769 20.491 1.11827 20.7639 0.971359 21.0661C0.834189 21.3358 0.716149 21.615 0.618137 21.9016C0.454376 22.4494 0.326545 23.0076 0.23548 23.5726C0.145992 24.1258 0.0870299 24.6837 0.0588686 25.2435C-0.0293885 26.3458 -0.0293885 27.4534 0.0588686 28.5556C0.117739 29.6895 0.176609 30.8234 0.264915 31.9573C0.29435 32.2258 0.29435 32.5242 0.323785 32.8226V33.0315V33.121C0.341456 33.3652 0.390944 33.606 0.470961 33.8371C0.641017 34.2749 0.913811 34.6641 1.26571 34.971C1.57821 35.2203 1.92538 35.4214 2.29594 35.5677C2.6486 35.6899 3.01409 35.77 3.38504 35.8065L3.856 35.8661H4.2681L5.91647 35.9556C7.97693 35.9855 10.0668 35.8661 12.1273 36.0452C12.8251 36.1398 13.5343 36.0993 14.2172 35.9258C14.76 35.8168 15.3165 35.7967 15.8655 35.8661C16.2776 35.8661 16.6897 35.9855 17.0724 35.6274C17.455 35.2694 17.1018 34.8516 16.8663 34.7621C16.6638 34.661 16.4439 34.6002 16.2188 34.5831C15.4004 34.7917 14.5477 34.8222 13.7168 34.6726C13.3047 34.5532 12.8632 34.6726 12.4216 34.6726C11.4797 34.7024 10.5378 34.404 9.56643 34.5532C8.65311 34.7172 7.72129 34.7474 6.79952 34.6427C5.97534 34.5532 5.18059 34.5234 4.38584 34.4935H3.79713C3.60874 34.5051 3.41975 34.485 3.23787 34.4339H2.94351C2.85131 34.4175 2.76203 34.3874 2.6786 34.3444C2.5004 34.2786 2.33201 34.1882 2.1782 34.0758C2.01773 33.9693 1.88199 33.8288 1.78035 33.664C1.6787 33.4991 1.61359 33.3138 1.5895 33.121C1.56006 33.0911 1.5895 33.0315 1.5895 33.0016V32.5242C1.56006 32.2855 1.56006 32.0766 1.53063 31.8677C1.47176 31.0024 1.44232 30.1073 1.41289 29.2419C1.38345 28.3766 1.35402 26.646 1.44232 25.3629C1.46194 24.7462 1.52081 24.1196 1.61893 23.4831C1.70624 22.8819 1.88497 22.2981 2.14877 21.7524C2.19974 21.6326 2.2693 21.5218 2.35481 21.4242C2.40721 21.3316 2.47725 21.2504 2.56086 21.1855L2.73747 21.0661L3.03182 21.0065H3.7677L4.56245 21.1855H4.82736L5.18059 21.3048L5.82816 21.5734H6.62291L6.68178 21.5137C6.71122 21.4839 6.71122 21.4242 6.74065 21.3645L6.82896 21.0363C6.86665 20.88 6.88641 20.7198 6.88783 20.5589C6.88783 20.4097 6.85839 20.2008 6.85839 20.0218C6.82862 19.854 6.82862 19.6823 6.85839 19.5145V19.3056C6.90737 18.9163 7.00633 18.5351 7.15274 18.1718C7.29094 17.8562 7.50315 17.5796 7.77088 17.3661C8.25194 17.0314 8.80901 16.826 9.38981 16.7694H10.3612C10.6157 16.7796 10.8657 16.8404 11.0971 16.9484L11.3914 17.1274C11.4842 17.2029 11.5638 17.2937 11.6269 17.396L11.8329 17.7242C11.8918 17.8436 11.9212 17.9927 11.9801 18.1121C12.039 18.2315 12.0684 18.4105 12.0978 18.5597C12.1273 18.7089 12.1273 18.8879 12.1567 19.0371V19.9323C12.1567 20.1113 12.1273 20.2903 12.1273 20.4694V20.7379H12.1567V20.9468L12.2156 21.0661V21.3048L12.4216 21.5435C12.5627 21.6819 12.7342 21.7841 12.922 21.8419C13.1326 21.9029 13.3506 21.9331 13.5696 21.9315L14.3055 21.8419L14.4821 21.7823H14.9531L15.1002 21.7226H15.5418L15.7184 21.6629L16.4543 21.454C16.8075 21.3347 17.1018 21.1556 17.2196 20.4395C16.8774 20.3099 16.522 20.2198 16.1599 20.171Z" fill="#1D1D1D"/>
<path id="Vector_6" d="M19.8393 21.4839C19.7804 21.7524 19.751 21.9911 19.6921 22.2597C19.6333 22.5282 19.6627 22.4984 19.6627 22.6177V22.946C19.6613 23.0518 19.6307 23.1552 19.5744 23.2444C19.5427 23.3335 19.4799 23.4078 19.3978 23.4532C19.3204 23.5095 19.2281 23.5407 19.1329 23.5427H17.5728C17.1318 23.5774 16.6967 23.6676 16.2777 23.8113C15.9613 23.9321 15.6713 24.1146 15.424 24.3484C15.1604 24.5897 14.9498 24.8845 14.8059 25.2137C14.6726 25.5259 14.593 25.859 14.5704 26.1984C14.541 26.516 14.541 26.8356 14.5704 27.1532C14.5909 27.8004 14.7307 28.438 14.9825 29.0331C15.1087 29.353 15.277 29.6541 15.4829 29.9282C15.6908 30.2036 15.9389 30.4451 16.2188 30.6444C16.6018 30.9329 17.0296 31.1547 17.4845 31.3008C17.9141 31.4377 18.3593 31.518 18.8091 31.5395H19.4272V31.6589C19.4011 31.7251 19.391 31.7967 19.3978 31.8677V32.4048C19.3978 32.6435 19.4272 32.8524 19.4272 33.0911C19.4855 33.569 19.594 34.0391 19.751 34.4935C19.8435 34.7499 19.9724 34.9911 20.1337 35.2097L20.2808 35.3887L20.428 35.5677L20.6046 35.7169L20.7812 35.8363C21.1971 36.1094 21.6546 36.311 22.1353 36.4331C22.6628 36.5967 23.2051 36.7067 23.7542 36.7613C24.2816 36.8296 24.8121 36.8695 25.3437 36.8806C26.3942 36.9407 27.4478 36.9108 28.4933 36.7911L31.7017 36.4629L32.1138 36.4032L32.4964 36.3435H32.6436L32.9968 36.2839L33.3206 36.1944L33.6444 36.0452C34.002 35.8208 34.3122 35.5266 34.5569 35.1798C34.7758 34.8708 34.9447 34.5283 35.0573 34.1653C35.157 33.8242 35.226 33.4747 35.2633 33.121V32.2556C35.2928 31.7484 35.3222 31.2113 35.3222 30.6742C35.2928 28.6452 35.0867 26.646 35.2045 24.6468C35.2644 23.9652 35.2046 23.2782 35.0279 22.6177C34.8512 22.0806 34.9101 21.5435 34.8807 21.0065C34.8512 20.4694 34.9984 20.2008 34.6158 19.8427C34.2331 19.4847 33.8799 19.8427 33.7916 20.0815C33.7033 20.3202 33.5855 20.4992 33.6444 20.7081C33.8551 21.4952 33.9051 22.3176 33.7916 23.125C33.7033 23.5129 33.821 23.9605 33.8505 24.3782C33.9093 25.3032 33.6444 26.2282 33.821 27.1532C33.9822 28.0384 34.0414 28.9396 33.9976 29.8387C33.9388 30.6145 33.9388 31.3903 33.9388 32.1661V33.121C33.9388 33.2105 33.9093 33.3 33.9093 33.3895C33.8677 33.7595 33.7472 34.1159 33.5561 34.4339C33.5179 34.5198 33.4684 34.6001 33.4089 34.6726L33.2029 34.8516C33.0787 34.9905 32.9135 35.0847 32.7319 35.1202H32.1432L31.5251 35.1798C30.7009 35.2992 29.8767 35.3589 29.082 35.4185C28.2872 35.4782 26.6388 35.5379 25.4026 35.5081C24.802 35.5129 24.2018 35.473 23.607 35.3887C23.0419 35.307 22.4884 35.1567 21.9586 34.9411C21.6727 34.8277 21.4196 34.643 21.2228 34.404C21.0652 34.1373 20.9555 33.8443 20.899 33.5387C20.8191 33.1958 20.7699 32.8462 20.7518 32.4944V31.0323C20.7579 30.8923 20.748 30.7522 20.7224 30.6145C20.7012 30.5087 20.6613 30.4076 20.6046 30.3161V30.2565H20.5458L20.3691 30.1968L20.0159 30.1371H18.5442C17.9018 30.0819 17.2934 29.8206 16.8075 29.3911C16.6081 29.1777 16.4396 28.9365 16.3071 28.675C16.1839 28.3988 16.0949 28.1081 16.0422 27.8097C15.981 27.4852 15.9514 27.1554 15.9539 26.825C15.9244 26.7653 15.9539 26.6758 15.9539 26.5863V26.3476C15.9569 26.2064 15.9767 26.0662 16.0127 25.9298C16.0341 25.8147 16.0738 25.7038 16.1305 25.6016C16.1747 25.4953 16.2458 25.4027 16.3365 25.3331C16.4034 25.232 16.4946 25.1498 16.6014 25.0944L16.9547 24.9452C17.2318 24.8589 17.5187 24.8088 17.8083 24.796H19.2212C19.4427 24.7999 19.6628 24.7593 19.8687 24.6766C20.0624 24.5854 20.2411 24.4646 20.3986 24.3185C20.5675 24.1739 20.6989 23.9895 20.7812 23.7815C20.8973 23.5827 20.9583 23.3559 20.9579 23.125V21.5137C20.9579 21.1556 20.8695 20.8274 20.222 20.4992C20.0462 20.806 19.9172 21.138 19.8393 21.4839Z" fill="#1D1D1D"/>
</g>
</g>
<defs>
<clipPath id="clip0_87_3525">
<rect width="37" height="37" fill="white"/>
</clipPath>
</defs>
</svg>
