<svg width="20" height="21" viewBox="0 0 20 21" fill="none" xmlns="http://www.w3.org/2000/svg">
<path fill-rule="evenodd" clip-rule="evenodd" d="M0.87868 1.37868C1.44129 0.81607 2.20435 0.5 3 0.5H17C17.7957 0.5 18.5587 0.81607 19.1213 1.37868C19.6839 1.94129 20 2.70435 20 3.5V13.5C20 14.2957 19.6839 15.0587 19.1213 15.6213C18.5587 16.1839 17.7957 16.5 17 16.5H13.5308L13.903 17.9888L14.7071 18.7929C14.9931 19.0789 15.0787 19.509 14.9239 19.8827C14.7691 20.2564 14.4045 20.5 14 20.5H6C5.59554 20.5 5.2309 20.2564 5.07612 19.8827C4.92134 19.509 5.0069 19.0789 5.29289 18.7929L6.09704 17.9888L6.46922 16.5H3C2.20435 16.5 1.44129 16.1839 0.87868 15.6213C0.31607 15.0587 0 14.2956 0 13.5V3.5C0 2.70435 0.31607 1.94129 0.87868 1.37868ZM2 12.5V13.5C2 13.7652 2.10536 14.0196 2.29289 14.2071C2.48043 14.3946 2.73478 14.5 3 14.5H7.72757C7.74198 14.4997 7.75643 14.4997 7.77092 14.5H12.2291C12.2436 14.4997 12.258 14.4997 12.2724 14.5H17C17.2652 14.5 17.5196 14.3946 17.7071 14.2071C17.8946 14.0196 18 13.7652 18 13.5V12.5H2ZM18 10.5H2V3.5C2 3.23478 2.10536 2.98043 2.29289 2.79289C2.48043 2.60536 2.73478 2.5 3 2.5H17C17.2652 2.5 17.5196 2.60536 17.7071 2.79289C17.8946 2.98043 18 3.23478 18 3.5V10.5ZM11.4692 16.5H8.53078L8.03078 18.5H11.9692L11.4692 16.5Z" fill="#FF764A"/>
</svg>
