<svg width="19" height="20" viewBox="0 0 19 20" fill="none" xmlns="http://www.w3.org/2000/svg">
<g id="Localization">
<path id="Vector" d="M18.8849 6.37306C18.8949 5.15306 18.9049 3.92306 18.9049 2.70306C18.9049 2.24306 18.8949 1.73306 18.6049 1.37306C18.2149 0.893062 17.5049 0.873062 16.8949 0.883061C14.2449 0.913061 11.5849 0.763062 8.9349 0.763062C7.1249 0.763062 5.3249 0.833062 3.5149 0.903062C3.0349 0.923062 2.5549 0.943062 2.0849 0.983062C1.7949 1.01306 1.5049 1.04306 1.2449 1.18306C0.824898 1.40306 0.564898 1.84306 0.464898 2.30306C0.284898 3.06306 0.314898 3.98306 0.294898 4.77306L0.194898 7.76306C0.134898 9.73306 0.064898 11.6931 0.00489796 13.6631C-0.015102 14.2931 0.00489798 15.0131 0.484898 15.4231C0.854898 15.7331 1.3849 15.7531 1.8649 15.7631C3.4549 15.7831 5.0349 15.8031 6.6249 15.8231C5.9349 16.4931 5.3749 17.2931 4.9949 18.1631C4.9349 18.3031 4.8749 18.4531 4.9049 18.6131C4.9249 18.7531 5.0249 18.8731 5.1449 18.9631C5.4749 19.2131 5.9549 19.2331 6.3549 19.2331C8.6249 19.2431 10.8949 19.2331 13.1749 19.2131C13.5749 19.2131 14.0149 19.1931 14.3149 18.9331C14.7549 18.5631 14.7149 17.8731 14.5149 17.3331C14.2949 16.7331 13.9149 16.1931 13.4349 15.7731C14.2849 15.7831 15.1249 15.7731 15.9749 15.7131C16.4649 15.6831 17.0349 15.7631 17.4849 15.5431C17.9349 15.3231 18.2149 14.4431 17.6349 14.2031C17.4949 14.1431 17.3449 14.1631 17.2049 14.1731C16.5949 14.2331 15.9849 14.2331 15.3749 14.1931C14.8849 14.1531 14.3849 14.0831 13.8849 14.1031C13.4449 14.1231 13.0249 14.2131 12.5849 14.2631C11.5749 14.4031 10.5449 14.3831 9.5249 14.3631C7.0149 14.3031 4.5049 14.1931 1.9949 14.0831C1.9149 14.0831 1.8249 14.0731 1.7749 14.0131C1.7049 13.9531 1.7049 13.8531 1.7049 13.7531C1.7049 13.2031 1.7149 12.6631 1.7249 12.1131C1.8949 12.2331 2.1149 12.2431 2.3149 12.2431C7.2049 12.2431 12.1049 12.2631 16.9949 12.2731C17.0649 12.2731 17.0249 12.9931 17.0249 13.0631C17.0249 13.4231 17.0449 13.8431 17.3949 14.0531C18.3049 14.6031 18.6749 13.1331 18.7049 12.5631C18.8249 10.5031 18.8849 8.43306 18.9049 6.36306L18.8849 6.37306ZM6.8949 17.5731C6.8949 17.5731 6.9149 17.5131 6.9449 17.4831C6.9649 17.4531 8.1549 16.2031 8.3149 15.9631C8.3149 15.9531 8.3349 15.9331 8.3349 15.9131C8.6449 15.9331 8.9549 15.9431 9.2549 15.9431C9.8949 15.9431 11.7049 15.9631 11.9749 15.9231C12.2649 16.0631 13.1849 17.3731 13.2749 17.4931C13.3249 17.5531 13.3349 17.6231 13.3049 17.6631C13.2749 17.7031 13.2149 17.6931 13.1649 17.7031C12.9649 17.7031 12.8249 17.7331 12.6549 17.7731C12.4849 17.8131 12.3049 17.8631 12.0849 17.8731C11.5849 17.9031 11.0749 17.8531 10.5749 17.8131C9.8249 17.7631 9.0749 17.8331 8.3249 17.7331C8.1849 17.7131 8.0349 17.7031 7.8949 17.7031H7.6849C7.6849 17.7031 7.0349 17.6931 6.9849 17.6731C6.9549 17.6731 6.9349 17.6531 6.9249 17.6431C6.9149 17.6231 6.9049 17.6131 6.9249 17.5731H6.8949ZM17.1749 6.61306C17.0249 8.10306 17.2349 9.57306 17.1349 11.0531C16.5849 10.9331 16.0649 11.0931 15.5149 11.0131C14.7149 10.9031 13.9549 11.1331 13.1649 11.0831C12.0549 11.0131 10.9649 11.1131 9.8749 11.1131C9.1849 11.1131 8.4949 11.0431 7.8149 11.1131C7.1049 11.1831 6.3949 11.0231 5.6949 11.0331C5.3449 11.0331 5.0049 10.9531 4.6549 10.9831C4.3249 11.0131 4.0049 11.0831 3.6749 11.1131C3.3549 11.1531 2.3449 10.9931 2.0949 11.1231C1.9249 11.2031 1.7949 11.1631 1.6849 11.1131C1.6849 10.4131 1.6949 9.72306 1.7749 9.02306C1.9749 7.13306 1.6949 5.25306 2.0249 3.36306C2.0749 3.07306 2.0749 2.77306 2.0649 2.48306V2.42306C2.1549 2.42306 2.2449 2.42306 2.3349 2.42306C2.6049 2.42306 2.8449 2.47306 3.0749 2.59306C3.3049 2.71306 3.5949 2.59306 3.8449 2.56306C4.4049 2.52306 4.9149 2.85306 5.4749 2.61306C6.0149 2.38306 6.5349 2.32306 7.0549 2.36306C7.9449 2.44306 8.8449 2.29306 9.7349 2.31306C10.6949 2.33306 11.6649 2.41306 12.6249 2.48306C13.3449 2.53306 14.0649 2.53306 14.7849 2.54306C15.1449 2.54306 15.5049 2.54306 15.8649 2.56306L16.4049 2.58306H16.4749H16.5149H16.5949C16.5949 2.58306 16.6949 2.60306 16.7349 2.61306C16.8549 2.63306 16.9549 2.64306 17.0549 2.66306C17.1049 2.67306 17.1449 2.72306 17.1649 2.78306C17.1649 2.84306 17.1649 2.90306 17.1649 2.95306C17.1649 3.06306 17.1649 3.17306 17.1649 3.28306V3.36306V3.53306V3.87306C17.2149 4.78306 17.2349 5.69306 17.1449 6.61306H17.1749Z" fill="#F1C40F"/>
<path id="Vector_2" d="M8.84479 13.3931C8.96479 13.7931 9.00479 14.1531 9.60479 14.1531C10.0248 14.1531 10.3648 13.9531 10.3648 13.3931C10.3648 12.9731 10.2248 12.6331 9.60479 12.6331C9.18479 12.6331 8.71479 12.9331 8.84479 13.3931Z" fill="#F1C40F"/>
</g>
</svg>
