<svg width="110" height="31" viewBox="0 0 110 31" fill="none" xmlns="http://www.w3.org/2000/svg">
<path d="M33.753 21.6282C32.4852 20.2865 31.8513 18.2316 31.8513 15.4637C31.8513 12.6958 32.5135 10.6488 33.8378 9.32268C35.1651 7.99032 37.1516 7.32414 39.7973 7.32414H42.1856C43.6875 7.29339 45.1686 7.69752 46.4666 8.4923C47.7344 9.28515 48.3683 10.2703 48.3683 11.4573C48.3821 11.6338 48.3552 11.8113 48.2899 11.9746C48.2247 12.1379 48.1229 12.2823 47.9933 12.3955C47.7851 12.5683 47.5306 12.6684 47.2656 12.6817H45.9755C45.6558 12.6678 45.347 12.556 45.0868 12.3602C44.8267 12.1643 44.6267 11.8929 44.5113 11.5792C44.1453 10.8443 43.245 10.4768 41.8106 10.4768H39.9044C38.342 10.4768 37.2811 10.8286 36.7216 11.5323C36.168 12.236 35.8868 13.5356 35.8868 15.4262C35.8868 17.3168 36.1368 18.6257 36.6368 19.3482C37.1367 20.0707 38.0295 20.4366 39.3152 20.4366H41.5115C42.6573 20.4366 43.4786 20.2052 43.9756 19.7423C44.2298 19.4878 44.429 19.1789 44.5599 18.8366C44.6909 18.4942 44.7504 18.1264 44.7345 17.7578H42.3686C42.2172 17.7629 42.0665 17.7341 41.9265 17.6735C41.7864 17.6128 41.6602 17.5216 41.5561 17.406C41.4687 17.3108 41.4 17.1984 41.354 17.0752C41.3081 16.952 41.2857 16.8205 41.2883 16.6882V15.8719C41.2818 15.6192 41.3591 15.3721 41.507 15.1729C41.6004 15.0466 41.7203 14.9449 41.8574 14.8757C41.9945 14.8065 42.1451 14.7717 42.2972 14.7741H47.6228C47.7694 14.7711 47.9151 14.7995 48.0509 14.8575C48.1867 14.9156 48.3099 15.0022 48.4129 15.1119C48.5883 15.305 48.6845 15.5627 48.6807 15.8297V17.0776C48.6807 19.1793 48.0855 20.7947 46.8951 21.9238C45.7047 23.0528 43.9459 23.6174 41.6186 23.6174H39.2081C36.8391 23.6174 35.0208 22.9543 33.753 21.6282Z" fill="black"/>
<path d="M50.6762 22.8432V8.0887C50.6731 7.99683 50.6879 7.90528 50.7197 7.81963C50.7515 7.73399 50.7996 7.65607 50.861 7.59063C50.9224 7.52519 50.9959 7.47362 51.077 7.43907C51.158 7.40452 51.2449 7.38771 51.3324 7.38968H53.7296C53.8973 7.3907 54.0578 7.46155 54.176 7.58672C54.2375 7.65302 54.2858 7.73159 54.318 7.8178C54.3502 7.90401 54.3657 7.99612 54.3635 8.0887V22.8432C54.3606 23.019 54.2935 23.187 54.176 23.3123C54.0578 23.4375 53.8973 23.5083 53.7296 23.5093H51.3324C51.2461 23.5112 51.1603 23.4948 51.0802 23.4612C51 23.4275 50.9272 23.3772 50.8659 23.3132C50.8047 23.2493 50.7563 23.1731 50.7237 23.0891C50.6911 23.0051 50.675 22.9151 50.6762 22.8244V22.8432Z" fill="black"/>
<path d="M58.0241 22.1349C56.914 21.0527 56.3575 19.4592 56.3545 17.3544C56.3515 15.2495 56.908 13.6591 58.0241 12.5832C59.1401 11.5073 60.7412 10.9694 62.8274 10.9694C64.9136 10.9694 66.5147 11.5073 67.6307 12.5832C68.7467 13.6622 69.3032 15.2526 69.3002 17.3544C69.2972 19.4561 68.7407 21.0496 67.6307 22.1349C66.5176 23.2139 64.9165 23.7534 62.8274 23.7534C60.7382 23.7534 59.1371 23.2139 58.0241 22.1349ZM60.7516 14.4363C60.3082 15.0431 60.0864 16.0142 60.0864 17.3497C60.0864 18.6852 60.3082 19.661 60.7516 20.2771C61.025 20.5697 61.3512 20.8022 61.711 20.9608C62.0709 21.1195 62.4572 21.2012 62.8475 21.2012C63.2377 21.2012 63.624 21.1195 63.9839 20.9608C64.3437 20.8022 64.6699 20.5697 64.9433 20.2771C65.3897 19.6516 65.6129 18.6758 65.6129 17.3497C65.6129 16.0236 65.3897 15.0524 64.9433 14.4363C64.6684 14.1465 64.3417 13.9166 63.9821 13.7597C63.6224 13.6028 63.2369 13.5221 62.8475 13.5221C62.4581 13.5221 62.0725 13.6028 61.7128 13.7597C61.3532 13.9166 61.0265 14.1465 60.7516 14.4363Z" fill="black"/>
<path d="M83.1074 23.0355C83.1074 23.3639 82.9199 23.5046 82.5494 23.5046H80.5272C80.1883 23.5034 79.8562 23.4044 79.5673 23.2182C79.2783 23.032 79.0436 22.7659 78.8889 22.449L77.5497 20.1033C77.2955 19.6329 76.9235 19.2447 76.4741 18.9809C76.0248 18.717 75.5152 18.5877 75.0007 18.6068V22.829C75.001 22.9165 74.9845 23.003 74.9523 23.0836C74.9201 23.1642 74.8728 23.2372 74.8133 23.2982C74.7545 23.3595 74.6849 23.4081 74.6083 23.4411C74.5317 23.4741 74.4496 23.4909 74.3669 23.4905H71.9116C71.825 23.4945 71.7386 23.4795 71.6578 23.4465C71.577 23.4135 71.5036 23.3632 71.4423 23.2988C71.381 23.2344 71.3332 23.1573 71.3017 23.0723C71.2703 22.9874 71.2561 22.8966 71.2599 22.8056V8.08866C71.2567 7.99594 71.2716 7.90352 71.3039 7.81716C71.3362 7.73079 71.385 7.65234 71.4474 7.58668C71.5655 7.46151 71.726 7.39066 71.8938 7.38964H74.2954C74.3823 7.38613 74.469 7.40186 74.5497 7.4358C74.6305 7.46974 74.7035 7.52115 74.7642 7.58668C74.8251 7.65321 74.8727 7.73193 74.9041 7.81816C74.9356 7.90439 74.9502 7.99637 74.9472 8.08866V16.064C76.1882 16.064 77.0378 15.5574 77.4961 14.544L78.5229 12.2499C78.6613 11.9336 78.8808 11.6639 79.1568 11.4712C79.4201 11.2829 79.731 11.1816 80.0496 11.1803H82.0762C82.4334 11.1803 82.6119 11.3257 82.6119 11.6166C82.597 11.8382 82.5377 12.0541 82.4378 12.2499L81.0584 15.3087C80.8273 15.8135 80.4989 16.2624 80.0942 16.627C79.7196 16.9768 79.2664 17.2206 78.7773 17.3354C79.7487 17.6937 80.5607 18.4151 81.0584 19.3621L82.8798 22.4584C82.999 22.6285 83.0772 22.8266 83.1074 23.0355Z" fill="black"/>
<path d="M85.3037 22.7166C84.8499 22.3971 84.4815 21.9607 84.2337 21.4491C83.986 20.9374 83.8672 20.3675 83.8886 19.7939C83.8633 19.2222 83.9805 18.6535 84.2288 18.1441C84.477 17.6348 84.8475 17.2024 85.3037 16.8899C86.3984 16.171 87.6747 15.8176 88.9642 15.8766H92.5087C92.5087 14.9993 92.3346 14.3847 91.9819 14.0422C91.6293 13.6998 91.0222 13.5215 90.1472 13.5215C89.2723 13.5215 88.6562 13.7514 88.3036 14.2017C88.1527 14.4143 87.9568 14.5869 87.7312 14.7058C87.5057 14.8248 87.2569 14.8867 87.0045 14.8867H85.4064C85.3194 14.8892 85.2327 14.8732 85.1518 14.8395C85.0708 14.8058 84.9972 14.7552 84.9354 14.6907C84.8736 14.6262 84.825 14.5492 84.7924 14.4643C84.7597 14.3795 84.7439 14.2885 84.7457 14.197C84.7457 12.0453 86.6906 10.9694 90.5802 10.9694C92.281 10.9694 93.6426 11.3681 94.6738 12.1657C95.705 12.9632 96.2139 14.2017 96.2139 15.8766V22.8433C96.2141 23.0189 96.1483 23.1875 96.0308 23.3124C95.9724 23.3742 95.9028 23.423 95.8261 23.4561C95.7495 23.4891 95.6673 23.5057 95.5844 23.5048H93.5176C93.43 23.5087 93.3425 23.4931 93.261 23.4592C93.1795 23.4252 93.1057 23.3736 93.0444 23.3077C92.9281 23.182 92.8626 23.0139 92.8614 22.8386V22.4867C91.7245 23.3394 90.3562 23.7837 88.9598 23.7534C87.6681 23.816 86.3901 23.4536 85.3037 22.7166ZM88.0268 18.8134C87.8846 18.9309 87.7703 19.0814 87.6929 19.2532C87.6154 19.4249 87.5769 19.6132 87.5804 19.8033C87.5769 19.9953 87.6153 20.1857 87.6927 20.3597C87.7701 20.5338 87.8844 20.6868 88.0268 20.8072C88.3934 21.0922 88.844 21.2318 89.2991 21.2013C90.4306 21.1917 91.5356 20.8399 92.4819 20.188V18.4287H89.1919C88.7726 18.409 88.3601 18.5452 88.0268 18.8134Z" fill="black"/>
<path d="M98.1733 14.591C98.1733 12.164 100.033 10.9521 103.753 10.9552C107.667 10.9552 109.624 12.0311 109.624 14.1829C109.626 14.2736 109.61 14.3639 109.579 14.4485C109.548 14.5331 109.501 14.6102 109.441 14.6755C109.382 14.7381 109.313 14.7878 109.236 14.8217C109.16 14.8555 109.077 14.8728 108.994 14.8725H107.396C107.144 14.8733 106.896 14.8116 106.671 14.6926C106.446 14.5736 106.251 14.4006 106.101 14.1876C105.753 13.7184 105.061 13.5073 104.035 13.5073C102.621 13.5073 101.914 13.8686 101.914 14.591C101.914 14.9288 102.191 15.2103 102.744 15.4355C103.402 15.6914 104.078 15.8891 104.767 16.0266C105.572 16.1977 106.367 16.4138 107.15 16.674C107.909 16.9152 108.601 17.3448 109.168 17.9266C109.442 18.2097 109.657 18.5492 109.8 18.9238C109.943 19.2984 110.01 19.7 109.999 20.1034C109.999 22.5273 108.036 23.7393 104.11 23.7393C100.185 23.7393 98.2209 22.6665 98.2179 20.521C98.2148 20.4283 98.2299 20.3359 98.2622 20.2496C98.2945 20.1633 98.3434 20.085 98.4058 20.0194C98.4682 19.9538 98.5428 19.9025 98.6249 19.8685C98.707 19.8345 98.7949 19.8187 98.8831 19.822H100.477C100.729 19.8214 100.977 19.8826 101.203 20.0007C101.428 20.1188 101.624 20.2905 101.776 20.5022C102.124 20.9557 102.813 21.184 103.843 21.1872C105.476 21.1872 106.293 20.8259 106.293 20.1034C106.293 19.7657 106.017 19.4842 105.463 19.259C104.804 19.0033 104.126 18.8026 103.436 18.6585C102.633 18.4802 101.838 18.2628 101.053 18.0064C100.292 17.7681 99.5988 17.3362 99.0348 16.7491C98.7566 16.4719 98.5364 16.1368 98.388 15.7653C98.2397 15.3938 98.1666 14.9939 98.1733 14.591Z" fill="black"/>
<path d="M27.6639 15.5294C27.6646 17.8594 27.1325 20.1556 26.1125 22.2244C25.0924 24.2932 23.6143 26.0742 21.8026 27.4174C20.9042 28.0813 19.9349 28.6324 18.9144 29.0594C16.7856 29.9415 14.4818 30.255 12.2094 29.9719C9.93693 29.6888 7.76677 28.8178 5.89318 27.4371C4.0196 26.0563 2.50106 24.2088 1.47354 22.06C0.446013 19.9112 -0.0584262 17.5281 0.00538172 15.1241C0.0691897 12.7202 0.699254 10.3704 1.83916 8.2851C2.97907 6.19982 4.59324 4.44416 6.53716 3.17531C8.48108 1.90646 10.6941 1.16403 12.978 1.01448C15.2619 0.86493 17.5454 1.31294 19.6242 2.31839C19.8051 2.41185 19.9636 2.54704 20.0879 2.71386C20.2122 2.88068 20.299 3.07484 20.3419 3.28184C20.3848 3.48885 20.3827 3.70337 20.3357 3.9094C20.2888 4.11543 20.1981 4.30765 20.0706 4.47174L19.5037 5.17545C19.3152 5.40615 19.0606 5.56648 18.7782 5.63244C18.4957 5.69841 18.2005 5.66646 17.9368 5.54138C15.5707 4.47869 12.9131 4.37925 10.4811 5.26242C8.04912 6.14559 6.01685 7.94818 4.77985 10.3193C3.54285 12.6905 3.18964 15.4605 3.78896 18.0902C4.38828 20.72 5.89725 23.0213 8.02216 24.5462L8.32572 24.748C9.21459 25.3386 10.184 25.7831 11.2006 26.0663C12.6119 26.4531 14.0851 26.5222 15.5237 26.2692C16.9622 26.0161 18.3337 25.4466 19.5483 24.5978C20.9732 23.606 22.1422 22.2587 22.9507 20.6763C23.7593 19.0938 24.1823 17.3255 24.182 15.5294C24.1875 13.9705 23.8707 12.429 23.2535 11.0116L25.6685 7.98091C26.98 10.257 27.6704 12.8685 27.6639 15.5294Z" fill="url(#paint0_angular_18_78)"/>
<path d="M24.3426 6.07621C24.2588 5.97637 24.1558 5.89641 24.0404 5.84164C23.9249 5.78687 23.7997 5.75854 23.673 5.75854C23.5464 5.75854 23.4211 5.78687 23.3057 5.84164C23.1902 5.89641 23.0872 5.97637 23.0034 6.07621L21.3785 8.09351L14.5039 16.3645C14.4201 16.4643 14.3171 16.5443 14.2016 16.599C14.0862 16.6538 13.9609 16.6821 13.8343 16.6821C13.7076 16.6821 13.5824 16.6538 13.4669 16.599C13.3515 16.5443 13.2485 16.4643 13.1647 16.3645L9.70951 12.2642C9.51703 12.0251 9.24247 11.8757 8.94564 11.8485C8.64881 11.8212 8.35377 11.9184 8.12478 12.1187L7.20518 12.9303C7.11543 13.0098 7.04145 13.107 6.98749 13.2165C6.93352 13.326 6.90062 13.4456 6.89067 13.5685C6.88072 13.6914 6.89391 13.8151 6.92949 13.9326C6.96508 14.0501 7.02235 14.1591 7.09805 14.2533L7.37482 14.6005L8.74081 16.3082L10.9728 19.123L11.7451 20.0894L13.1557 21.8581C13.2395 21.9635 13.3443 22.0483 13.4627 22.1065C13.5811 22.1647 13.7103 22.1949 13.841 22.1949C13.9717 22.1949 14.1008 22.1647 14.2192 22.1065C14.3376 22.0483 14.4424 21.9635 14.5262 21.8581L15.9368 20.0894L23.2534 11.0116L25.6684 7.98092C25.275 7.31029 24.8316 6.6734 24.3426 6.07621Z" fill="#26B9C1"/>
<defs>
<radialGradient id="paint0_angular_18_78" cx="0" cy="0" r="1" gradientUnits="userSpaceOnUse" gradientTransform="translate(13.832 15.5297) rotate(90) scale(14.5433 13.832)">
<stop offset="0.576934" stop-color="#2AC090"/>
<stop offset="0.663888" stop-color="#26B9C1"/>
</radialGradient>
</defs>
</svg>
