<svg width="36" height="37" viewBox="0 0 36 37" fill="none" xmlns="http://www.w3.org/2000/svg">
<g id="&#208;&#147;&#208;&#187;&#208;&#190;&#208;&#177;&#208;&#176;&#208;&#187;&#209;&#140;&#208;&#189;&#209;&#139;&#208;&#185; &#208;&#190;&#209;&#133;&#208;&#178;&#208;&#176;&#209;&#130;" clip-path="url(#clip0_87_3343)">
<g id="&#208;&#147;&#208;&#187;&#208;&#190;&#208;&#177;&#208;&#176;&#208;&#187;&#209;&#140;&#208;&#189;&#209;&#139;&#208;&#185; &#208;&#190;&#209;&#133;&#208;&#178;&#208;&#176;&#209;&#130;_2">
<path id="Vector" opacity="0.08" d="M11.3054 15.3104C11.3054 16.9719 11.3339 18.6929 12.0477 20.1764C12.5368 21.1448 13.1951 22.0102 13.989 22.7282C14.7883 23.4699 15.7019 24.1227 16.7582 24.2711C17.6013 24.3451 18.4496 24.2235 19.2419 23.915C21.64 23.0842 23.8954 21.6303 26.4077 21.393C27.1785 21.3039 28.035 21.3633 28.663 21.8677C29.2911 22.3721 29.0913 23.2326 29.0913 23.9743C29.0913 24.7161 24.3236 29.3448 23.667 29.5525C18.8137 31.2141 12.5044 29.7899 9.27842 26.5854C8.59325 25.903 4.08255 19.8204 6.16661 14.8059C6.59484 13.7674 11.2768 6.7057 12.3902 6.79472C12.6757 6.82439 17.5576 5.72655 17.5861 5.99359C17.6147 6.7057 13.0183 10.919 12.533 11.4531C12.0477 11.9872 11.7907 12.0465 11.5909 12.5509C11.391 13.0553 11.3054 14.4202 11.3054 15.3104Z" fill="#1D1D1D"/>
<path id="Vector_2" d="M30.4044 15.5477C30.2878 14.7253 30.1161 13.9123 29.8906 13.1147C29.3817 11.4402 28.5128 9.90806 27.3497 8.63432C26.7677 7.97435 26.1055 7.39585 25.3799 6.91339C24.653 6.43924 23.8773 6.0511 23.0674 5.75621C22.2541 5.46657 21.4109 5.27735 20.5551 5.19246C19.7224 5.07897 18.882 5.03927 18.0428 5.07378C17.2065 5.11742 16.3755 5.23656 15.5591 5.42983C14.0078 5.79346 12.5295 6.43612 11.1911 7.32879C9.84506 8.20958 8.68061 9.3593 7.76527 10.7113L7.56543 11.0377C7.51777 11.0897 7.47914 11.15 7.45123 11.2157L7.33704 11.3937L6.99445 12.1355C6.79506 12.6391 6.66066 13.1679 6.59477 13.7081C6.59221 13.8193 6.57294 13.9294 6.53767 14.0345C6.54392 14.1441 6.5343 14.2542 6.50912 14.3609C6.50912 14.4795 6.48058 14.5686 6.48058 14.6872L6.42348 15.0136V15.9631C6.39987 16.06 6.39025 16.16 6.39493 16.2598C6.39966 16.4186 6.3901 16.5776 6.36638 16.7346C6.36172 16.8835 6.37128 17.0326 6.39493 17.1796C6.388 17.26 6.39773 17.3409 6.42348 17.417C6.42348 17.506 6.45203 17.5654 6.45203 17.6544C6.50704 17.7985 6.5739 17.9375 6.65187 18.0698C7.023 18.0994 7.25139 17.9511 7.27994 17.6247C7.30344 17.5481 7.31312 17.4676 7.30849 17.3873C7.34056 17.3122 7.35987 17.2319 7.36559 17.15C7.38923 17.0029 7.3988 16.8539 7.39414 16.7049L7.33704 16.2598V15.3994C7.33704 15.251 7.36559 15.1026 7.36559 14.9543C7.43999 14.3673 7.60381 13.7964 7.85092 13.263C7.98221 12.9941 8.09664 12.7165 8.1935 12.4322L8.27915 12.2245L8.36479 12.0168L8.47899 11.8091C8.47899 11.7795 8.50754 11.7498 8.50754 11.6905L8.56464 11.6014C8.88324 11.0316 9.26664 10.5036 9.70659 10.0289C10.1919 9.55413 10.7058 9.13873 11.1911 8.69366C12.1937 7.80354 13.3734 7.15505 14.6455 6.79471C15.7494 6.49392 16.8767 6.29534 18.0143 6.20128H19.6987C20.2748 6.21182 20.8486 6.28139 21.4116 6.40898C22.0157 6.51829 22.6084 6.68719 23.1816 6.91339C23.7566 7.1281 24.3034 7.4172 24.8089 7.77386C25.8369 8.46172 26.7285 9.34808 27.4354 10.3849C28.4441 11.9505 29.0891 13.7382 29.3196 15.6071C29.4376 16.5414 29.4853 17.4838 29.4623 18.4258C29.4409 19.3671 29.3164 20.3029 29.0912 21.2149C28.9485 21.8083 28.7772 22.3721 28.6059 22.9358C28.4346 23.4996 28.1491 24.004 27.8922 24.5381L27.4639 25.2799L27.2355 25.6359L26.9786 25.992C26.6434 26.4589 26.2605 26.8866 25.8366 27.2678C25.4265 27.663 24.9767 28.0112 24.4949 28.3063C24.0132 28.6009 23.5068 28.8492 22.9818 29.0481L22.5821 29.1965L22.1824 29.3152H21.9826L21.7827 29.3745L21.383 29.4635L20.5266 29.5525H19.6987L19.8699 29.4635L20.0412 29.3448L20.3553 29.1371C20.7471 28.7945 21.1189 28.4279 21.4687 28.0393C21.8391 27.6332 22.1647 27.1854 22.4393 26.7041L22.8676 26.7931L23.4385 26.9415C23.6191 26.9968 23.7919 27.0766 23.9524 27.1788L24.1523 27.3272H24.2094C24.2094 27.2975 24.2379 27.2975 24.2379 27.2678H24.3807L24.4663 27.3865C24.5223 27.3906 24.5783 27.3789 24.6285 27.3529C24.6787 27.3268 24.7213 27.2872 24.7518 27.2382C24.7651 27.2053 24.772 27.17 24.772 27.1343C24.772 27.0986 24.7651 27.0633 24.7518 27.0305C24.7201 26.9577 24.6818 26.8881 24.6376 26.8228C24.5374 26.7237 24.4215 26.6434 24.295 26.5854L23.5527 26.1997L22.839 25.992L23.4385 24.6864C23.6391 24.2643 23.8108 23.8281 23.9524 23.3809L24.0381 23.0545L24.0952 22.8765L24.1523 22.6985L24.2379 22.3721L24.3236 22.0457C24.4092 21.571 24.4949 21.1259 24.5519 20.6512C24.609 20.1764 24.6661 19.7017 24.6947 19.2269C24.7232 18.7522 24.7232 18.5148 24.7232 18.1291H24.8374C25.4845 18.2002 26.1245 18.3293 26.7502 18.5148C27.1442 18.6225 27.5448 18.7019 27.9493 18.7522C28.092 18.7819 28.2347 18.7522 28.4346 18.3962C28.3197 18.2858 28.1955 18.1865 28.0634 18.0994C27.696 17.9458 27.3129 17.8363 26.9215 17.7731C26.5504 17.684 26.1507 17.6247 25.7795 17.506L24.6661 17.2983C24.6708 17.1887 24.6612 17.0789 24.6376 16.9719C24.6327 16.822 24.6135 16.6729 24.5805 16.5269C24.5468 16.2377 24.4992 15.9506 24.4378 15.6664C24.2231 14.4624 23.9371 13.2732 23.5813 12.1059C23.3997 11.5176 23.1803 10.9427 22.9247 10.3849L23.4956 10.2662L24.1808 10.0882C24.3474 10.0286 24.5021 9.93817 24.6376 9.82117C24.8297 9.71059 24.988 9.54608 25.0944 9.34643C25.125 9.29902 25.1458 9.24557 25.1556 9.18942C25.1655 9.13326 25.164 9.07561 25.1515 9.02005C25.1244 8.95202 25.0816 8.89202 25.0268 8.84542C24.972 8.79881 24.9069 8.76706 24.8374 8.75301C24.7803 8.81235 24.7518 8.87169 24.6947 8.90136L24.5519 8.99038L24.2379 9.19807L23.8953 9.34643C23.6767 9.44673 23.4464 9.51657 23.2102 9.55413L22.4964 9.67281L22.0111 8.93103C21.6737 8.45583 21.3116 8.00019 20.9263 7.56616C20.6769 7.25487 20.3515 7.01913 19.9841 6.88372L19.7558 6.82438L19.5559 6.70569L19.1562 6.52767L18.8422 6.37931C18.7215 6.36599 18.6001 6.39752 18.4996 6.46832C18.414 6.70569 18.414 6.88372 18.4996 6.97273L18.6138 7.06175L18.7565 7.12109C19.1578 7.14259 19.5358 7.32311 19.8129 7.6255C19.875 7.70978 19.9526 7.78038 20.0412 7.8332L20.2982 8.0409C20.4815 8.19641 20.6446 8.37593 20.7835 8.57498C20.8334 8.68499 20.901 8.78533 20.9834 8.87169C21.0609 8.97783 21.1469 9.07708 21.2403 9.1684C21.4411 9.34768 21.6144 9.5578 21.7542 9.7915L21.3259 9.85084C20.4409 9.85084 19.5559 9.91018 18.6709 9.88051L16.9865 9.82117C16.387 9.82117 15.816 9.67281 15.245 9.64314L14.8454 9.5838C14.9896 9.28977 15.1618 9.01146 15.3592 8.75301C15.6076 8.46549 15.8852 8.20683 16.1872 7.98155C16.5629 7.71051 16.9538 7.46282 17.3577 7.23977L17.4719 7.18043L17.5575 7.09142C17.6252 6.9542 17.6549 6.80009 17.6431 6.64635H17.1007C16.6222 6.77677 16.175 7.00916 15.7875 7.32879C15.3983 7.66408 15.0355 8.0312 14.7026 8.42662C14.4961 8.68447 14.3144 8.96273 14.1602 9.25742C14.102 9.33984 14.054 9.42956 14.0175 9.52446H13.5892C13.325 9.53262 13.0622 9.48204 12.8184 9.3761C12.6548 9.31113 12.4779 9.2907 12.3045 9.31676C12.1619 9.328 12.0202 9.28591 11.9048 9.19807C11.8763 9.19807 11.8763 9.1684 11.8477 9.13873H11.5623C11.3339 9.28709 11.2482 9.3761 11.2768 9.49479C11.3053 9.61347 11.3053 9.5838 11.3053 9.64314C11.3053 9.70249 11.3624 9.73216 11.391 9.73216L11.6194 9.7915L11.705 9.85084H11.8192C11.9436 9.88595 12.0601 9.94647 12.1618 10.0289C12.2474 10.1179 12.3902 10.0882 12.5329 10.1179C12.6757 10.1476 13.0182 10.3553 13.3037 10.2959L13.732 10.2366C13.5215 10.8271 13.3498 11.4318 13.2181 12.0465C12.9969 12.9224 12.8442 13.8155 12.7613 14.7169C12.7042 15.1917 12.6757 15.6367 12.6186 16.0818V16.7049L11.9619 16.7642L10.6772 17.0609L10.0492 17.1796L9.73513 17.239L9.4211 17.2983L8.99287 17.3873C8.85161 17.4384 8.71728 17.5082 8.59318 17.595L8.27915 17.7434L7.93656 17.8324C7.76527 17.8917 7.59398 17.8621 7.47978 18.1291C7.36559 18.3961 7.62253 18.5445 7.70817 18.5445C7.79382 18.5445 7.90801 18.6335 7.96511 18.5742L8.42189 18.3368C8.58747 18.2786 8.76099 18.2486 8.93577 18.2478C9.11048 18.2122 9.28229 18.1626 9.44965 18.0994C9.82078 17.9808 10.2205 18.0401 10.5916 17.8621L10.8485 17.7731C10.9393 17.7299 11.0354 17.6999 11.134 17.684C11.3186 17.6231 11.5113 17.5931 11.705 17.595L12.5329 17.506C12.4399 18.6227 12.459 19.7463 12.59 20.8589C12.7468 22.0496 12.9756 23.2289 13.2752 24.3897C13.4465 24.9238 13.5892 25.4579 13.8176 25.992L13.6178 26.0513L12.7899 26.4074C12.6825 26.426 12.5831 26.4776 12.5044 26.5557C12.4004 26.6275 12.3205 26.7312 12.276 26.8524L12.1332 27.1195C12.1332 27.1788 12.1047 27.2085 12.1047 27.2382L11.9334 27.1492C11.495 26.8082 11.0756 26.4417 10.6772 26.0513L10.1063 25.4579L9.84933 25.1315L9.73513 24.9832L9.62094 24.8051L9.4782 24.6271L9.364 24.4491L9.24981 24.3007L9.19271 24.2117V24.1227L8.96432 23.7666L8.79303 23.3809C8.47332 22.7839 8.20579 22.1583 7.99366 21.5116C7.77101 20.8584 7.61784 20.1818 7.53688 19.494C7.53688 19.4346 7.50833 19.3753 7.50833 19.316C7.50964 19.2999 7.50779 19.2837 7.50288 19.2684C7.49797 19.2531 7.49011 19.239 7.47978 19.2269V19.1379C7.45478 19.0151 7.41647 18.8957 7.36559 18.7819C7.30972 18.657 7.24282 18.5378 7.16575 18.4258C7.08566 18.286 6.97876 18.1648 6.85171 18.0698C6.70695 18.5597 6.63946 19.0707 6.65187 19.583C6.66251 20.3046 6.75839 21.0221 6.93736 21.7193C7.12713 22.4175 7.38543 23.0936 7.70817 23.737C8.39177 25.0123 9.26904 26.1645 10.3061 27.1492C10.9505 27.7935 11.6697 28.3517 12.4473 28.8107C13.2182 29.2614 14.0312 29.6293 14.8739 29.9086C15.7183 30.2036 16.5884 30.4122 17.4719 30.5317C18.3612 30.655 19.2585 30.7046 20.1554 30.68C20.7873 30.6549 21.4168 30.5855 22.0397 30.4723C22.6742 30.3333 23.2953 30.1347 23.8953 29.8789C24.4773 29.6034 25.0401 29.2861 25.5797 28.9294C26.1124 28.543 26.6094 28.106 27.0642 27.6239L27.4068 27.2678L27.7209 26.8821L28.2918 26.081C28.6442 25.5206 28.959 24.9357 29.2339 24.3304C29.4904 23.7222 29.7097 23.0979 29.8906 22.4611C30.0769 21.8295 30.22 21.185 30.3188 20.5325C30.442 19.7076 30.5088 18.8748 30.5186 18.0401C30.5376 17.2075 30.4994 16.3746 30.4044 15.5477ZM13.5607 14.5389C13.6359 13.6894 13.7694 12.8465 13.9604 12.0168C14.1316 11.4531 14.3029 10.8597 14.5028 10.3256L15.3592 10.3849L16.7581 10.563C17.4433 10.652 18.157 10.6223 18.8422 10.6816C19.2896 10.7011 19.7378 10.6912 20.184 10.652L21.4972 10.5926L22.1539 10.5333L22.5821 11.5421C22.7534 11.9278 22.8961 12.3136 23.0389 12.7289C23.2958 13.6243 23.4961 14.5362 23.6384 15.4587C23.7526 16.0225 23.8382 16.6455 23.8953 17.2093H23.5813L22.839 17.0906L21.8113 16.9126L20.755 16.8236L20.2411 16.7642H19.7272L18.6709 16.7049L18.0143 16.6455H16.0444C15.5876 16.6752 15.1309 16.6455 14.6741 16.6455H13.3608C13.4179 15.9334 13.475 15.2213 13.5607 14.5389ZM13.3608 21.1556C13.204 19.8962 13.1753 18.6232 13.2752 17.3577H18.1285L18.8993 17.4467L19.8985 17.506L20.8977 17.595L21.8969 17.684L22.8961 17.8324L23.8668 17.9808H23.981C23.991 18.476 23.972 18.9715 23.9239 19.4643C23.8325 20.3312 23.6991 21.1928 23.5242 22.0457C23.3341 22.8856 23.0565 23.7014 22.6963 24.4787C22.4963 24.939 22.2674 25.385 22.0111 25.814L21.6114 25.7546C20.7051 25.602 19.7888 25.5226 18.8707 25.5172C18.3013 25.4629 17.7287 25.453 17.1578 25.4876C16.5583 25.5469 15.9588 25.4876 15.3592 25.5766L14.5313 25.6656C14.2744 25.0425 14.046 24.4194 13.8462 23.7666C13.6293 22.9083 13.4672 22.0361 13.3608 21.1556ZM13.3323 28.0096C13.0637 27.8842 12.8058 27.7353 12.5615 27.5646L12.7328 27.3865H12.7899C12.8755 27.3865 12.9326 27.2678 13.0182 27.2085C13.11 27.1388 13.2189 27.0976 13.3323 27.0898C13.4553 27.0661 13.572 27.0155 13.6749 26.9415C13.8103 26.8245 13.9651 26.734 14.1316 26.6744C14.3029 27.0008 14.5028 27.3272 14.7026 27.6536C15.0203 28.1282 15.3634 28.5839 15.7304 29.0184C15.7304 29.0481 15.7589 29.0481 15.7589 29.0778C14.9212 28.7972 14.1091 28.4397 13.3323 28.0096ZM19.3561 28.8998L19.2133 28.9888L19.0706 29.0778L18.9278 29.1668H18.7851L18.6709 29.2261H18.6424L18.5853 29.2855L18.4996 29.4338H18.157C18.138 29.3745 18.1094 29.3448 18.0714 29.3448L17.9572 29.2558H17.843C17.661 29.2899 17.4737 29.275 17.2989 29.2127C17.124 29.1504 16.9673 29.0427 16.8438 28.8998C16.6928 28.7571 16.5305 28.6281 16.3584 28.514C16.1924 28.3577 16.0483 28.1779 15.9302 27.98C15.8037 27.77 15.6605 27.5715 15.502 27.3865C15.2364 27.1191 15.0146 26.8084 14.8454 26.4667C15.0974 26.3983 15.3559 26.3585 15.6162 26.348C16.0713 26.2986 16.529 26.2788 16.9865 26.2887C17.6717 26.3184 18.3569 26.2887 19.042 26.348C19.7272 26.4074 20.7835 26.4074 21.6114 26.5854L21.5258 26.7338C21.304 27.0725 21.0658 27.3993 20.8121 27.7129C20.5378 28.0037 20.2419 28.2716 19.927 28.514L19.6416 28.7217L19.3561 28.8998Z" fill="#1D1D1D"/>
<path id="Vector_3" d="M7.90807 7.12109C7.96516 7.06175 7.99371 6.97274 7.79387 6.64635C7.69125 6.61585 7.58246 6.61585 7.47984 6.64635L7.13725 6.82438L6.99451 6.94307L6.88031 7.06175L6.62337 7.32879L6.33788 7.56616L5.9953 7.89254L5.85256 8.07057L5.70981 8.2486L5.16738 8.99038L4.93899 9.25742L4.85335 9.3761L4.7677 9.52446L4.39657 10.0585L4.08253 10.652L3.99688 10.8003L3.91124 10.919L3.76849 11.2157L3.6543 11.4234L3.56865 11.6014L3.39736 11.9872L3.22607 12.3729C3.16897 12.4916 3.14042 12.6399 3.08332 12.7586C3.08225 12.8319 3.06255 12.9035 3.02623 12.9663C2.99755 13.0323 2.97831 13.1023 2.96913 13.174L2.79784 13.5894L2.74074 13.7971V13.9158L2.68364 14.0048L2.56945 14.4499C2.46896 14.7255 2.41115 15.0159 2.39815 15.3103C2.38385 15.5871 2.38385 15.8644 2.39815 16.1411V16.9719C2.36987 17.0585 2.36987 17.1524 2.39815 17.239C2.39388 17.2808 2.404 17.3228 2.4267 17.3577C2.42539 17.3737 2.42725 17.3899 2.43215 17.4052C2.43706 17.4205 2.44492 17.4346 2.45525 17.4467C2.35702 17.2858 2.24215 17.1365 2.11267 17.0016C1.82718 16.7049 1.45604 16.4972 1.22765 16.1708C1.1848 16.1094 1.12917 16.0589 1.06492 16.0229C1.00066 15.9869 0.929427 15.9665 0.85652 15.9631C0.753586 15.9366 0.662745 15.8736 0.599581 15.7851C0.542484 15.7257 0.513935 15.6367 0.314094 15.7257C0.114252 15.8148 5.71115e-05 15.9928 5.71115e-05 16.0521C5.71115e-05 16.1115 -0.0284917 16.2005 0.0286059 16.2005C0.112631 16.2031 0.193725 16.2332 0.260356 16.2864C0.326986 16.3397 0.37576 16.4135 0.39974 16.4972C0.428289 16.5565 0.542484 16.5862 0.62813 16.6456C0.713776 16.7049 0.770874 16.9719 0.999264 17.0313C1.17362 17.0862 1.32471 17.2013 1.4275 17.3577C1.59879 17.595 1.82718 17.8027 2.02702 18.0401C2.05775 18.1203 2.10673 18.1916 2.16976 18.2478L2.22686 18.3665L2.31251 18.5148L2.4838 18.7819L2.65509 19.0489L2.71219 19.1379L2.76929 19.1973H2.79784L2.91203 19.316L3.05478 19.4643H3.22607L3.39736 19.3753C3.43635 19.3332 3.46564 19.2825 3.48301 19.2269C3.4908 19.1825 3.5106 19.1414 3.5401 19.1083V19.0786C3.5401 19.0489 3.56865 19.0489 3.56865 18.9896L3.62575 18.8709V18.7225C3.64932 18.6055 3.6589 18.4859 3.6543 18.3665V17.7137C3.65748 17.4111 3.70563 17.1109 3.79704 16.8236C3.88269 16.5269 3.93979 16.2302 4.02543 15.9631C4.05547 15.8282 4.10351 15.6984 4.16818 15.5774C4.21096 15.4547 4.27919 15.3433 4.36802 15.251L4.45367 15.1917C4.45367 15.162 4.45367 15.162 4.48221 15.162C4.52028 15.1026 4.54883 15.073 4.56786 15.073C4.56414 15.0416 4.55443 15.0114 4.53931 14.984C4.48977 14.8799 4.45147 14.7704 4.42512 14.6576L4.31092 14.5686H4.05398L3.99688 14.6279L3.91124 14.7466L3.85414 14.8059V14.8653C3.7424 15.0227 3.64672 15.1917 3.56865 15.3697C3.44183 15.578 3.35461 15.8097 3.31171 16.0521C3.2902 16.253 3.25199 16.4515 3.19752 16.6456C3.2153 16.5458 3.2054 16.4429 3.16897 16.3488C3.13607 16.233 3.11689 16.1134 3.11187 15.9928C3.09684 15.9657 3.08892 15.935 3.08892 15.9038C3.08892 15.8725 3.09684 15.8418 3.11187 15.8148V15.6367C3.16358 15.442 3.20174 15.2437 3.22607 15.0433V14.7466C3.25462 14.6279 3.25462 14.5389 3.28317 14.4202L3.36881 14.1235C3.39419 14.0104 3.43253 13.9008 3.48301 13.7971L3.5972 13.5004L3.6543 13.352C3.65626 13.2972 3.67644 13.2448 3.7114 13.2037C3.85414 12.907 3.93979 12.5806 4.08253 12.2839L4.28237 11.8388C4.36802 11.7201 4.42512 11.5718 4.51076 11.4234L4.68206 11.1564C4.71865 11.0615 4.76661 10.9718 4.8248 10.8893L4.96754 10.6223L5.11029 10.3553C5.22492 10.194 5.3298 10.0256 5.42432 9.85085C5.53852 9.67282 5.68126 9.52446 5.79546 9.3761L5.9953 9.13874L6.19514 8.90137L6.36643 8.69367L6.45208 8.57498L6.53773 8.4563L6.93741 8.01123L7.39419 7.6255L7.53693 7.50682L7.65113 7.38813L7.90807 7.12109Z" fill="#1D1D1D"/>
<path id="Vector_4" d="M29.5195 7.03208C29.4367 6.80969 29.3103 6.60761 29.1483 6.43866L28.8914 6.20129L28.7772 6.05294L28.663 5.93425C28.5732 5.81105 28.4675 5.70123 28.349 5.60787L28.2919 5.51885L28.2062 5.45951L28.0064 5.34083L27.6638 5.07378L27.3212 4.80674C26.6783 4.28802 25.9788 3.84982 25.2372 3.50121L24.552 3.14516L24.1809 2.9968L23.8097 2.84844L23.4386 2.72976L23.0675 2.5814L22.6678 2.43305L22.2966 2.34403L21.897 2.22535L21.4973 2.16601H20.0984L20.3839 2.01765C20.6707 1.7265 20.9865 1.4679 21.326 1.2462C21.3914 1.21811 21.4492 1.1736 21.494 1.11664C21.5388 1.05968 21.5694 0.992055 21.5829 0.919815C21.64 0.771459 21.7257 0.741787 21.8113 0.682445C21.897 0.623103 21.9541 0.652774 21.9255 0.415404C21.897 0.178034 21.6971 0.0296783 21.64 0.0296783H21.5258C21.4402 0.237377 21.3545 0.385733 21.1832 0.385733C21.0119 0.385733 21.0405 0.504418 20.9834 0.56376C20.9263 0.623103 20.6408 0.682445 20.5552 0.890143C20.4677 1.06195 20.3268 1.1979 20.1555 1.27587C19.8985 1.39455 19.6702 1.60225 19.3847 1.75061L19.1848 1.83962L19.0421 1.89896L18.9279 1.95831L18.6424 2.07699L18.3569 2.19568L18.2427 2.25502H18.1571L17.9858 2.34403C17.952 2.39879 17.9018 2.44049 17.843 2.46272C17.8076 2.51497 17.7878 2.57687 17.7859 2.64075C17.7792 2.71497 17.7996 2.78913 17.843 2.84844C17.8716 2.90779 17.9001 2.90779 17.9572 2.93746L18.0714 3.02647L18.1285 3.08581H18.2142L18.3284 3.14516L18.4711 3.2045L18.7851 3.29351L19.1277 3.38253L19.2705 3.44187H19.3847C19.675 3.50616 19.9542 3.61623 20.2126 3.76825L20.9834 4.24299C21.1069 4.2942 21.2223 4.3642 21.326 4.45069C21.4255 4.52406 21.5123 4.61434 21.5829 4.71773L21.64 4.80674C21.64 4.81461 21.643 4.82216 21.6484 4.82772C21.6537 4.83329 21.661 4.83642 21.6686 4.83642C21.6686 4.86609 21.6686 4.86609 21.6971 4.86609L21.7542 4.9551H21.8399L22.1824 4.89576L22.2681 4.80674C22.2966 4.7474 22.3252 4.71773 22.3252 4.68806V4.51003C22.2957 4.47692 22.2759 4.43575 22.2681 4.39135L22.1824 4.24299L22.1253 4.18365H22.0683C21.9392 4.03956 21.7956 3.91025 21.64 3.79792C21.4649 3.63185 21.2616 3.50105 21.0405 3.4122L20.4124 3.11548L20.0698 2.96713H20.184C20.2978 2.98202 20.4129 2.98202 20.5266 2.96713C20.6326 2.9103 20.7499 2.87983 20.8692 2.87811H21.1832L21.7257 2.96713C21.9178 2.98225 22.1087 3.012 22.2966 3.05614L22.5821 3.14516L22.8676 3.23417L23.1531 3.35285L23.2958 3.4122L23.4386 3.47154C23.7065 3.61809 23.983 3.74692 24.2665 3.85726L24.6662 4.06496L25.0659 4.27266L26.0365 4.83642C26.3716 5.01925 26.6874 5.23803 26.9786 5.48918L27.4069 5.84524L27.8351 6.20129L28.2633 6.55735L28.349 6.64636L28.4346 6.76504L28.6059 7.00241L28.7201 7.1211C28.7201 7.15077 28.7487 7.15077 28.7772 7.18044C28.7772 7.19618 28.7832 7.21127 28.7939 7.2224C28.8046 7.23353 28.8192 7.23978 28.8343 7.23978L29.0627 7.47715C29.1198 7.5365 29.2054 7.56617 29.5195 7.35847C29.5488 7.25181 29.5488 7.13874 29.5195 7.03208Z" fill="#1D1D1D"/>
<path id="Vector_5" d="M19.6702 33.5582L19.556 33.4988H19.4703L19.4132 33.4395H19.1278L18.7852 33.3801L18.4426 33.3208H18.1856C17.8916 33.2975 17.6028 33.2274 17.3292 33.1131L16.5013 32.8164C16.3724 32.7695 16.2481 32.7099 16.1301 32.6383C16.0316 32.5757 15.9446 32.4954 15.8732 32.401L15.7875 32.312H15.7305C15.7019 32.2526 15.6734 32.2526 15.6734 32.2229H15.5877L15.2451 32.312L15.1595 32.4306C15.1309 32.4603 15.1309 32.49 15.1309 32.5493C15.1433 32.5982 15.1528 32.6477 15.1595 32.6977L15.2451 32.8164L15.3308 32.9351L15.3879 32.9944L15.445 33.0537L15.9017 33.3801C16.1007 33.5211 16.3235 33.6218 16.5584 33.6768L17.215 33.8549C17.5115 33.9712 17.8172 34.0605 18.1285 34.1219C18.0821 34.1409 18.032 34.1481 17.9824 34.1429C17.9327 34.1378 17.885 34.1204 17.8431 34.0922C17.7574 34.0626 17.6432 34.1219 17.529 34.1516C17.4148 34.1812 17.1008 34.0329 16.8724 34.1219C16.7664 34.1787 16.6491 34.2092 16.5298 34.2109C16.4161 34.2258 16.301 34.2258 16.1872 34.2109C16.0119 34.1526 15.8289 34.1225 15.6448 34.1219H15.3593L15.0738 34.0626L14.7598 33.9735L14.4743 33.8845L14.1888 33.7659L14.0461 33.7065L13.9033 33.6472L13.0469 33.3208L12.6472 33.1131C12.5059 33.062 12.3716 32.9922 12.2475 32.9054L11.9906 32.757L11.7336 32.6087L11.2197 32.3416C11.0485 32.2605 10.8858 32.1611 10.7344 32.0449L10.4775 31.8966L10.2776 31.5405L10.0492 31.3625L9.82086 31.1845L9.59246 31.0361L9.36407 30.8581L8.93584 30.502L8.56471 30.0569C8.41707 29.8838 8.25463 29.7249 8.07938 29.5822C8.02228 29.5229 7.93664 29.4932 7.6226 29.7009C7.61324 29.8106 7.62291 29.9211 7.65115 30.0273L7.82244 30.3537L7.93664 30.502C7.96518 30.5614 8.02228 30.591 8.05083 30.6207L8.30777 30.8877L8.56471 31.1251C8.65454 31.2483 8.76021 31.3581 8.87875 31.4515L9.05004 31.5999L9.22133 31.7185L9.59246 31.9856L9.93505 32.2526C10.2596 32.517 10.6032 32.7551 10.9628 32.9647L11.5052 33.2614L11.7907 33.4098L12.0762 33.5582L12.4188 33.7362L12.7899 33.8845L13.1325 34.0329L13.5322 34.1812L13.9033 34.2999L14.303 34.4186L14.6741 34.567L15.0738 34.656L15.2737 34.7153H15.4735L15.8732 34.8043H17.3577C17.111 35.12 16.8336 35.4084 16.5298 35.6648C16.469 35.7031 16.417 35.7549 16.3775 35.8164C16.338 35.8779 16.3121 35.9477 16.3014 36.0209C16.2701 36.1409 16.1994 36.2459 16.1016 36.3176C16.0445 36.3472 15.9588 36.3472 16.0159 36.5846C16.073 36.822 16.2729 36.9407 16.33 36.9407C16.3871 36.9407 16.4727 36.9703 16.4727 36.911C16.4727 36.8517 16.6155 36.5549 16.7868 36.5253C16.958 36.4956 16.8724 36.4066 16.9295 36.3472C16.9866 36.2879 17.2721 36.1692 17.3292 35.9615C17.4031 35.792 17.5219 35.6479 17.6718 35.5461C17.9287 35.3681 18.1285 35.1307 18.3855 34.9824L18.5853 34.834L18.6995 34.7747L18.8423 34.6857L19.0992 34.5373L19.3847 34.3593L19.4703 34.2999H19.556L19.6987 34.1812L19.8129 34.0626C19.8352 34.0396 19.852 34.0116 19.8619 33.9806C19.8718 33.9497 19.8746 33.9168 19.87 33.8845C19.8689 33.8113 19.8492 33.7396 19.8129 33.6768L19.6702 33.5582Z" fill="#1D1D1D"/>
<path id="Vector_6" d="M35.9429 18.6929C35.8605 18.6851 35.7811 18.6567 35.7116 18.6103C35.642 18.5638 35.5842 18.5005 35.5432 18.4258C35.5432 18.3368 35.429 18.3072 35.3434 18.2775C35.2577 18.2478 35.1721 17.9214 34.9722 17.8621C34.7978 17.8248 34.6442 17.7184 34.544 17.5654C34.3441 17.2983 34.1158 17.1203 33.9445 16.8829L33.3449 15.9928L33.2878 15.8741L33.2022 15.7851H33.1736V15.7258L33.0309 15.6071L32.9167 15.4884C32.8921 15.4704 32.864 15.4583 32.8343 15.4532C32.8047 15.4481 32.7743 15.45 32.7454 15.4587C32.7079 15.4575 32.6705 15.4648 32.636 15.4802C32.6015 15.4956 32.5706 15.5186 32.5456 15.5477C32.5161 15.5808 32.4963 15.622 32.4885 15.6664L32.4314 15.8148V15.8741C32.421 15.8862 32.4132 15.9003 32.4083 15.9156C32.4034 15.9309 32.4015 15.9471 32.4028 15.9631L32.3457 16.1115V16.2598C32.3222 16.3769 32.3126 16.4964 32.3172 16.6159V17.239C32.2999 17.5498 32.2521 17.8581 32.1744 18.1588C32.0602 18.4555 32.0317 18.7522 31.9461 19.0193C31.9251 19.1526 31.8866 19.2824 31.8319 19.405C31.7725 19.5254 31.6954 19.6355 31.6035 19.7314L31.5464 19.7907H31.4036L31.3465 19.8797C31.3502 19.9111 31.36 19.9413 31.3751 19.9687C31.409 20.0759 31.4376 20.1849 31.4607 20.2951C31.5178 20.3545 31.5464 20.3841 31.6035 20.3841H31.7177L31.8604 20.3248L31.9746 20.2655L32.0888 20.1468L32.1459 20.0874V20.0281C32.2601 19.8501 32.3172 19.672 32.4314 19.494C32.5369 19.2783 32.6137 19.0487 32.6598 18.8116C32.6799 18.5691 32.7278 18.3301 32.8025 18.0995C32.8777 17.8082 32.9255 17.5101 32.9453 17.2093C32.9711 17.2589 32.9869 17.3134 32.9918 17.3695C32.9967 17.4256 32.9906 17.4821 32.9738 17.5357C32.9167 17.6247 33.0024 17.7434 33.0024 17.8324C33.0024 17.9214 32.9167 18.2478 33.0024 18.4555C33.1005 18.6463 33.1308 18.8669 33.088 19.0786C33.0549 19.2547 33.0358 19.4333 33.0309 19.6127C33.0309 19.7017 33.0024 19.7907 33.0024 19.8797C33.0024 19.9687 32.9738 20.0281 32.9738 20.1171L32.8882 20.4138L32.8025 20.6809L32.7169 20.9479L32.6312 21.2149L32.3172 22.0161C32.2822 22.1493 32.2344 22.2785 32.1744 22.4018L31.9746 22.7875C31.9308 22.8635 31.8926 22.9429 31.8604 23.0249C31.8056 23.094 31.7665 23.1752 31.7462 23.2622L31.5178 23.737L31.2609 24.2117L30.9754 24.6271L30.8041 24.8348C30.7734 24.915 30.7244 24.9863 30.6614 25.0425L30.5186 25.2502L30.4615 25.3689L30.3759 25.4876L30.0904 25.903L29.7192 26.259C29.5571 26.3882 29.4212 26.5496 29.3196 26.7338C29.2625 26.7931 29.2625 26.8821 29.4909 27.1788H29.7763C29.8809 27.1376 29.9776 27.0773 30.0618 27.0008L30.176 26.9118L30.2902 26.7931C30.418 26.6209 30.5614 26.462 30.7185 26.3184L30.9754 25.992L31.0896 25.8436C31.1372 25.7916 31.1759 25.7314 31.2038 25.6656L31.632 24.9832C31.8671 24.6859 32.0772 24.3683 32.2601 24.0337L32.4885 23.4996L32.5741 23.3809L32.6312 23.2326L32.7454 22.9655L32.8882 22.6392L33.0309 22.3128L33.1736 21.9567L33.2593 21.6303C33.2878 21.482 33.3449 21.3633 33.3735 21.2446C33.3985 21.1218 33.4368 21.0024 33.4877 20.8885C33.5712 20.6465 33.638 20.3987 33.6875 20.1468C33.7417 19.9025 33.7798 19.6546 33.8017 19.405C33.8207 19.1574 33.8111 18.9084 33.7732 18.6632C33.7732 18.5445 33.7446 18.4258 33.7446 18.3072V17.9808C33.755 17.9687 33.7628 17.9546 33.7677 17.9393C33.7726 17.924 33.7745 17.9078 33.7732 17.8918H33.8303C34.1158 18.1885 34.4869 18.3962 34.7153 18.6929C34.7551 18.7598 34.8093 18.8161 34.8738 18.8573C34.9382 18.8985 35.011 18.9235 35.0864 18.9302C35.2292 18.9302 35.2863 19.0193 35.3719 19.0786C35.4575 19.1379 35.429 19.2566 35.6288 19.1676C35.8287 19.0786 35.9429 18.8709 35.9429 18.8116C35.9429 18.7522 36 18.6929 35.9429 18.6929ZM33.0595 16.8829C33.0595 16.8751 33.0625 16.8675 33.0678 16.862C33.0732 16.8564 33.0804 16.8533 33.088 16.8533H33.0595V16.8829Z" fill="#1D1D1D"/>
</g>
</g>
<defs>
<clipPath id="clip0_87_3343">
<rect width="36" height="37" fill="white"/>
</clipPath>
</defs>
</svg>
