<svg width="33" height="37" viewBox="0 0 33 37" fill="none" xmlns="http://www.w3.org/2000/svg">
<g id="&#208;&#152;&#208;&#189;&#208;&#180;&#208;&#184;&#208;&#178;&#208;&#184;&#208;&#180;&#209;&#131;&#208;&#176;&#208;&#187;&#209;&#140;&#208;&#189;&#209;&#139;&#208;&#181; &#209;&#128;&#208;&#181;&#209;&#136;&#208;&#181;&#208;&#189;&#208;&#184;&#209;&#143;" clip-path="url(#clip0_87_4197)">
<g id="&#208;&#152;&#208;&#189;&#208;&#180;&#208;&#184;&#208;&#178;&#208;&#184;&#208;&#180;&#209;&#131;&#208;&#176;&#208;&#187;&#209;&#140;&#208;&#189;&#209;&#139;&#208;&#181; &#209;&#128;&#208;&#181;&#209;&#136;&#208;&#181;&#208;&#189;&#208;&#184;&#209;&#143;_2">
<path id="Vector" opacity="0.08" d="M12.4563 10.5882C10.272 11.8235 9.97684 13.9706 9.88829 15.2941C9.79974 16.6176 12.043 19.5882 12.7219 19.8529C13.4008 20.1176 14.3158 21.7941 13.6074 22.0882C12.899 22.3823 17.0609 22.5294 17.2675 22.3823C17.4742 22.2353 16.4411 20 17.5332 19.0882C18.6253 18.1765 19.7765 17.2647 20.0421 15.5C20.4849 12.5294 18.1235 9.97058 15.5851 10.0882C13.0466 10.2059 12.4563 10.5882 12.4563 10.5882Z" fill="black"/>
<path id="Vector_2" opacity="0.08" d="M12.8399 23.7059C11.5117 23.5294 11.3051 24.147 11.9839 25.2941C12.6628 26.4412 14.8176 30.0294 15.4669 30.2059C16.7657 30.5588 20.0716 25 18.8614 23.8823C18.4777 23.5294 14.9652 24 12.8399 23.7059Z" fill="black"/>
<path id="Vector_3" d="M12.4563 21.7059C12.4858 20.0882 11.0394 18.8824 10.272 17.4706C9.67987 16.3325 9.48325 15.0308 9.71292 13.7695C9.94259 12.5081 10.5856 11.3583 11.5412 10.5C13.4893 8.82353 16.6181 8.7647 18.6548 10.3235C19.6471 11.14 20.3412 12.26 20.6294 13.5098C20.9176 14.7595 20.7838 16.0691 20.2487 17.2353C19.5403 18.6176 18.2711 19.7647 18.094 21.3235C18.072 21.527 18.1132 21.7323 18.2121 21.9118C18.2366 21.9568 18.2701 21.9964 18.3103 22.0283C18.3506 22.0602 18.3969 22.0837 18.4464 22.0975C18.496 22.1112 18.5478 22.1148 18.5988 22.1082C18.6499 22.1016 18.699 22.0848 18.7434 22.0588C18.9205 21.9118 18.8614 21.6176 18.8614 21.3529C18.8319 20.6176 19.4813 20.0294 19.9831 19.5C20.7482 18.65 21.2829 17.6194 21.5364 16.5058C21.7898 15.3922 21.7538 14.2326 21.4315 13.1368C21.1093 12.0411 20.5116 11.0454 19.6951 10.2443C18.8786 9.4431 17.8703 8.86296 16.7657 8.55882C14.0207 7.82353 11.0985 8.88235 9.71117 11.3529C9.04076 12.5438 8.73134 13.9028 8.8204 15.2653C8.90947 16.6278 9.39319 17.9353 10.213 19.0294C10.8033 19.7941 11.6298 20.5 11.6888 21.4706C11.7183 21.8235 11.8364 22.3529 12.1611 22.2647C12.4858 22.1765 12.4267 21.9706 12.4563 21.7647V21.7059Z" fill="black"/>
<path id="Vector_4" d="M19.8355 23.8529C20.0126 23.7647 19.9831 23.6765 19.865 23.5588C19.5494 23.3868 19.2118 23.2582 18.8615 23.1765C17.7478 23.0093 16.6226 22.9306 15.4965 22.9412C14.2568 22.8823 13.0171 22.7353 11.7774 22.8823C11.3423 22.8773 10.9211 23.0347 10.5967 23.3235C10.5165 23.4134 10.4563 23.5191 10.42 23.6337C10.3837 23.7484 10.3722 23.8694 10.3861 23.9888C10.4 24.1082 10.4392 24.2234 10.5009 24.3267C10.5626 24.43 10.6456 24.5191 10.7443 24.5882L10.8033 24.647C10.802 24.663 10.8039 24.679 10.809 24.6942C10.814 24.7094 10.8222 24.7233 10.8328 24.7353C11.0105 24.9207 11.1242 25.1576 11.1575 25.4118C11.1575 25.5294 11.2461 25.6176 11.3051 25.7353C11.5169 26.1656 11.7042 26.6074 11.8659 27.0588C11.9645 27.4676 12.1132 27.8627 12.3087 28.2353C12.4858 28.5588 12.8695 28.7353 13.1942 28.9412C13.6402 29.2158 14.1036 29.4614 14.5815 29.6765H14.5225L14.3454 29.7647L14.2568 29.8529V29.9706C14.2568 30.0588 14.2863 30.1176 14.2863 30.2059C14.2749 30.2538 14.2771 30.304 14.2928 30.3508C14.3084 30.3976 14.3368 30.439 14.3749 30.4706L14.4634 30.5882L14.552 30.7353C14.6455 30.8483 14.7549 30.9474 14.8767 31.0294L15.3194 31.1765H15.6146C15.7166 31.1856 15.8191 31.1652 15.9098 31.1176L16.2049 31.0294L16.3525 30.9706L16.5001 30.8823C16.5296 30.8235 16.5886 30.7941 16.6182 30.7647L16.7362 30.647C16.7362 30.5882 16.7658 30.5588 16.7658 30.5C16.787 30.4539 16.7971 30.4036 16.7953 30.3529L16.7957 30.3539C16.8252 30.207 16.8252 30.207 16.8547 30.06C16.8838 30 16.8838 29.9412 16.7953 29.8529C16.7067 29.7647 16.7362 29.7647 16.7067 29.7353C16.6772 29.7059 16.7658 29.6765 16.6182 29.647L18.0645 28.9412C18.4482 28.7353 18.8615 28.5 19.009 28.0588C19.3042 27.0882 19.3632 25.9706 19.5108 24.9706C19.5318 24.8969 19.5374 24.8198 19.5273 24.7439C19.5171 24.668 19.4914 24.595 19.4518 24.5294C19.7021 24.4705 19.9286 24.3371 20.1012 24.147C20.2488 23.9412 20.0421 23.8823 19.8355 23.8529ZM16.264 30.2353C16.2049 30.3235 16.1754 30.4412 16.0869 30.5C15.9987 30.5563 15.8964 30.5869 15.7917 30.5882H15.5556C15.4817 30.5952 15.4079 30.5742 15.3489 30.5294L15.1128 30.4118C15.071 30.3991 15.033 30.3764 15.0021 30.3456C14.9712 30.3148 14.9484 30.2769 14.9357 30.2353L14.8471 30.0294C14.8176 29.9706 14.7881 29.8823 14.8471 29.8235C14.9062 29.7647 14.8767 29.7941 14.8767 29.7647C15.311 29.9297 15.7873 29.9504 16.2344 29.8235C16.2049 29.8235 16.264 29.8823 16.264 29.9118C16.264 29.9412 16.264 29.9412 16.264 29.9706C16.264 30 16.2344 30 16.264 30.0588C16.2874 30.0933 16.2979 30.135 16.2935 30.1765C16.323 30.2059 16.2935 30.2353 16.264 30.2353ZM19.0386 24.7059L18.95 24.9118C18.7354 25.8029 18.5777 26.7066 18.4777 27.6176C18.4562 27.7594 18.4165 27.8977 18.3597 28.0294C18.1235 28.4412 17.5627 28.5882 17.1495 28.7941C16.6212 29.106 16.0218 29.2781 15.408 29.2941C14.4929 29.2353 13.755 28.5882 13.0171 28.147H12.9581C12.9581 28.1176 12.9285 28.1176 12.9285 28.0882L12.84 28.0294L12.781 27.9118C12.6039 27.3529 12.4268 26.7941 12.1906 26.2353L11.6593 25.1765L11.5412 24.9412L12.6039 25.0294C13.3123 25.0882 14.0207 25.0588 14.6996 25.0588C15.3785 25.0588 16.5296 24.9706 17.4151 24.9118C17.8918 24.8964 18.3661 24.8373 18.8319 24.7353L19.0386 24.7059ZM19.1271 24.0882L18.2121 24.2353C17.5922 24.2941 16.9724 24.3823 16.3525 24.4118C15.1243 24.495 13.8922 24.5048 12.6629 24.4412C12.1906 24.4118 11.6298 24.4118 11.2166 24.1765C11.1343 24.1317 11.0713 24.0585 11.0395 23.9706C11.0172 23.9115 11.0168 23.8464 11.0385 23.7871C11.0601 23.7277 11.1024 23.6781 11.1575 23.647C11.5708 23.3235 12.5153 23.4706 13.0171 23.4706C13.5189 23.4706 14.4634 23.4412 15.2013 23.4706C16.6146 23.5335 18.0236 23.6709 19.4223 23.8823H19.5108L19.1271 24.0882Z" fill="black"/>
<path id="Vector_5" d="M18.4186 14.9706C18.3285 14.7369 18.1622 14.5401 17.9464 14.4118C17.7198 14.2929 17.4635 14.2418 17.2084 14.2647C16.9532 14.2901 16.7091 14.3813 16.5 14.5294L16.2344 14.7941C16.1486 14.8903 16.0789 14.9995 16.0278 15.1176C15.9506 15.3362 15.901 15.5634 15.8802 15.7941C15.8342 16.0073 15.8046 16.2236 15.7916 16.4412C15.7965 16.6377 15.7867 16.8343 15.7621 17.0294H15.1423C15.1238 16.6276 15.0442 16.2309 14.9061 15.8529C14.85 15.6385 14.7495 15.4381 14.611 15.2647C14.5479 15.1721 14.4678 15.0922 14.3748 15.0294L14.0501 14.9118H13.6959C13.5772 14.8927 13.4556 14.9028 13.3417 14.9412L13.017 15.0882L12.7809 15.3529C12.656 15.5766 12.6142 15.8369 12.6628 16.0882C12.7318 16.3251 12.8645 16.5387 13.0466 16.7059L13.4893 17L13.9911 17.2059C14.259 17.2956 14.5363 17.3548 14.8176 17.3824C14.8471 17.7059 14.8471 18.0588 14.8766 18.3824C14.8864 18.932 14.8667 19.4818 14.8176 20.0294C14.7783 20.3908 14.7684 20.7547 14.7881 21.1176C14.7989 21.413 14.7791 21.7087 14.729 22C14.7021 22.205 14.7021 22.4126 14.729 22.6176C14.7509 22.634 14.777 22.644 14.8043 22.6465C14.8316 22.6489 14.8591 22.6437 14.8836 22.6315C14.9081 22.6193 14.9287 22.6005 14.9431 22.5773C14.9575 22.5541 14.9652 22.5273 14.9652 22.5C15.0215 22.4013 15.0519 22.29 15.0537 22.1765C15.0547 21.7241 15.0843 21.2722 15.1423 20.8235C15.1821 20.6003 15.1921 20.3729 15.1718 20.1471C15.2356 19.6399 15.2553 19.1282 15.2308 18.6176C15.2013 18.2059 15.1718 17.7941 15.1718 17.3824H15.7621V17.7353C15.7916 18.5882 15.8212 19.4412 15.8802 20.3235C15.9001 20.8552 15.9494 21.3855 16.0278 21.9118C16.0231 22.0122 16.0421 22.1124 16.0831 22.2043C16.124 22.2962 16.186 22.3773 16.2639 22.4412C16.2966 22.2565 16.3163 22.0698 16.3229 21.8824C16.2934 20.8824 16.1754 19.8529 16.1754 18.8529C16.1458 18.3529 16.1458 17.8529 16.1458 17.3529L16.5886 17.2647L17.1199 17.1176C17.3365 17.0546 17.5446 16.9657 17.7398 16.8529C17.9372 16.7205 18.1159 16.5622 18.2711 16.3824C18.3472 16.2847 18.407 16.1755 18.4482 16.0588C18.5047 15.9496 18.535 15.8288 18.5367 15.7059C18.5705 15.4546 18.5294 15.1989 18.4186 14.9706ZM14.2863 16.8824C14.0396 16.8251 13.8015 16.7361 13.5779 16.6176C13.3544 16.508 13.1692 16.3337 13.0466 16.1176C12.9992 16.0257 12.9769 15.9229 12.9821 15.8196C12.9873 15.7163 13.0197 15.6162 13.0761 15.5294C13.1256 15.4377 13.1975 15.36 13.2852 15.3034C13.373 15.2468 13.4736 15.2133 13.5779 15.2059H13.9025L14.0796 15.2647H14.2272C14.3101 15.3298 14.3801 15.4096 14.4339 15.5C14.4822 15.6145 14.5216 15.7325 14.5519 15.8529C14.6491 16.1382 14.7087 16.4348 14.729 16.7353C14.729 16.8235 14.7585 16.9118 14.7585 16.9706C14.597 16.97 14.437 16.9401 14.2863 16.8824ZM18.153 15.7353C18.153 15.7647 18.153 15.7941 18.1235 15.7941V15.8824C18.0525 16.0534 17.9411 16.2047 17.7988 16.3235C17.6504 16.458 17.4809 16.5673 17.297 16.6471L16.6771 16.8824C16.5027 16.926 16.325 16.9555 16.1458 16.9706C16.1458 16.6471 16.1754 16.3235 16.2049 16.0294L16.2934 15.5588C16.3247 15.4158 16.3743 15.2774 16.441 15.1471L16.5 15.0588L16.6181 14.9412L16.8542 14.7647C17.0237 14.6667 17.2203 14.6254 17.4151 14.6471C17.5929 14.6542 17.7614 14.7276 17.8873 14.8529C18.0103 14.9991 18.1008 15.1695 18.153 15.3529V15.7647V15.7353Z" fill="black"/>
<path id="Vector_6" d="M13.5188 26.1471C13.9025 26.2059 14.3157 26.2059 14.729 26.2353C15.5142 26.304 16.3036 26.3139 17.0903 26.2647C17.4578 26.2693 17.8245 26.2298 18.1825 26.1471C18.33 26.1176 18.1234 25.9118 18.0939 25.8824C18.0297 25.7988 17.9494 25.7288 17.8578 25.6765L17.6807 25.6176L16.7361 25.7353C16.3333 25.7647 15.9288 25.7647 15.5259 25.7353C14.8175 25.7353 14.1386 25.7059 13.4302 25.6471H13.017C12.8694 25.6471 13.076 25.9118 13.1055 25.9412C13.1542 26.0068 13.2162 26.0616 13.2873 26.1022C13.3584 26.1427 13.4373 26.168 13.5188 26.1765V26.1471Z" fill="black"/>
<path id="Vector_7" d="M13.1057 27.6177C13.4413 27.7368 13.7871 27.8254 14.1388 27.8824C14.8969 28.0287 15.6694 28.0879 16.4411 28.0588C17.0162 28.0337 17.5885 27.9649 18.1531 27.8529C18.3007 27.7941 18.3597 27.6765 18.2416 27.5588C18.1683 27.4986 18.0832 27.4545 17.9917 27.4291C17.9001 27.4038 17.8043 27.3979 17.7103 27.4118C17.2554 27.5234 16.7909 27.5924 16.323 27.6177H15.1424L14.1683 27.4706H13.9912C13.9026 27.4412 14.0797 27.4706 14.0207 27.4706H13.8731L13.6075 27.4118L13.4009 27.3235C13.3418 27.3235 13.2238 27.2647 13.4009 27.3529C13.578 27.4412 13.0467 27.2059 12.9286 27.3529C12.8105 27.5 12.9876 27.6177 13.1057 27.6765V27.6177Z" fill="black"/>
<path id="Vector_8" d="M4.04383 11.0588C4.57847 11.2545 5.13262 11.3926 5.69679 11.4706L7.37925 11.7647L7.70394 11.8235C7.85153 11.8235 8.08766 11.7647 8.1467 11.5882C8.20573 11.4118 7.99911 11.3235 7.85153 11.2941L6.9365 11.1765H6.61181L6.16906 11.0294L5.28355 10.853L4.84079 10.7353L4.66369 10.6765H4.54562C4.4605 10.6354 4.36546 10.6191 4.27146 10.6295C4.17745 10.6399 4.08831 10.6766 4.01432 10.7353C3.9851 10.756 3.9618 10.784 3.9467 10.8164C3.9316 10.8488 3.92523 10.8845 3.9282 10.9201C3.93118 10.9558 3.94341 10.99 3.96368 11.0195C3.98396 11.0489 4.01158 11.0726 4.04383 11.0882V11.0588Z" fill="black"/>
<path id="Vector_9" d="M13.991 2.91176L14.1386 4.14706L14.4043 6.08823L14.4633 6.52941C14.4868 6.61574 14.5361 6.69291 14.6046 6.75069C14.6732 6.80847 14.7577 6.84413 14.847 6.85294C14.9356 6.88235 15.2012 6.88235 15.1717 6.70588L15.0241 5.5L14.7585 3.55882L14.6995 3.08823C14.6995 2.94117 14.4928 2.82353 14.3453 2.79411C14.1977 2.7647 13.9615 2.73529 13.991 2.91176Z" fill="black"/>
<path id="Vector_10" d="M22.7871 11.0588C23.5318 10.7833 24.2443 10.4283 24.9123 10C25.1572 9.85999 25.3851 9.69221 25.5912 9.50001C25.6015 9.47258 25.6012 9.4423 25.5903 9.4151C25.5794 9.3879 25.5587 9.36574 25.5322 9.35295C25.4789 9.27812 25.408 9.21751 25.3256 9.17648C25.2075 9.11766 25.0009 9.02942 24.8828 9.14707C24.8175 9.22961 24.7375 9.29941 24.6467 9.35295L24.3515 9.55883L23.6726 9.9706L22.4329 10.5294L22.1673 10.6471C22.1082 10.6471 22.1378 10.7353 22.1378 10.7647C22.1809 10.8375 22.2418 10.8982 22.3149 10.9412C22.3807 10.9931 22.4568 11.0305 22.5383 11.0508C22.6197 11.0711 22.7045 11.0738 22.7871 11.0588Z" fill="black"/>
<path id="Vector_11" d="M7.64503 5.41177L9.6817 7.5L9.88832 7.7353C10.0893 7.93495 10.3468 8.0684 10.6262 8.11765C10.6853 8.11765 10.8033 8.11765 10.8329 8.05883C10.8396 8.01965 10.8349 7.97937 10.8191 7.94284C10.8034 7.9063 10.7774 7.87508 10.7443 7.85294L9.00281 6C8.82571 5.85294 8.67812 5.67647 8.50102 5.5C8.31752 5.29818 8.06475 5.17224 7.79261 5.14706C7.75416 5.13069 7.71204 5.12479 7.67056 5.12996C7.62907 5.13513 7.5897 5.15118 7.55648 5.17647C7.52696 5.26471 7.61551 5.35294 7.64503 5.41177Z" fill="black"/>
<path id="Vector_12" d="M19.4222 7.14707L21.0161 5.50001L21.3703 5.14707C21.4589 5.08824 21.1342 5.02942 21.1046 5.02942H20.6324C20.362 5.26941 20.1058 5.52473 19.8649 5.79412L18.9204 6.79412L18.7138 7.02942C18.6252 7.11765 18.9204 7.17648 18.9499 7.17648H19.2451C19.3041 7.14707 19.3927 7.17648 19.4222 7.11765V7.14707Z" fill="black"/>
<path id="Vector_13" d="M20.3963 35.1471C20.6029 34.4118 20.9571 33.7353 21.6655 33.4118C22.3739 33.0882 23.1709 33.2647 23.9678 33.2353C24.7824 33.1836 25.5645 32.8978 26.2193 32.4123C26.8742 31.9268 27.3737 31.2626 27.6575 30.5C27.7533 30.2734 27.8226 30.0365 27.8641 29.7941C27.9131 29.5622 27.9329 29.3251 27.9231 29.0882C28.0412 26.5 27.3032 23.1176 30.4321 21.9706C30.9043 21.7941 32.085 21.9118 32.5278 21.6765C33.738 21 32.3802 19.6176 31.8784 18.7353C31.3766 17.8529 30.5501 16.3824 29.8417 15.0588C29.1333 13.7353 28.6315 11.2941 28.3659 9.52941C27.0376 0.558824 17.1199 -1.61765 9.68161 1.08824C7.82842 1.75712 6.11668 2.76454 4.6342 4.05882C2.59753 5.91176 0.737958 8.23529 0.236169 10.9412C-0.26562 13.6471 -0.0294834 16.1176 0.501822 18.4412C1.12168 21.2647 2.30236 23.7647 3.2469 26.5C4.19145 29.2353 5.46068 32.0588 5.25406 34.9706C5.20235 35.2795 5.24343 35.5967 5.37213 35.8824C5.54923 36.1471 6.0215 36.2647 6.16908 35.9706C6.20664 35.9083 6.22701 35.8373 6.22812 35.7647C7.05459 31.8823 5.72633 27.8823 4.30951 24.1471C2.8927 20.4118 1.38733 16.5588 1.80057 12.6176C2.1024 9.61844 3.49948 6.83424 5.72633 4.79412C8.55996 2.23529 12.6333 1.47059 16.3524 1.58824C20.0716 1.70588 23.7022 3.26471 25.6798 6.61765C26.3857 7.8791 26.9028 9.23659 27.2147 10.6471C27.3855 11.3644 27.5136 12.0911 27.5984 12.8235V12.9706C27.6221 13.0263 27.6322 13.0867 27.6279 13.1471C27.6575 13.2353 27.6575 13.3529 27.687 13.4706L27.8641 14.0882L28.1297 14.6765C28.1659 14.7172 28.1867 14.7692 28.1888 14.8235L28.2773 14.9412L28.4249 15.2059C29.1628 16.5294 29.8712 17.8529 30.5796 19.1765L30.8453 19.7059L30.9929 19.9412V20.0588C31.0056 20.1072 31.0155 20.1563 31.0224 20.2059C31.0242 20.2565 31.0141 20.3069 30.9929 20.3529H30.6682L30.1664 20.5294L29.9303 20.6176H29.7827C29.1144 20.8425 28.5065 21.2163 28.0052 21.7108C27.5039 22.2052 27.1225 22.8071 26.89 23.4706C26.4177 24.8529 26.5653 26.2647 26.5653 27.6765V29.3824H26.5358V29.4706C26.5251 29.4825 26.517 29.4965 26.5119 29.5117C26.5069 29.5268 26.5049 29.5429 26.5063 29.5588V29.6765C26.4734 29.73 26.4532 29.7904 26.4473 29.8529C26.2597 30.2999 25.9653 30.6943 25.5898 31.0019C25.2142 31.3094 24.7689 31.5208 24.2925 31.6176C22.9938 31.8235 21.8426 31.4412 20.6914 32.2647C19.9523 32.7782 19.4439 33.5593 19.2746 34.4412C19.127 35.2941 19.3632 36.2647 20.0716 36.7647C20.1389 36.2181 20.2475 35.6774 20.3963 35.1471Z" fill="black"/>
</g>
</g>
<defs>
<clipPath id="clip0_87_4197">
<rect width="33" height="37" fill="white"/>
</clipPath>
</defs>
</svg>
