<svg width="199" height="36" viewBox="0 0 199 36" fill="none" xmlns="http://www.w3.org/2000/svg">
<g id="UnfoldingWord - Logo_Horizontal - Full Color 1" clip-path="url(#clip0_87_1664)">
<path id="Vector" d="M22.6876 0.319458C22.702 2.60594 22.7155 4.89242 22.7233 7.17894C22.7234 7.21279 22.7235 7.24665 22.7237 7.28153C22.7262 8.0173 22.7285 8.75307 22.7307 9.48884C22.7317 9.84968 22.7328 10.2105 22.7339 10.5713C22.734 10.6073 22.7342 10.6432 22.7343 10.6802C22.7379 11.8435 22.7442 13.0069 22.752 14.1702C22.7599 15.3659 22.7651 16.5616 22.7669 17.7574C22.7671 17.9264 22.7674 18.0954 22.7677 18.2643C22.7677 18.2976 22.7678 18.3308 22.7678 18.3651C22.7688 18.9 22.7727 19.4348 22.7778 19.9696C22.7827 20.5076 22.7846 21.0456 22.7834 21.5836C22.7829 21.8751 22.7837 22.1663 22.7882 22.4577C22.7923 22.7248 22.7925 22.9915 22.7896 23.2585C22.7893 23.3549 22.7903 23.4513 22.793 23.5477C22.8112 24.2477 22.8112 24.2477 22.6041 24.4924C22.4018 24.6761 22.1789 24.819 21.9419 24.9528C21.8174 25.0233 21.6997 25.1026 21.5815 25.1832C21.5088 25.2289 21.4357 25.2742 21.3624 25.319C21.3217 25.3441 21.281 25.3691 21.239 25.395C19.9855 26.1589 18.6737 26.7417 17.2931 27.2316C17.2531 27.2458 17.2131 27.2601 17.1719 27.2747C16.6243 27.4681 16.6243 27.4681 16.4488 27.4681C16.4488 30.0591 16.4488 32.65 16.4488 35.3195C15.1695 35.3195 15.1695 35.3195 14.5959 35.284C14.5451 35.2809 14.5451 35.2809 14.4934 35.2778C10.7271 35.0484 6.9378 34.3146 1.14197 31.2901C1.01823 31.2018 1.01823 31.2018 0.882479 31.1396C0.701023 31.0397 0.538164 30.9433 0.470363 30.7357C0.42053 30.4487 0.433025 30.1569 0.437874 29.8668C0.437649 29.7671 0.437196 29.6675 0.436537 29.5679C0.435383 29.2942 0.437447 29.0206 0.440034 28.747C0.442262 28.4519 0.44151 28.1567 0.441118 27.8616C0.440847 27.3503 0.442448 26.839 0.445368 26.3277C0.448422 25.7916 0.450408 25.2554 0.450968 24.7192C0.451004 24.6859 0.451039 24.6525 0.451076 24.6181C0.45125 24.4488 0.451406 24.2794 0.451554 24.11C0.452637 22.9107 0.456113 21.7114 0.460998 20.512C0.465737 19.3469 0.469392 18.1819 0.471579 17.0168C0.471647 16.9808 0.471716 16.9449 0.471786 16.9079C0.472466 16.5472 0.473123 16.1865 0.473765 15.8258C0.475074 15.091 0.47653 14.3562 0.478074 13.6214C0.478145 13.5876 0.478216 13.5538 0.478289 13.519C0.483036 11.2633 0.491223 9.00759 0.499924 6.75189C0.685676 6.823 0.818976 6.90465 0.97487 7.02976C2.66611 8.34638 4.69653 9.12207 6.69182 9.82621C6.69182 8.18736 6.69182 6.54851 6.69182 4.86C7.07978 4.84049 7.46774 4.82098 7.86746 4.80088C8.94969 4.74292 10.0258 4.66541 11.1012 4.52892C11.1352 4.52461 11.1691 4.5203 11.2041 4.51586C14.2729 4.12204 17.2927 3.34125 20.0607 1.92757C20.1007 1.90754 20.1406 1.88751 20.1818 1.86687C20.9617 1.47561 21.6906 1.00592 22.3831 0.473186C22.5844 0.319458 22.5844 0.319458 22.6876 0.319458Z" fill="#868686"/>
<path id="Vector_2" d="M22.6876 0.319458C22.702 2.60594 22.7155 4.89242 22.7233 7.17894C22.7234 7.21279 22.7235 7.24665 22.7237 7.28153C22.7262 8.0173 22.7285 8.75307 22.7307 9.48884C22.7317 9.84968 22.7328 10.2105 22.7339 10.5713C22.7341 10.6073 22.7342 10.6432 22.7343 10.6802C22.7379 11.8435 22.7442 13.0069 22.752 14.1702C22.76 15.3659 22.7651 16.5616 22.7669 17.7574C22.7671 17.9264 22.7674 18.0954 22.7677 18.2643C22.7677 18.2976 22.7678 18.3308 22.7678 18.3651C22.7688 18.9 22.7728 19.4348 22.7778 19.9696C22.7827 20.5076 22.7846 21.0456 22.7834 21.5836C22.7829 21.8751 22.7837 22.1663 22.7882 22.4577C22.7923 22.7248 22.7925 22.9915 22.7896 23.2585C22.7893 23.3549 22.7903 23.4513 22.793 23.5477C22.8112 24.2477 22.8112 24.2477 22.6041 24.4924C22.4018 24.6761 22.1789 24.819 21.9419 24.9528C21.8174 25.0233 21.6997 25.1026 21.5816 25.1832C21.5088 25.2289 21.4357 25.2742 21.3624 25.319C21.3217 25.3441 21.281 25.3691 21.239 25.395C19.9855 26.1589 18.6738 26.7417 17.2931 27.2316C17.2531 27.2458 17.2131 27.2601 17.1719 27.2747C16.6243 27.4681 16.6243 27.4681 16.4488 27.4681C16.4488 22.1301 16.4488 16.7922 16.4488 11.2924C16.1237 11.2924 15.7986 11.2924 15.4637 11.2924C15.1887 11.2821 14.9144 11.2704 14.6399 11.254C14.6041 11.2519 14.5683 11.2499 14.5314 11.2478C13.8894 11.2105 13.2512 11.1513 12.6126 11.074C12.4649 11.0563 12.3171 11.0398 12.1693 11.0236C7.73596 10.5281 7.73596 10.5281 6.69183 9.82621C6.67451 9.73702 6.67451 9.73702 6.6749 9.6263C6.67471 9.58439 6.67452 9.54247 6.67432 9.49928C6.67482 9.45319 6.67533 9.40709 6.67585 9.35959C6.67583 9.31114 6.67581 9.26269 6.67579 9.21277C6.67588 9.05204 6.67698 8.89134 6.67808 8.73062C6.67835 8.61941 6.67855 8.5082 6.67869 8.39699C6.67922 8.10385 6.68061 7.81071 6.68216 7.51757C6.6836 7.21862 6.68424 6.91967 6.68495 6.62071C6.68646 6.0338 6.68887 5.4469 6.69183 4.86C6.73963 4.85762 6.73963 4.85762 6.7884 4.8552C8.23013 4.78344 9.66828 4.71079 11.1012 4.52892C11.1352 4.52461 11.1691 4.5203 11.2041 4.51586C14.2729 4.12204 17.2927 3.34125 20.0607 1.92757C20.1007 1.90754 20.1406 1.88751 20.1818 1.86687C20.9617 1.47561 21.6906 1.00592 22.3831 0.473186C22.5844 0.319458 22.5844 0.319458 22.6876 0.319458Z" fill="#868686"/>
<path id="Vector_3" d="M131.28 7.17755C132.457 7.17755 133.633 7.17755 134.845 7.17755C135.276 8.75038 135.276 8.75038 135.466 9.499C135.487 9.58423 135.509 9.66947 135.531 9.7547C135.577 9.93464 135.623 10.1146 135.668 10.2946C135.792 10.7803 135.916 11.2659 136.04 11.7515C136.053 11.8012 136.066 11.8509 136.079 11.9021C136.461 13.4001 136.85 14.8967 137.239 16.3932C137.37 16.8961 137.5 17.3992 137.63 17.9023C137.684 18.1087 137.737 18.3151 137.79 18.5215C137.831 18.68 137.872 18.8385 137.913 18.9971C137.957 19.1667 138.001 19.3362 138.045 19.5057C138.058 19.5553 138.07 19.605 138.084 19.6561C138.095 19.7006 138.107 19.7451 138.119 19.791C138.129 19.8295 138.139 19.8681 138.149 19.9079C138.168 19.995 138.168 19.995 138.223 20.0424C138.396 19.4847 138.569 18.927 138.742 18.3693C138.755 18.3268 138.768 18.2843 138.782 18.2405C139.189 16.9259 139.595 15.6109 140 14.2956C140.261 13.4496 140.522 12.6038 140.784 11.7584C140.797 11.7163 140.81 11.6743 140.824 11.631C140.951 11.2224 141.077 10.8138 141.204 10.4053C141.262 10.2188 141.32 10.0323 141.378 9.84578C141.389 9.80992 141.4 9.77405 141.412 9.7371C141.541 9.32139 141.668 8.90534 141.794 8.48871C141.806 8.449 141.818 8.4093 141.831 8.36838C141.889 8.1774 141.946 7.98637 142.003 7.79528C142.024 7.72728 142.044 7.65928 142.065 7.59129C142.092 7.50202 142.092 7.50202 142.119 7.41095C142.163 7.27215 142.163 7.27215 142.21 7.17755C143.263 7.17755 144.315 7.17755 145.4 7.17755C145.558 7.60329 145.558 7.60329 145.62 7.80642C145.635 7.85242 145.649 7.89843 145.664 7.94582C145.679 7.99501 145.694 8.04419 145.709 8.09486C145.725 8.14755 145.742 8.20025 145.758 8.25454C145.812 8.42858 145.865 8.60269 145.919 8.77679C145.937 8.83805 145.956 8.8993 145.975 8.96055C146.34 10.1498 146.701 11.3404 147.06 12.5314C147.273 13.2368 147.487 13.9418 147.701 14.6469C147.787 14.9318 147.874 15.2166 147.96 15.5015C147.982 15.5735 148.004 15.6455 148.025 15.7175C148.19 16.259 148.354 16.8006 148.518 17.3422C148.59 17.5802 148.662 17.8183 148.734 18.0564C148.792 18.2473 148.85 18.4383 148.908 18.6293C148.961 18.807 149.015 18.9848 149.069 19.1626C149.089 19.2279 149.109 19.2932 149.128 19.3585C149.155 19.4476 149.182 19.5367 149.209 19.6259C149.225 19.6758 149.24 19.7257 149.255 19.7771C149.282 19.8659 149.311 19.9543 149.34 20.0424C149.446 19.7334 149.537 19.422 149.622 19.1065C149.642 19.0319 149.642 19.0319 149.663 18.9558C149.708 18.7901 149.753 18.6244 149.798 18.4587C149.83 18.3396 149.862 18.2206 149.894 18.1015C149.973 17.8125 150.051 17.5235 150.129 17.2344C150.193 16.9996 150.256 16.7647 150.32 16.5299C150.329 16.4964 150.338 16.4629 150.347 16.4284C150.356 16.3948 150.365 16.3612 150.375 16.3266C150.769 14.8736 151.161 13.4202 151.553 11.9666C151.581 11.8631 151.609 11.7595 151.637 11.656C151.806 11.0279 151.976 10.3998 152.145 9.77158C152.219 9.49701 152.293 9.22245 152.366 8.9479C152.397 8.83565 152.427 8.7234 152.457 8.61113C152.498 8.4577 152.54 8.30428 152.581 8.15086C152.593 8.10678 152.605 8.06269 152.617 8.01727C152.628 7.97564 152.639 7.93401 152.651 7.89111C152.66 7.85581 152.67 7.82051 152.68 7.78414C152.737 7.58127 152.798 7.37955 152.858 7.17755C153.942 7.17755 155.025 7.17755 156.142 7.17755C156.108 7.41637 156.066 7.63156 155.999 7.86031C155.984 7.91102 155.984 7.91102 155.969 7.96275C155.937 8.07503 155.904 8.1872 155.872 8.29938C155.848 8.37978 155.825 8.46018 155.802 8.54059C155.752 8.7131 155.702 8.88557 155.652 9.058C155.572 9.33319 155.492 9.60846 155.412 9.88375C155.303 10.2636 155.192 10.6434 155.082 11.0232C154.936 11.5267 154.791 12.0303 154.645 12.534C154.634 12.5719 154.623 12.6098 154.612 12.6489C154.568 12.8008 154.525 12.9527 154.481 13.1046C154.404 13.3712 154.327 13.6377 154.25 13.9042C153.894 15.1367 153.538 16.3694 153.183 17.6021C152.915 18.5325 152.647 19.4627 152.378 20.3929C152.354 20.4757 152.33 20.5586 152.306 20.6414C152.213 20.9628 152.121 21.2842 152.028 21.6056C151.814 22.3439 151.601 23.0821 151.39 23.8212C151.376 23.8732 151.361 23.9252 151.345 23.9788C151.279 24.2107 151.213 24.4426 151.148 24.6746C151.126 24.7518 151.104 24.8291 151.082 24.9063C151.072 24.9407 151.062 24.9751 151.053 25.0106C150.987 25.2398 150.987 25.2398 150.935 25.2924C150.84 25.2969 150.745 25.298 150.65 25.2978C150.558 25.2978 150.558 25.2978 150.465 25.2978C150.398 25.2975 150.33 25.2973 150.263 25.297C150.195 25.2969 150.127 25.2969 150.058 25.2968C149.878 25.2966 149.698 25.2962 149.518 25.2957C149.335 25.2952 149.151 25.295 148.967 25.2947C148.607 25.2942 148.246 25.2934 147.886 25.2924C147.736 24.9365 147.619 24.5754 147.509 24.2051C147.482 24.1135 147.454 24.0218 147.427 23.9302C147.398 23.8323 147.369 23.7344 147.339 23.6365C147.278 23.4288 147.216 23.2212 147.154 23.0135C147.132 22.9418 147.111 22.8701 147.089 22.7984C147.078 22.7625 147.068 22.7266 147.057 22.6897C147.024 22.5794 146.991 22.4691 146.958 22.3589C146.74 21.6308 146.521 20.9034 146.301 20.176C146.25 20.006 146.198 19.836 146.147 19.666C146.075 19.4264 146.002 19.1868 145.93 18.9472C145.745 18.3339 145.56 17.7207 145.374 17.1074C145.303 16.872 145.232 16.6366 145.161 16.4012C144.968 15.7616 144.775 15.1221 144.582 14.4824C144.502 14.216 144.422 13.9496 144.341 13.6832C144.276 13.4657 144.21 13.2482 144.145 13.0306C144.104 12.8966 144.064 12.7625 144.023 12.6285C143.996 12.5369 143.968 12.4453 143.94 12.3537C143.916 12.2713 143.916 12.2713 143.89 12.1873C143.869 12.116 143.869 12.116 143.847 12.0433C143.803 11.9027 143.758 11.7631 143.711 11.6235C143.201 13.3052 142.691 14.9871 142.184 16.6695C142.173 16.7028 142.163 16.7362 142.153 16.7705C142.061 17.0751 141.969 17.3796 141.877 17.6842C141.683 18.3291 141.488 18.9739 141.294 19.6188C141.222 19.8545 141.151 20.0903 141.08 20.326C140.888 20.9638 140.695 21.6016 140.502 22.2394C140.423 22.5042 140.343 22.7689 140.263 23.0337C140.198 23.2493 140.132 23.4649 140.067 23.6806C140.027 23.8138 139.987 23.947 139.947 24.0803C139.919 24.1707 139.892 24.2612 139.865 24.3516C139.848 24.4065 139.832 24.4614 139.815 24.518C139.8 24.565 139.786 24.6121 139.771 24.6606C139.708 24.8711 139.646 25.0818 139.583 25.2924C138.592 25.2924 137.602 25.2924 136.581 25.2924C136.097 23.7189 136.097 23.7189 135.926 23.1289C135.907 23.0607 135.887 22.9924 135.867 22.9241C135.825 22.7807 135.784 22.6372 135.742 22.4938C135.641 22.1433 135.539 21.7929 135.437 21.4425C135.414 21.362 135.391 21.2815 135.367 21.201C135.138 20.4117 134.907 19.6229 134.676 18.8344C134.646 18.7323 134.616 18.6302 134.586 18.5281C134.503 18.2476 134.421 17.9671 134.339 17.6866C134.071 16.7762 133.805 15.8656 133.538 14.955C133.525 14.9114 133.512 14.8677 133.499 14.8227C132.055 9.89466 132.055 9.89466 131.531 8.09178C131.507 8.0097 131.483 7.92762 131.459 7.84556C131.428 7.73838 131.397 7.63118 131.365 7.52397C131.349 7.46645 131.332 7.40894 131.315 7.34969C131.28 7.22485 131.28 7.22485 131.28 7.17755Z" fill="#868686"/>
<path id="Vector_4" d="M188.602 5.94781C189.624 5.94781 190.646 5.94781 191.698 5.94781C191.698 12.3315 191.698 18.7152 191.698 25.2924C190.723 25.2924 189.748 25.2924 188.743 25.2924C188.728 24.7305 188.712 24.1686 188.696 23.5897C188.541 23.7926 188.387 23.9955 188.227 24.2046C187.303 25.1471 186.021 25.573 184.723 25.5876C183.034 25.5915 181.537 25.13 180.303 23.9249C179.115 22.7329 178.556 21.072 178.546 19.4021C178.546 19.3249 178.546 19.2476 178.546 19.1704C178.546 19.1307 178.546 19.0911 178.546 19.0503C178.548 18.4192 178.585 17.8161 178.752 17.2046C178.762 17.1674 178.772 17.1302 178.782 17.0918C179.198 15.6088 180.118 14.2488 181.449 13.4637C182.905 12.6624 184.567 12.4237 186.178 12.8896C187.162 13.1963 187.818 13.7179 188.555 14.4613C188.571 11.6519 188.586 8.84241 188.602 5.94781ZM182.533 16.6111C181.861 17.3813 181.552 18.4109 181.613 19.4275C181.719 20.4609 182.132 21.3459 182.926 22.0289C183.752 22.6464 184.721 22.891 185.739 22.7622C186.644 22.5959 187.475 22.136 188.028 21.3786C188.634 20.4361 188.87 19.3856 188.648 18.2692C188.506 17.6743 188.213 17.0899 187.805 16.637C187.774 16.6018 187.744 16.5665 187.712 16.5302C187.142 15.9122 186.306 15.5183 185.468 15.486C184.299 15.4689 183.365 15.7516 182.533 16.6111Z" fill="#868686"/>
<path id="Vector_5" d="M127.215 14.0218C127.619 14.3796 127.946 14.7576 128.231 15.2181C128.247 14.5781 128.262 13.9382 128.278 13.2789C128.944 13.2789 129.61 13.2789 130.295 13.2789C130.298 14.7856 130.299 16.2923 130.3 17.799C130.3 17.9774 130.3 18.1558 130.301 18.3342C130.301 18.3875 130.301 18.3875 130.301 18.4419C130.301 19.0148 130.302 19.5877 130.303 20.1606C130.303 20.7497 130.304 21.3388 130.304 21.9279C130.304 22.2906 130.305 22.6533 130.305 23.0159C130.306 23.2954 130.306 23.5748 130.306 23.8542C130.306 23.9678 130.306 24.0815 130.307 24.1952C130.313 26.2554 130.04 28.2484 128.56 29.7856C128.234 30.1154 127.883 30.3617 127.481 30.5897C127.414 30.6276 127.414 30.6276 127.347 30.6664C126.268 31.2455 125.042 31.4045 123.837 31.4056C123.803 31.4056 123.769 31.4056 123.734 31.4057C121.566 31.4025 119.712 30.7486 118.102 29.2785C118.005 29.1708 118.005 29.1708 118.005 29.0289C118.231 28.6992 118.516 28.4057 118.788 28.114C118.949 27.9407 119.102 27.7629 119.248 27.5765C119.319 27.5154 119.319 27.5154 119.506 27.5154C119.594 27.5902 119.594 27.5902 119.688 27.6957C120.128 28.1582 120.643 28.5247 121.195 28.8397C121.24 28.8654 121.284 28.8912 121.33 28.9177C121.596 29.0616 121.866 29.1661 122.154 29.2535C122.185 29.2629 122.215 29.2723 122.247 29.282C122.769 29.4311 123.293 29.4718 123.834 29.4693C123.893 29.4691 123.953 29.4689 124.014 29.4686C125.152 29.4544 126.25 29.1585 127.087 28.3457C127.671 27.7171 127.971 26.9078 128.123 26.0728C128.129 26.042 128.134 26.0112 128.14 25.9794C128.242 25.3705 128.237 24.7578 128.234 24.1425C128.234 24.061 128.234 23.9795 128.234 23.898C128.233 23.7006 128.232 23.5033 128.231 23.3059C128.197 23.3507 128.163 23.3955 128.128 23.4417C128.082 23.5015 128.036 23.5612 127.99 23.6209C127.967 23.6503 127.945 23.6798 127.922 23.7101C127.178 24.6721 126.042 25.1986 124.869 25.4018C123.19 25.6029 121.378 25.231 120.023 24.1783C119.812 24.0055 119.609 23.8264 119.413 23.637C119.385 23.6116 119.356 23.5863 119.327 23.5601C118.233 22.5359 117.776 20.9261 117.718 19.4695C117.684 17.662 118.206 15.9598 119.451 14.6387C120.382 13.7365 121.616 13.2208 122.884 13.0424C122.914 13.038 122.945 13.0337 122.976 13.0292C124.438 12.8407 126.051 13.037 127.215 14.0218ZM121.43 15.7856C121.401 15.8078 121.372 15.8299 121.342 15.8527C120.528 16.5076 120.042 17.6497 119.929 18.6708C119.865 20.0271 120.121 21.1617 121.005 22.2122C121.735 22.9952 122.785 23.509 123.851 23.5526C124.959 23.5818 126.05 23.3023 126.886 22.5344C127.805 21.6523 128.25 20.5291 128.293 19.2561C128.262 17.9764 127.865 16.7964 126.941 15.8969C125.996 15.0342 124.822 14.8433 123.596 14.8789C122.791 14.9225 122.058 15.2913 121.43 15.7856Z" fill="#868686"/>
<path id="Vector_6" d="M166.207 14.1862C166.325 14.2916 166.441 14.3994 166.555 14.5086C166.591 14.5411 166.626 14.5735 166.662 14.6069C167.457 15.3665 167.983 16.4258 168.244 17.4884C168.256 17.5362 168.256 17.5362 168.269 17.585C168.509 18.5604 168.487 19.7801 168.244 20.7519C168.236 20.7847 168.229 20.8175 168.22 20.8513C167.847 22.3886 166.862 23.7548 165.523 24.583C163.89 25.5644 161.86 25.8624 160.011 25.4051C159 25.1403 158.06 24.7097 157.268 24.0154C157.226 23.9806 157.185 23.9458 157.142 23.9099C155.965 22.8832 155.321 21.3932 155.157 19.8532C155.144 19.6126 155.141 19.3729 155.142 19.132C155.142 19.1 155.142 19.068 155.142 19.0351C155.145 18.5229 155.175 18.0336 155.297 17.5357C155.305 17.5032 155.313 17.4708 155.32 17.4374C155.696 15.8631 156.702 14.5004 158.065 13.6573C160.497 12.1649 164.009 12.306 166.207 14.1862ZM159.133 16.6106C158.374 17.533 158.18 18.542 158.253 19.7113C158.352 20.6142 158.857 21.4344 159.527 22.021C160.346 22.6535 161.311 22.8927 162.331 22.762C163.283 22.589 164.095 22.0895 164.685 21.3122C165.279 20.404 165.447 19.3301 165.245 18.2728C165.036 17.3082 164.468 16.5061 163.647 15.9749C162.187 15.1345 160.286 15.3443 159.133 16.6106Z" fill="#868686"/>
<path id="Vector_7" d="M94.7857 5.94781C95.4513 5.94781 96.117 5.94781 96.8028 5.94781C96.8028 12.3315 96.8028 18.7152 96.8028 25.2924C96.1371 25.2924 95.4715 25.2924 94.7857 25.2924C94.7702 24.6213 94.7547 23.9501 94.7388 23.2586C94.615 23.4303 94.4911 23.602 94.3635 23.7789C93.5644 24.7758 92.3011 25.4033 91.0493 25.5612C89.3905 25.7046 87.7609 25.3765 86.4558 24.2845C85.2094 23.2058 84.4829 21.7807 84.2782 20.137C84.273 20.0111 84.2695 19.8864 84.2687 19.7605C84.2683 19.7073 84.2683 19.7073 84.2679 19.6531C84.2675 19.5783 84.2672 19.5035 84.267 19.4287C84.2665 19.3172 84.2651 19.2056 84.2636 19.0941C84.2516 17.3615 84.9359 15.8166 86.1262 14.5812C86.8847 13.8595 87.8629 13.3702 88.8753 13.137C88.9081 13.1293 88.9409 13.1217 88.9747 13.1137C90.5014 12.7744 92.0891 12.9778 93.4254 13.7992C93.9242 14.1264 94.3528 14.5276 94.7388 14.9816C94.762 10.5099 94.762 10.5099 94.7857 5.94781ZM87.4532 16.232C87.0916 16.6658 86.8323 17.1492 86.653 17.6835C86.6418 17.7167 86.6306 17.75 86.6191 17.7842C86.4651 18.2731 86.4187 18.7629 86.4214 19.2738C86.4216 19.3276 86.4219 19.3814 86.4222 19.4369C86.4394 20.648 86.8618 21.7174 87.7025 22.5965C88.6388 23.4804 89.7845 23.7208 91.0324 23.6907C91.5339 23.6679 91.9901 23.526 92.4403 23.3059C92.4842 23.2845 92.5281 23.263 92.5733 23.2409C92.8885 23.0771 93.1594 22.8796 93.4254 22.6438C93.4611 22.6122 93.4968 22.5807 93.5337 22.5482C94.2987 21.8276 94.745 20.7132 94.7857 19.664C94.7881 19.6106 94.7905 19.5571 94.793 19.502C94.8214 18.298 94.5148 17.1258 93.7068 16.2113C93.6762 16.176 93.6455 16.1406 93.6139 16.1042C93.1369 15.588 92.5378 15.2454 91.8774 15.0289C91.8288 15.0129 91.7802 14.9968 91.7301 14.9803C90.1869 14.5645 88.5393 15.0797 87.4532 16.232Z" fill="#868686"/>
<path id="Vector_8" d="M75.2414 14.4931C76.4557 15.5694 77.1331 17.0479 77.2771 18.6649C77.2821 18.7614 77.286 18.858 77.2889 18.9546C77.2907 19.0051 77.2926 19.0556 77.2946 19.1076C77.3243 20.6376 76.911 22.2403 75.8816 23.4005C75.8484 23.4396 75.8152 23.4787 75.781 23.519C74.7221 24.7438 73.2178 25.4535 71.613 25.5762C69.7986 25.6504 68.0328 25.3335 66.6319 24.0893C66.5562 24.0178 66.481 23.9459 66.4061 23.8735C66.3671 23.8371 66.328 23.8007 66.2878 23.7632C65.1748 22.6945 64.6181 21.1265 64.5635 19.6009C64.525 17.773 65.0387 16.1193 66.3073 14.7815C68.6198 12.4007 72.7609 12.3862 75.2414 14.4931ZM67.7196 16.3059C66.9358 17.2802 66.6376 18.5592 66.7548 19.7928C66.8876 21.0076 67.3661 22.0078 68.2883 22.8152C69.0544 23.4256 69.9532 23.7043 70.924 23.6991C71.0013 23.6988 71.0013 23.6988 71.0801 23.6984C72.1905 23.6823 73.1642 23.2288 73.9584 22.4546C74.8705 21.4869 75.1167 20.2443 75.099 18.9542C75.0859 18.5432 75.0202 18.1633 74.8966 17.7722C74.879 17.7166 74.8615 17.6611 74.8434 17.6038C74.462 16.5226 73.7246 15.7441 72.7192 15.2309C71.0093 14.4419 68.9552 14.8889 67.7196 16.3059Z" fill="#868686"/>
<path id="Vector_9" d="M31.2718 13.2789C31.9529 13.2789 32.634 13.2789 33.3357 13.2789C33.3362 13.5154 33.3366 13.7519 33.3371 13.9956C33.3386 14.7788 33.3412 15.5621 33.3444 16.3453C33.3462 16.82 33.3477 17.2947 33.3484 17.7693C33.349 18.1834 33.3503 18.5975 33.3524 19.0115C33.3534 19.2304 33.3542 19.4494 33.3541 19.6683C33.3541 19.875 33.3549 20.0817 33.3564 20.2885C33.3568 20.3637 33.3569 20.439 33.3566 20.5142C33.3546 21.1692 33.4312 21.8442 33.7432 22.431C33.7594 22.462 33.7756 22.4931 33.7922 22.5251C34.0736 23.0418 34.4833 23.3358 35.0244 23.5424C35.3554 23.6338 35.6794 23.6538 36.0212 23.6518C36.0685 23.6516 36.1158 23.6514 36.1645 23.6511C37.0494 23.6372 37.882 23.3491 38.5209 22.7147C39.5322 21.5374 39.5959 20.0356 39.5983 18.5526C39.5987 18.3667 39.5999 18.1807 39.6011 17.9947C39.6031 17.644 39.6045 17.2933 39.6056 16.9425C39.6068 16.5427 39.6089 16.1428 39.611 15.7429C39.6153 14.9216 39.6186 14.1002 39.6214 13.2789C40.2871 13.2789 40.9527 13.2789 41.6385 13.2789C41.6394 13.5546 41.6404 13.8302 41.6413 14.1143C41.6445 15.0332 41.6481 15.9522 41.652 16.8712C41.6543 17.4274 41.6565 17.9836 41.6583 18.5399C41.6599 19.0258 41.6617 19.5117 41.664 19.9977C41.6651 20.254 41.6661 20.5102 41.6668 20.7665C41.6698 21.8972 41.689 23.0244 41.7468 24.1537C41.75 24.2157 41.75 24.2157 41.7532 24.2789C41.7571 24.3548 41.7612 24.4307 41.7654 24.5066C41.7793 24.7698 41.7792 25.0278 41.7792 25.2924C41.1446 25.2924 40.5099 25.2924 39.856 25.2924C39.8032 24.6007 39.8032 24.6007 39.7942 24.3382C39.7913 24.2547 39.7913 24.2547 39.7883 24.1696C39.7864 24.1138 39.7846 24.0581 39.7827 24.0006C39.7807 23.9425 39.7786 23.8844 39.7765 23.8245C39.7716 23.6832 39.7668 23.5419 39.7622 23.4006C39.7408 23.4353 39.7194 23.47 39.6973 23.5058C39.0775 24.5022 38.1815 25.1682 37.0493 25.4586C36.6295 25.5538 36.2225 25.5933 35.7925 25.591C35.7394 25.5907 35.6863 25.5905 35.6316 25.5902C34.4186 25.5727 33.3334 25.2105 32.4445 24.3465C31.3983 23.175 31.2626 21.6193 31.2664 20.1142C31.2664 20.0391 31.2664 19.964 31.2664 19.8889C31.2664 19.6873 31.2667 19.4857 31.267 19.2842C31.2673 19.0727 31.2673 18.8611 31.2674 18.6496C31.2675 18.2501 31.2679 17.8507 31.2684 17.4512C31.2689 16.9959 31.2692 16.5407 31.2694 16.0854C31.2699 15.1499 31.2707 14.2144 31.2718 13.2789Z" fill="#868686"/>
<path id="Vector_10" d="M113.906 13.8999C114.877 14.7555 115.298 15.8308 115.425 17.11C115.429 17.2287 115.431 17.3474 115.431 17.4661C115.431 17.5167 115.431 17.5167 115.431 17.5684C115.431 17.6803 115.431 17.7922 115.431 17.9041C115.431 17.9847 115.431 18.0654 115.431 18.1461C115.431 18.3643 115.431 18.5825 115.43 18.8006C115.43 19.029 115.43 19.2573 115.43 19.4856C115.43 19.9176 115.429 20.3496 115.429 20.7816C115.428 21.2735 115.428 21.7655 115.428 22.2574C115.427 23.2691 115.426 24.2808 115.425 25.2924C114.76 25.2924 114.094 25.2924 113.408 25.2924C113.407 24.9438 113.407 24.9438 113.406 24.5881C113.404 23.8184 113.401 23.0487 113.397 22.2791C113.395 21.8126 113.393 21.3462 113.392 20.8797C113.391 20.4729 113.389 20.066 113.387 19.6591C113.386 19.444 113.385 19.2288 113.385 19.0137C113.385 18.8106 113.384 18.6075 113.382 18.4043C113.382 18.3304 113.382 18.2564 113.382 18.1824C113.383 17.2203 113.229 16.2736 112.563 15.5388C112.012 15.0004 111.312 14.915 110.581 14.917C109.683 14.9314 108.905 15.1976 108.246 15.8308C107.28 16.8517 107.119 18.3424 107.113 19.6867C107.113 19.7477 107.112 19.8087 107.112 19.8715C107.11 20.0368 107.109 20.2021 107.108 20.3674C107.107 20.5409 107.106 20.7144 107.105 20.8878C107.103 21.2154 107.1 21.5431 107.098 21.8707C107.096 22.2441 107.094 22.6174 107.091 22.9908C107.086 23.758 107.081 24.5252 107.076 25.2924C106.41 25.2924 105.745 25.2924 105.059 25.2924C105.058 24.9812 105.056 24.6699 105.055 24.3493C105.051 23.32 105.047 22.2908 105.043 21.2616C105.04 20.6376 105.038 20.0137 105.035 19.3898C105.033 18.8457 105.031 18.3017 105.029 17.7576C105.028 17.4698 105.026 17.1819 105.025 16.8941C105.025 16.6226 105.023 16.3512 105.022 16.0798C105.022 15.9806 105.021 15.8815 105.021 15.7824C105.02 15.3529 105.017 14.9253 104.988 14.4968C104.962 14.0916 104.965 13.685 104.965 13.2789C105.6 13.2789 106.234 13.2789 106.888 13.2789C106.919 13.8876 106.95 14.4964 106.982 15.1235C107.106 14.9362 107.23 14.7489 107.357 14.5559C108.885 12.7119 112.046 12.3742 113.906 13.8999Z" fill="#868686"/>
<path id="Vector_11" d="M53.4944 13.903C53.6121 14.0067 53.724 14.1138 53.8347 14.2249C53.8669 14.2557 53.899 14.2865 53.9322 14.3182C54.8528 15.2665 55.0324 16.7429 55.0234 18.0061C55.0233 18.0864 55.0234 18.1667 55.0234 18.247C55.0235 18.4617 55.0227 18.6764 55.0217 18.8912C55.0208 19.1168 55.0207 19.3424 55.0205 19.568C55.0201 19.9937 55.019 20.4195 55.0175 20.8453C55.016 21.3306 55.0152 21.816 55.0145 22.3013C55.013 23.2983 55.0104 24.2954 55.0074 25.2924C54.3418 25.2924 53.6761 25.2924 52.9903 25.2924C52.9897 25.0617 52.989 24.8309 52.9883 24.5932C52.9859 23.8288 52.9828 23.0644 52.9793 22.3C52.9772 21.8368 52.9753 21.3736 52.9741 20.9104C52.973 20.5063 52.9714 20.1022 52.9693 19.6982C52.9682 19.4845 52.9673 19.2709 52.967 19.0572C52.9667 18.8555 52.9658 18.6537 52.9643 18.452C52.9639 18.3786 52.9638 18.3051 52.9638 18.2317C52.9644 17.5133 52.8944 16.8143 52.5682 16.1641C52.5379 16.1022 52.5379 16.1022 52.507 16.0392C52.2272 15.5196 51.8114 15.2021 51.2547 15.0289C50.3253 14.7637 49.2536 14.8956 48.4069 15.3548C47.5739 15.8935 47.1115 16.748 46.8816 17.6981C46.7458 18.3297 46.698 18.95 46.695 19.5955C46.6945 19.6574 46.6941 19.7193 46.6936 19.783C46.6923 19.9511 46.6913 20.1191 46.6904 20.2872C46.6894 20.4634 46.6881 20.6396 46.6868 20.8159C46.6845 21.1489 46.6824 21.4819 46.6804 21.8148C46.678 22.1943 46.6755 22.5737 46.6729 22.9531C46.6675 23.7329 46.6626 24.5127 46.6577 25.2924C45.9921 25.2924 45.3265 25.2924 44.6407 25.2924C44.6395 24.9841 44.6383 24.6757 44.6371 24.358C44.6332 23.3382 44.629 22.3184 44.6247 21.2986C44.6222 20.6804 44.6196 20.0622 44.6173 19.444C44.6153 18.9049 44.6131 18.3659 44.6108 17.8268C44.6095 17.5416 44.6084 17.2564 44.6074 16.9712C44.6065 16.7022 44.6053 16.4333 44.6041 16.1643C44.6036 16.0661 44.6033 15.9679 44.603 15.8697C44.6017 15.4448 44.5995 15.0218 44.5697 14.5979C44.5428 14.159 44.5468 13.7186 44.5468 13.2789C45.1815 13.2789 45.8162 13.2789 46.4701 13.2789C46.501 13.8877 46.532 14.4964 46.5639 15.1235C46.7264 14.866 46.7264 14.866 46.8923 14.6033C46.9932 14.4837 47.0894 14.3749 47.2001 14.2663C47.2282 14.2384 47.2564 14.2105 47.2854 14.1818C48.8788 12.6506 51.7707 12.5136 53.4944 13.903Z" fill="#868686"/>
<path id="Vector_12" d="M63.1168 5.64926C63.1494 5.64911 63.1819 5.64895 63.2155 5.64879C64.3171 5.64709 64.3171 5.64709 64.7645 5.94782C64.736 6.35593 64.6879 6.75842 64.6267 7.16277C64.6187 7.21847 64.6108 7.27416 64.6026 7.33155C64.5946 7.38432 64.5867 7.43709 64.5785 7.49145C64.5714 7.53911 64.5643 7.58677 64.5571 7.63587C64.5436 7.68995 64.5436 7.68995 64.5299 7.74512C64.3837 7.81883 64.2818 7.75134 64.1283 7.70374C63.4564 7.5105 62.6904 7.46104 62.048 7.78078C61.5693 8.06858 61.3132 8.49282 61.178 9.02991C61.1135 9.36945 61.0941 9.70609 61.0822 10.0509C61.0803 10.1028 61.0784 10.1547 61.0765 10.2082C61.0425 11.2314 61.0301 12.2554 61.0118 13.2789C61.9716 13.2789 62.9313 13.2789 63.9201 13.2789C63.9201 13.8564 63.9201 14.4339 63.9201 15.0289C62.9604 15.0289 62.0006 15.0289 61.0118 15.0289C61.0118 18.4159 61.0118 21.8028 61.0118 25.2924C60.3462 25.2924 59.6806 25.2924 58.9948 25.2924C58.9948 21.9055 58.9948 18.5185 58.9948 15.0289C58.1434 15.0289 57.292 15.0289 56.4148 15.0289C56.4148 14.4514 56.4148 13.8739 56.4148 13.2789C57.2662 13.2789 58.1176 13.2789 58.9948 13.2789C58.9937 13.077 58.9926 12.875 58.9915 12.667C58.9908 12.5024 58.9903 12.3378 58.9899 12.1732C58.9894 12.0014 58.9888 11.8297 58.9877 11.6579C58.9652 8.00514 58.9652 8.00514 60.2144 6.65728C60.9948 5.88821 62.061 5.65334 63.1168 5.64926Z" fill="#868686"/>
<path id="Vector_13" d="M176.987 12.6566C177.382 12.6424 177.924 12.6727 178.283 12.8532C178.283 13.8521 178.283 14.8511 178.283 15.8803C177.958 15.8178 177.632 15.7554 177.298 15.6911C177.112 15.6765 176.944 15.6653 176.761 15.6704C176.697 15.6713 176.697 15.6713 176.632 15.6723C175.758 15.6957 174.958 16.0064 174.349 16.654C173.752 17.3991 173.578 18.2727 173.577 19.2088C173.576 19.2755 173.576 19.3423 173.575 19.409C173.574 19.5884 173.573 19.7679 173.573 19.9474C173.572 20.1356 173.571 20.3237 173.57 20.5119C173.567 20.8675 173.566 21.2231 173.564 21.5787C173.562 22.0598 173.559 22.5408 173.556 23.0218C173.552 23.7787 173.548 24.5356 173.545 25.2924C172.539 25.2924 171.533 25.2924 170.496 25.2924C170.496 21.2343 170.496 17.1762 170.496 12.9951C171.502 12.9951 172.508 12.9951 173.545 12.9951C173.56 13.5882 173.576 14.1813 173.592 14.7924C173.7 14.6207 173.809 14.449 173.92 14.2721C174.583 13.3454 175.476 12.8846 176.576 12.6895C176.713 12.6713 176.85 12.6657 176.987 12.6566Z" fill="#868686"/>
<path id="Vector_14" d="M79.7751 5.94781C80.4408 5.94781 81.1064 5.94781 81.7922 5.94781C81.7922 12.3315 81.7922 18.7152 81.7922 25.2924C81.1266 25.2924 80.4609 25.2924 79.7751 25.2924C79.7751 18.9087 79.7751 12.525 79.7751 5.94781Z" fill="#868686"/>
<path id="Vector_15" d="M99.8987 13.2789C100.564 13.2789 101.23 13.2789 101.916 13.2789C101.916 17.2434 101.916 21.2078 101.916 25.2924C101.25 25.2924 100.584 25.2924 99.8987 25.2924C99.8987 21.328 99.8987 17.3635 99.8987 13.2789Z" fill="#868686"/>
<path id="Vector_16" d="M101.576 7.30377C101.955 7.53004 102.22 7.83334 102.338 8.26542C102.394 8.75803 102.367 9.18747 102.078 9.59787C101.863 9.87026 101.629 10.0014 101.306 10.11C100.782 10.1444 100.323 10.1422 99.8841 9.81441C99.5616 9.48161 99.4279 9.13912 99.415 8.67336C99.4237 8.22712 99.5396 7.87971 99.8519 7.55596C100.351 7.14939 100.978 7.02316 101.576 7.30377Z" fill="#868686"/>
<path id="Vector_17" d="M197.503 21.213C198.001 21.5787 198.338 22.0455 198.474 22.6586C198.572 23.3305 198.435 23.9245 198.06 24.4915C197.744 24.897 197.226 25.2162 196.718 25.2924C195.968 25.3456 195.406 25.2404 194.794 24.7722C194.364 24.3869 194.121 23.8297 194.081 23.2575C194.064 22.6832 194.183 22.2152 194.513 21.7451C194.534 21.715 194.554 21.6849 194.576 21.6539C195.254 20.7641 196.597 20.6452 197.503 21.213ZM195.451 21.4614C195.379 21.5009 195.379 21.5009 195.304 21.5412C194.845 21.9137 194.58 22.3557 194.513 22.9512C194.49 23.5422 194.694 24.0453 195.088 24.4795C195.415 24.7876 195.846 24.958 196.291 24.9628C196.852 24.9342 197.288 24.6983 197.667 24.2844C198.043 23.82 198.079 23.2662 198.031 22.6911C197.935 22.2046 197.644 21.8008 197.24 21.5221C196.688 21.1871 196.025 21.1422 195.451 21.4614Z" fill="#868686"/>
<path id="Vector_18" d="M195.451 21.7924C195.764 21.7866 195.764 21.7866 196.084 21.7806C196.182 21.778 196.182 21.778 196.282 21.7754C196.622 21.7723 196.852 21.7913 197.14 21.9816C197.332 22.1877 197.341 22.3959 197.337 22.6672C197.323 22.8365 197.289 22.9338 197.187 23.0694C197.043 23.1644 196.893 23.2586 196.717 23.2586C196.742 23.2976 196.742 23.2976 196.768 23.3374C196.843 23.4558 196.918 23.5745 196.993 23.6932C197.019 23.7341 197.045 23.7749 197.072 23.8171C197.097 23.8568 197.122 23.8966 197.148 23.9376C197.171 23.974 197.194 24.0104 197.218 24.0479C197.282 24.1602 197.329 24.2725 197.374 24.3938C197.208 24.4269 197.07 24.4362 196.905 24.3938C196.758 24.2425 196.668 24.0632 196.571 23.8764C196.519 23.7788 196.466 23.6818 196.412 23.5855C196.39 23.5421 196.367 23.4988 196.344 23.4541C196.228 23.3101 196.228 23.3101 195.873 23.3059C195.873 23.6649 195.873 24.0239 195.873 24.3938C195.734 24.3938 195.594 24.3938 195.451 24.3938C195.451 23.5353 195.451 22.6769 195.451 21.7924ZM195.873 22.1708C195.873 22.4205 195.873 22.6702 195.873 22.9275C195.984 22.9305 196.096 22.9334 196.21 22.9364C196.245 22.9377 196.279 22.939 196.315 22.9403C196.522 22.943 196.648 22.9147 196.811 22.7857C196.921 22.6492 196.921 22.6492 196.899 22.4782C196.873 22.3166 196.873 22.3166 196.787 22.2319C196.613 22.1409 196.453 22.1556 196.26 22.1619C196.223 22.1626 196.186 22.1632 196.147 22.1639C196.056 22.1655 195.965 22.1681 195.873 22.1708Z" fill="#868686"/>
</g>
<defs>
<clipPath id="clip0_87_1664">
<rect width="198" height="35" fill="white" transform="translate(0.5 0.319458)"/>
</clipPath>
</defs>
</svg>
