<svg width="173" height="35" viewBox="0 0 173 35" fill="none" xmlns="http://www.w3.org/2000/svg">
<path fill-rule="evenodd" clip-rule="evenodd" d="M29.6595 18.3053L21.5285 32.3973C21.005 33.2923 20.1185 33.7989 19.0884 33.7989C18.0583 33.7989 17.1717 33.2923 16.6482 32.3973C15.2932 30.0503 13.9382 27.7012 12.5832 25.3521C11.2279 23.0024 9.87258 20.6528 8.51726 18.3053L0.386285 4.22169C-0.128762 3.32669 -0.128762 2.30504 0.386285 1.41005C0.901331 0.515046 1.78789 0 2.81798 0H19.0884H35.3503C36.3889 0 37.2754 0.515046 37.7905 1.41005C38.3055 2.30504 38.3055 3.32669 37.7905 4.22169L29.6595 18.3053ZM25.222 15.5709L20.5049 23.6619C20.2012 24.1757 19.6869 24.4666 19.0893 24.4666C18.4917 24.4666 17.9774 24.1757 17.6737 23.6619C16.8876 22.3143 16.1014 20.9655 15.3153 19.6167C14.5291 18.2677 13.7428 16.9187 12.9566 15.5709L8.23951 7.48481C7.94071 6.97095 7.94071 6.38436 8.23951 5.8705C8.5383 5.35663 9.05263 5.06092 9.65022 5.06092H19.0893H28.5235C29.126 5.06092 29.6403 5.35663 29.9391 5.8705C30.2379 6.38436 30.2379 6.97095 29.9391 7.48481L25.222 15.5709Z" fill="#3C6E71"/>
<path fill-rule="evenodd" clip-rule="evenodd" d="M94.9176 15.4936L86.7866 1.41005C86.2631 0.515046 85.3765 0 84.3464 0C83.3163 0 82.4298 0.515046 81.9063 1.41005L73.7753 15.4936L65.6443 29.5772C65.1293 30.4722 65.1293 31.5023 65.6443 32.3973C66.1594 33.2923 67.0459 33.7989 68.0845 33.7989H84.3464H100.617C101.647 33.7989 102.533 33.2923 103.049 32.3973C103.564 31.5023 103.564 30.4722 103.049 29.5772L94.9176 15.4936ZM78.134 18.176L82.8511 10.0851C83.1548 9.5712 83.6691 9.28033 84.2667 9.28033C84.8643 9.28033 85.3786 9.5712 85.6823 10.0851C86.4682 11.4323 87.2541 12.7807 88.0401 14.1292C88.8265 15.4785 89.613 16.8279 90.3994 18.176L95.1165 26.2621C95.4153 26.776 95.4153 27.3626 95.1165 27.8764C94.8177 28.3903 94.3034 28.686 93.7058 28.686L84.2667 28.686H74.8325C74.23 28.686 73.7157 28.3903 73.4169 27.8764C73.1181 27.3626 73.1181 26.776 73.4169 26.2621L78.134 18.176Z" fill="#3C6E71"/>
<path fill-rule="evenodd" clip-rule="evenodd" d="M164.483 15.4936L156.352 1.41005C155.828 0.515046 154.942 0 153.912 0C152.882 0 151.995 0.515046 151.471 1.41005L143.341 15.4936L135.21 29.5772C134.694 30.4722 134.694 31.5023 135.21 32.3973C135.725 33.2923 136.611 33.7989 137.65 33.7989H153.912H170.182C171.212 33.7989 172.099 33.2923 172.614 32.3973C173.129 31.5023 173.129 30.4722 172.614 29.5772L164.483 15.4936ZM147.74 18.176L152.457 10.0851C152.761 9.5712 153.275 9.28033 153.873 9.28033C154.47 9.28033 154.985 9.5712 155.288 10.0851C156.074 11.4323 156.86 12.7807 157.646 14.1292C158.432 15.4785 159.219 16.8279 160.005 18.176L164.722 26.2621C165.021 26.776 165.021 27.3626 164.722 27.8764C164.424 28.3903 163.909 28.686 163.312 28.686L153.873 28.686H144.438C143.836 28.686 143.322 28.3903 143.023 27.8764C142.724 27.3626 142.724 26.776 143.023 26.2621L147.74 18.176Z" fill="#3C6E71"/>
<path d="M108.469 33.9673C107.768 33.9673 107.127 33.7562 106.536 33.3256C105.945 32.895 105.649 32.2533 105.649 31.3921V4.27193C105.649 3.0392 106.038 2.11887 106.814 1.49406C107.591 0.877692 108.435 0.57373 109.347 0.57373C110.749 0.57373 111.762 1.10566 112.412 2.17797L125.685 23.0247C125.956 23.4553 126.251 23.6664 126.572 23.6664C127.053 23.6664 127.298 23.2949 127.298 22.5434L126.977 3.14896C126.977 2.28774 127.273 1.64604 127.864 1.21543C128.455 0.784815 129.096 0.57373 129.789 0.57373C130.49 0.57373 131.131 0.784815 131.722 1.21543C132.313 1.64604 132.609 2.28774 132.609 3.14896V30.4295C132.609 31.6116 132.263 32.4982 131.562 33.0892C130.87 33.6718 130.059 33.9673 129.147 33.9673C128.505 33.9673 127.872 33.8238 127.256 33.5283C126.639 33.2327 126.116 32.7599 125.685 32.1182L112.649 11.8372C112.379 11.4066 112.091 11.1955 111.762 11.1955C111.281 11.1955 111.044 11.567 111.044 12.3185L111.281 31.3921C111.281 32.2533 111.002 32.895 110.437 33.3256C109.871 33.7562 109.221 33.9673 108.469 33.9673Z" fill="black"/>
<path d="M62.0809 31.596C61.169 32.2968 59.7421 32.8962 57.8086 33.4113C55.8835 33.9179 53.9753 34.1712 52.1008 34.1712C48.9852 34.1712 46.1989 33.4451 43.725 32.0012C41.2595 30.549 39.3007 28.5394 37.8569 25.9642C36.4046 23.389 35.6785 20.4422 35.6785 17.1155C35.6785 13.8395 36.3793 10.9434 37.7724 8.41886C39.1656 5.89429 41.1413 3.92698 43.6912 2.50849C46.2411 1.08156 49.2048 0.372314 52.5821 0.372314C53.9246 0.372314 55.2502 0.482078 56.5674 0.693163C57.8761 0.912691 59.2102 1.2842 60.5527 1.82458C61.0846 2.08632 61.473 2.44939 61.7179 2.90533C61.9543 3.36127 62.0809 3.80877 62.0809 4.23938C62.0809 4.93174 61.853 5.54811 61.397 6.08849C60.9411 6.62042 60.3331 6.89061 59.5817 6.89061C59.2608 6.89061 58.8893 6.81462 58.4587 6.64575C57.5975 6.3249 56.5927 6.02938 55.436 5.76764C54.2877 5.49745 53.1478 5.36235 52.0164 5.36235C49.8718 5.36235 47.9974 5.91117 46.3847 7.00881C44.772 8.1149 43.5308 9.5756 42.6443 11.3994C41.7577 13.2231 41.3102 15.2327 41.3102 17.4364C41.3102 20.704 42.3065 23.4987 44.2907 25.8038C46.2749 28.1088 48.9093 29.2656 52.1768 29.2656C53.6291 29.2656 55.0476 29.0376 56.4407 28.5817C57.8424 28.1257 58.8893 27.6276 59.5817 27.0872C60.1727 26.7663 60.6793 26.6059 61.1099 26.6059C61.8107 26.6059 62.3764 26.8592 62.7986 27.3743C63.2292 27.8809 63.4488 28.455 63.4488 29.1052C63.4488 30.0677 62.9928 30.9036 62.0809 31.596Z" fill="black"/>
</svg>
