<svg width="506" height="188" viewBox="0 0 506 188" fill="none" xmlns="http://www.w3.org/2000/svg">
<path d="M496.688 1.08412C496.182 0.428046 495.24 0.30625 494.584 0.812079L483.893 9.05503C483.237 9.56086 483.115 10.5028 483.621 11.1588C484.127 11.8149 485.069 11.9367 485.725 11.4309L495.228 4.1038L502.555 13.6072C503.061 14.2632 504.003 14.385 504.659 13.8792C505.315 13.3734 505.437 12.4315 504.931 11.7754L496.688 1.08412ZM275.209 185.528L275.096 184.033L275.209 185.528ZM203.089 107.95L203.838 109.25L203.089 107.95ZM0.391356 48.2699C113.278 56.4677 191.439 68.8814 244.027 82.9558C270.32 89.9929 290.183 97.4352 304.781 104.951C319.394 112.474 328.641 120.025 333.817 127.23C338.959 134.388 340.087 141.198 338.501 147.447C336.898 153.762 332.471 159.709 326.112 164.942C313.382 175.419 293.368 182.653 275.096 184.033L275.322 187.024C294.092 185.607 314.727 178.197 328.018 167.259C334.669 161.785 339.595 155.331 341.408 148.185C343.239 140.975 341.847 133.266 336.253 125.479C330.693 117.74 320.988 109.921 306.154 102.284C291.305 94.639 271.225 87.1296 244.802 80.0578C191.957 65.9146 113.587 53.4823 0.608644 45.2778L0.391356 48.2699ZM275.096 184.033C257.712 185.346 239.955 183.838 224.259 180.181C208.543 176.519 195.003 170.727 185.973 163.552C176.947 156.379 172.662 148.049 174.679 139.148C176.731 130.09 185.408 119.857 203.838 109.25L202.341 106.65C183.702 117.377 174.09 128.169 171.753 138.485C169.38 148.959 174.606 158.35 184.107 165.901C193.606 173.449 207.612 179.383 223.578 183.103C239.566 186.828 257.629 188.36 275.322 187.024L275.096 184.033ZM203.838 109.25C224.095 97.5919 251.748 90.1804 282.159 84.3793C312.603 78.5718 345.455 74.4343 376.345 69.1889C407.124 63.9622 435.842 57.65 457.545 47.5056C479.263 37.3543 494.27 23.2065 496.988 2.19236L494.012 1.80764C491.485 21.3559 477.563 34.8375 456.275 44.7878C434.973 54.745 406.61 61.0065 375.842 66.2312C345.185 71.4371 312.023 75.6283 281.597 81.4324C251.136 87.2429 223.061 94.7257 202.341 106.65L203.838 109.25Z" fill="black"/>
</svg>
