<svg width="16" height="23" viewBox="0 0 16 23" fill="none" xmlns="http://www.w3.org/2000/svg">
<path fill-rule="evenodd" clip-rule="evenodd" d="M8 2.5C7.46957 2.5 6.96086 2.71071 6.58579 3.08579C6.21071 3.46086 6 3.96957 6 4.5V10.5C6 11.0304 6.21071 11.5391 6.58579 11.9142C6.96086 12.2893 7.46957 12.5 8 12.5C8.53043 12.5 9.03914 12.2893 9.41421 11.9142C9.78929 11.5391 10 11.0304 10 10.5V4.5C10 3.96957 9.78929 3.46086 9.41421 3.08579C9.03914 2.71071 8.53043 2.5 8 2.5ZM5.17157 1.67157C5.92172 0.921427 6.93913 0.5 8 0.5C9.06087 0.5 10.0783 0.921427 10.8284 1.67157C11.5786 2.42172 12 3.43913 12 4.5V10.5C12 11.5609 11.5786 12.5783 10.8284 13.3284C10.0783 14.0786 9.06087 14.5 8 14.5C6.93913 14.5 5.92172 14.0786 5.17157 13.3284C4.42143 12.5783 4 11.5609 4 10.5V4.5C4 3.43913 4.42143 2.42172 5.17157 1.67157ZM1 9.5C1.55228 9.5 2 9.94771 2 10.5C2 12.0913 2.63214 13.6174 3.75736 14.7426C4.88258 15.8679 6.4087 16.5 8 16.5C9.5913 16.5 11.1174 15.8679 12.2426 14.7426C13.3679 13.6174 14 12.0913 14 10.5C14 9.94771 14.4477 9.5 15 9.5C15.5523 9.5 16 9.94771 16 10.5C16 12.6217 15.1571 14.6566 13.6569 16.1569C12.3942 17.4195 10.753 18.2165 9 18.4373V20.5H12C12.5523 20.5 13 20.9477 13 21.5C13 22.0523 12.5523 22.5 12 22.5H4C3.44772 22.5 3 22.0523 3 21.5C3 20.9477 3.44772 20.5 4 20.5H7V18.4373C5.247 18.2165 3.60577 17.4195 2.34315 16.1569C0.842855 14.6566 0 12.6217 0 10.5C0 9.94771 0.447715 9.5 1 9.5Z" fill="#4ABEFF"/>
</svg>
