<svg width="19" height="20" viewBox="0 0 19 20" fill="none" xmlns="http://www.w3.org/2000/svg">
<g id="microphone 1" clip-path="url(#clip0_54_404)">
<g id="Voiceover">
<path id="Vector" d="M15.79 12.0401C15.79 11.9301 15.79 11.8001 15.75 11.7101C15.67 11.5201 15.35 11.4601 15.17 11.4301C14.96 11.3901 14.75 11.2701 14.54 11.4301C14.34 11.8201 14.57 11.9801 14.49 12.2401C14.24 13.0201 13.96 13.8201 13.4 14.4101C12.88 14.9501 12.15 15.2501 11.41 15.4301C10.1 15.7501 8.69001 15.7101 7.43001 15.2301C6.17001 14.7501 5.07001 13.8001 4.50001 12.5801C4.40001 12.3801 4.31001 12.1501 4.12001 12.0301C3.75001 11.8001 3.24001 12.1401 3.15001 12.5601C3.06001 12.9801 3.25001 13.4101 3.48001 13.7801C4.63001 15.6401 6.72001 16.7901 8.89001 17.0801C8.91001 17.3501 8.94001 17.6101 8.96001 17.8801C8.19001 17.8601 7.36001 17.8501 6.71001 18.2701C6.39001 18.4701 6.12001 18.8901 6.33001 19.2101C6.48001 19.4301 6.78001 19.4701 7.05001 19.4901C8.32001 19.5601 9.58001 19.5701 10.85 19.5301C11.39 19.5101 11.93 19.4801 12.45 19.3301C12.71 19.2501 12.98 19.1401 13.15 18.9201C13.32 18.7001 13.36 18.3701 13.18 18.1701C13.03 18.0001 12.78 17.9601 12.55 17.9401C11.88 17.8801 11.21 17.8601 10.54 17.8901C10.47 17.6301 10.44 17.3601 10.46 17.1001C11.86 16.9101 13.26 16.4201 14.31 15.4701C15.14 14.7201 15.72 13.6601 15.8 12.5301C15.8 12.4001 15.81 12.2601 15.8 12.1301C15.8 12.1001 15.8 12.0801 15.8 12.0501L15.79 12.0401Z" fill="#F1C40F"/>
<path id="Vector_2" d="M5.25013 9.75007V9.95007V10.1701C5.25013 10.2401 5.25013 10.3201 5.25013 10.3901L5.27013 10.6101C5.33013 11.1901 5.51013 11.7801 5.84013 12.2901C6.31013 13.0701 7.09012 13.6501 7.97012 13.9401L8.30013 14.0401L8.64013 14.1001C8.75013 14.1201 8.87013 14.1301 8.99012 14.1401C9.05012 14.1401 9.11013 14.1501 9.16013 14.1501H9.31013C9.77013 14.1801 10.2501 14.1501 10.7201 14.0301C11.3101 13.8901 11.8801 13.5901 12.3401 13.1801C12.8101 12.7701 13.1801 12.2501 13.4301 11.6701C13.4801 11.5201 13.5501 11.3801 13.5901 11.2301C13.6301 11.0801 13.6801 10.9301 13.7101 10.7701C13.7301 10.6201 13.7701 10.4601 13.7801 10.3001L13.8001 10.0601V9.94007L13.8101 9.84007C13.8301 9.32007 13.8701 8.81007 13.9401 8.29007C14.0101 7.78007 14.0401 7.28007 14.0601 6.77007C14.0701 6.52007 14.0801 6.26007 14.0801 6.01007V5.63007L14.0901 5.44007C14.0901 5.41007 14.0901 5.37007 14.0901 5.33007V5.21007C14.0701 4.55007 13.9201 3.89007 13.6601 3.28007C13.4001 2.66007 13.0301 2.09007 12.5601 1.57007C12.2601 1.25007 11.9001 0.990069 11.5001 0.810069C11.3001 0.710069 11.0901 0.650069 10.8901 0.580069C10.7901 0.550069 10.6801 0.530069 10.5701 0.500069C10.4601 0.470069 10.3601 0.450069 10.2501 0.430069C10.0901 0.410069 9.93013 0.400069 9.77013 0.520069C9.61013 0.640069 9.50013 0.880069 9.52013 1.24007C9.52013 1.45007 9.60012 1.52007 9.70012 1.61007C9.80012 1.70007 9.89012 1.78007 9.98012 1.83007C10.5201 2.16007 10.9801 2.46007 11.3901 2.82007C11.7701 3.15007 12.0801 3.58007 12.2101 4.06007C12.0101 4.05007 11.8101 4.04007 11.6101 4.03007C11.5201 4.03007 11.4401 4.03007 11.3501 4.02007C11.1101 4.01007 10.8701 4.04007 10.6501 4.15007C10.4801 4.23007 10.2701 4.38007 10.1901 4.56007C10.1201 4.71007 10.1001 4.89007 10.2201 5.03007C10.3401 5.17007 10.5401 5.26007 10.7201 5.27007C11.2601 5.30007 11.8001 5.33007 12.3401 5.36007V5.88007H11.2401C10.9901 5.88007 10.7701 5.90007 10.5401 6.01007C10.3801 6.09007 10.1601 6.24007 10.0801 6.41007C10.0101 6.56007 9.99012 6.73007 10.1101 6.87007C10.2301 7.01007 10.4301 7.10007 10.6101 7.10007H12.3301C12.3301 7.44007 12.3101 7.78007 12.2901 8.11007H11.4101C11.1801 8.11007 10.9301 8.17007 10.7101 8.25007C10.5601 8.31007 10.3201 8.43007 10.2301 8.57007C10.1601 8.67007 10.1101 8.80007 10.2301 8.90007C10.3501 9.01007 10.5501 9.03007 10.7001 9.03007H12.2101C12.2101 9.11007 12.1901 9.20007 12.1801 9.28007L12.1501 9.68007C12.1401 9.81007 12.1301 9.96007 12.1201 10.0501C12.0701 10.4501 11.9401 10.8301 11.7501 11.1701C11.3701 11.8501 10.6701 12.3301 9.94012 12.4401C9.88012 12.4501 9.82013 12.4501 9.77013 12.4601C9.71013 12.4601 9.65013 12.4701 9.60013 12.4601H9.43013C9.43013 12.4601 9.36012 12.4601 9.32012 12.4501H9.19012L9.02013 12.4201H8.93013L8.85013 12.3901L8.69012 12.3501C8.64012 12.3301 8.58012 12.3101 8.53012 12.2901C8.32012 12.2101 8.12013 12.1101 7.94013 11.9901C7.84013 11.9401 7.76013 11.8601 7.67013 11.8001C7.59013 11.7201 7.50013 11.6601 7.42013 11.5801C7.25013 11.4301 7.12013 11.2301 7.03013 11.0201C6.93013 10.8101 6.89013 10.5801 6.88013 10.3601V10.1901C6.88013 10.1301 6.88013 10.0801 6.88013 10.0201V9.93007L6.89013 9.80007V9.54007C6.91013 9.37007 6.92013 9.20007 6.92013 9.04007C7.24013 9.02007 7.55013 9.00007 7.87013 8.98007C7.95012 8.98007 8.02013 8.98007 8.10013 8.97007C8.33013 8.96007 8.59013 8.86007 8.77013 8.73007C8.90013 8.63007 9.08013 8.45007 9.09013 8.27007C9.12013 7.83007 8.63012 7.70007 8.28012 7.72007C7.84012 7.75007 7.39013 7.78007 6.95012 7.81007C6.95012 7.62007 6.97012 7.43007 6.97012 7.23007H7.78013C8.03013 7.23007 8.25012 7.21007 8.48012 7.10007C8.64012 7.02007 8.86012 6.87007 8.94012 6.70007C9.01012 6.55007 9.03012 6.38007 8.91013 6.24007C8.79013 6.10007 8.59013 6.01007 8.41013 6.01007H6.89013C6.89013 6.01007 6.89013 5.94007 6.88013 5.91007C6.88013 5.91007 6.88013 5.26007 6.88013 5.17007H7.87013C8.10013 5.17007 8.35012 5.11007 8.57012 5.03007C8.72012 4.97007 8.96013 4.85007 9.05013 4.71007C9.12013 4.61007 9.12013 4.30007 9.01013 4.21007C8.89013 4.10007 8.69013 4.08007 8.54013 4.08007H6.99012C7.00012 4.03007 6.96013 3.93007 6.98013 3.88007C6.98013 3.88007 7.01012 2.38007 8.15012 2.25007C8.31012 2.23007 8.47013 2.19007 8.64013 2.18007C8.88013 2.15007 9.15013 2.28007 9.39013 1.79007C9.42013 1.18007 9.36013 0.830069 9.21013 0.740069C9.07013 0.660069 7.62013 0.560069 6.84013 1.12007C5.52013 2.23007 5.35013 3.35007 5.30013 3.51007C5.26013 3.67007 5.25012 5.10007 5.24012 5.17007C5.23012 5.26007 5.31013 9.49007 5.30013 9.76007L5.25013 9.75007Z" fill="#F1C40F"/>
</g>
</g>
<defs>
<clipPath id="clip0_54_404">
<rect width="18.92" height="19.42" fill="white" transform="translate(0 0.290039)"/>
</clipPath>
</defs>
</svg>
